<?xml version="1.0" encoding="UTF-8"?>
<svg id="Layer_1" data-name="Layer 1" xmlns="http://www.w3.org/2000/svg" xmlns:xlink="http://www.w3.org/1999/xlink" viewBox="0 0 1200 448">
  <defs>
    <style>
      .cls-1 {
        stroke-dasharray: 0 0 11.69 11.69;
      }

      .cls-1, .cls-2, .cls-3 {
        fill: none;
        stroke: #f36c30;
        stroke-miterlimit: 10;
      }

      .cls-1, .cls-3 {
        stroke-width: 7.3px;
      }

      .cls-2 {
        stroke-width: 7.3px;
      }

      .cls-4 {
        fill: #89a24f;
      }

      .cls-4, .cls-5, .cls-6, .cls-7, .cls-8, .cls-9, .cls-10, .cls-11, .cls-12, .cls-13, .cls-14, .cls-15, .cls-16, .cls-17, .cls-18, .cls-19 {
        stroke-width: 0px;
      }

      .cls-5 {
        fill: url(#New_Gradient_Swatch_copy_2-4);
      }

      .cls-6 {
        fill: url(#New_Gradient_Swatch_copy_2-5);
      }

      .cls-7 {
        fill: url(#New_Gradient_Swatch_copy_2-2);
      }

      .cls-8 {
        fill: url(#New_Gradient_Swatch_copy_2-3);
      }

      .cls-9 {
        fill: #6c8b23;
      }

      .cls-20 {
        filter: url(#drop-shadow-5);
      }

      .cls-21 {
        filter: url(#drop-shadow-4);
      }

      .cls-10 {
        fill: url(#New_Gradient_Swatch_copy_2);
      }

      .cls-11 {
        fill: #00707a;
      }

      .cls-12 {
        fill: #f36c30;
      }

      .cls-13 {
        fill: #b65124;
      }

      .cls-14 {
        fill: #8eb230;
      }

      .cls-22 {
        opacity: .95;
      }

      .cls-15 {
        filter: url(#drop-shadow-3);
      }

      .cls-15, .cls-16, .cls-17, .cls-18 {
        fill: #0095a3;
      }

      .cls-16 {
        filter: url(#drop-shadow-2);
      }

      .cls-17 {
        filter: url(#drop-shadow-1);
      }

      .cls-19 {
        fill: #fff;
      }
    </style>
    <linearGradient id="New_Gradient_Swatch_copy_2" data-name="New Gradient Swatch copy 2" x1="998.44" y1="41.56" x2="998.49" y2="41.56" gradientUnits="userSpaceOnUse">
      <stop offset="0" stop-color="#f8a783"/>
      <stop offset=".07" stop-color="#f6956b"/>
      <stop offset=".15" stop-color="#f58655"/>
      <stop offset=".25" stop-color="#f47a44"/>
      <stop offset=".36" stop-color="#f37238"/>
      <stop offset=".53" stop-color="#f36d31"/>
      <stop offset="1" stop-color="#f36c30"/>
    </linearGradient>
    <filter id="drop-shadow-1" filterUnits="userSpaceOnUse">
      <feOffset dx="3" dy="3"/>
      <feGaussianBlur result="blur" stdDeviation="2"/>
      <feFlood flood-color="#000" flood-opacity=".24"/>
      <feComposite in2="blur" operator="in"/>
      <feComposite in="SourceGraphic"/>
    </filter>
    <filter id="drop-shadow-2" filterUnits="userSpaceOnUse">
      <feOffset dx="3.27" dy="3.27"/>
      <feGaussianBlur result="blur-2" stdDeviation="2.18"/>
      <feFlood flood-color="#000" flood-opacity=".24"/>
      <feComposite in2="blur-2" operator="in"/>
      <feComposite in="SourceGraphic"/>
    </filter>
    <linearGradient id="New_Gradient_Swatch_copy_2-2" data-name="New Gradient Swatch copy 2" x1="157.08" y1="215.65" x2="157.15" y2="215.65" xlink:href="#New_Gradient_Swatch_copy_2"/>
    <filter id="drop-shadow-3" filterUnits="userSpaceOnUse">
      <feOffset dx="3.27" dy="3.27"/>
      <feGaussianBlur result="blur-3" stdDeviation="2.18"/>
      <feFlood flood-color="#000" flood-opacity=".24"/>
      <feComposite in2="blur-3" operator="in"/>
      <feComposite in="SourceGraphic"/>
    </filter>
    <filter id="drop-shadow-4" filterUnits="userSpaceOnUse">
      <feOffset dx="3" dy="3"/>
      <feGaussianBlur result="blur-4" stdDeviation="2"/>
      <feFlood flood-color="#000" flood-opacity=".24"/>
      <feComposite in2="blur-4" operator="in"/>
      <feComposite in="SourceGraphic"/>
    </filter>
    <filter id="drop-shadow-5" filterUnits="userSpaceOnUse">
      <feOffset dx="3" dy="3"/>
      <feGaussianBlur result="blur-5" stdDeviation="2"/>
      <feFlood flood-color="#000" flood-opacity=".24"/>
      <feComposite in2="blur-5" operator="in"/>
      <feComposite in="SourceGraphic"/>
    </filter>
    <linearGradient id="New_Gradient_Swatch_copy_2-3" data-name="New Gradient Swatch copy 2" x1="472.05" y1="216.57" x2="472.12" y2="216.57" xlink:href="#New_Gradient_Swatch_copy_2"/>
    <linearGradient id="New_Gradient_Swatch_copy_2-4" data-name="New Gradient Swatch copy 2" x1="675.05" y1="218.57" x2="675.12" y2="218.57" xlink:href="#New_Gradient_Swatch_copy_2"/>
    <linearGradient id="New_Gradient_Swatch_copy_2-5" data-name="New Gradient Swatch copy 2" x1="988.05" y1="217.57" x2="988.12" y2="217.57" xlink:href="#New_Gradient_Swatch_copy_2"/>
  </defs>
  <rect class="cls-4" x="-7.86" y="-13" width="1214" height="471.63"/>
  <g>
    <g>
      <g>
        <polygon class="cls-13" points="1009.58 41.56 1009.58 47.24 1004.04 49.71 1004.04 44.04 1008.78 41.92 1009.58 41.56"/>
        <path class="cls-10" d="M998.44,41.56l.04.02v-.04l-.04.02Z"/>
        <path class="cls-12" d="M1004.02,39.08l-5.54,2.46v.04l5.54,2.46h0l5.55-2.48-5.55-2.48ZM1004.03,42.26c-1.33,0-2.41-.31-2.41-.7v-1.05c0-.38,1.08-.7,2.41-.7s2.41.31,2.41.7v1.03s0,0,0,.01c0,.39-1.08.7-2.41.7Z"/>
        <path class="cls-12" d="M1006.43,40.52c0,.21-.31.4-.81.52-.43.11-.98.18-1.59.18s-1.17-.07-1.59-.17c-.5-.13-.81-.32-.81-.52,0-.38,1.08-.7,2.41-.7s2.41.31,2.41.7Z"/>
        <polygon class="cls-12" points="1004.03 44.04 1004.03 49.71 998.47 47.24 998.47 41.56 999.27 41.92 1004.02 44.03 1004.03 44.04"/>
      </g>
      <polygon class="cls-11" points="1015.45 32.58 1015.45 38.26 1009.92 40.73 1009.92 35.06 1014.65 32.94 1015.45 32.58"/>
      <path class="cls-18" d="M1004.32,32.58l.04.02v-.04l-.04.02Z"/>
      <path class="cls-18" d="M1009.9,30.1l-5.54,2.46v.04l5.54,2.46h0l5.55-2.48-5.55-2.48ZM1009.91,33.28c-1.33,0-2.41-.31-2.41-.7v-1.05c0-.38,1.08-.7,2.41-.7s2.41.31,2.41.7v1.03s0,0,0,.01c0,.39-1.08.7-2.41.7Z"/>
      <path class="cls-18" d="M1012.31,31.54c0,.21-.31.4-.81.52-.43.11-.98.18-1.59.18s-1.17-.07-1.59-.17c-.5-.13-.81-.32-.81-.52,0-.38,1.08-.7,2.41-.7s2.41.31,2.41.7Z"/>
      <polygon class="cls-18" points="1009.91 35.06 1009.91 40.73 1004.34 38.26 1004.34 32.58 1005.15 32.94 1009.9 35.05 1009.91 35.06"/>
      <g>
        <polygon class="cls-9" points="1021.5 41.56 1021.5 47.24 1015.96 49.71 1015.96 44.04 1020.7 41.92 1021.5 41.56"/>
        <path class="cls-14" d="M1010.37,41.56l.04.02v-.04l-.04.02Z"/>
        <path class="cls-14" d="M1015.95,39.08l-5.54,2.46v.04l5.54,2.46h0l5.55-2.48-5.55-2.48ZM1015.95,42.26c-1.33,0-2.41-.31-2.41-.7v-1.05c0-.38,1.08-.7,2.41-.7s2.41.31,2.41.7v1.03s0,0,0,.01c0,.39-1.08.7-2.41.7Z"/>
        <path class="cls-14" d="M1018.36,40.52c0,.21-.31.4-.81.52-.43.11-.98.18-1.59.18s-1.17-.07-1.59-.17c-.5-.13-.81-.32-.81-.52,0-.38,1.08-.7,2.41-.7s2.41.31,2.41.7Z"/>
        <polygon class="cls-14" points="1015.95 44.04 1015.95 49.71 1010.39 47.24 1010.39 41.56 1011.2 41.92 1015.94 44.03 1015.95 44.04"/>
      </g>
    </g>
    <g class="cls-22">
      <path class="cls-19" d="M1024.5,51.66c-.62-.11-.89-.44-.84-1.03l.02-.38c.05-.6.4-.91,1.04-.87,3.23.12,4.42.14,6.14.13,3.52-.02,4.64-1.08,4.64-3.6,0-2.31-.93-3.19-2.98-3.79l-4.57-1.39c-3.37-.96-4.62-3.23-4.62-6.39,0-4.6,2.33-5.96,7.45-5.94,1.87,0,3.99.12,5.99.46.55.11.83.46.78,1.05l-.02.36c-.05.58-.4.9-.99.87-1.68-.08-3.83-.14-5.64-.14-3.31,0-4.63.55-4.63,3.41,0,2.19.92,3.17,3.01,3.75l4.45,1.34c3.57,1.03,4.74,3.26,4.74,6.45,0,4.56-2.32,6.16-7.69,6.16-1.37,0-3.6-.06-6.28-.45Z"/>
      <path class="cls-19" d="M1042.26,30.45c0-1.01.83-1.85,1.86-1.85s1.85.84,1.85,1.85-.84,1.86-1.85,1.86-1.86-.83-1.86-1.86ZM1042.71,50.71v-14.15c0-.67.35-1.01,1.01-1.01h.79c.67,0,1.01.34,1.01,1.01v14.15c0,.67-.34,1.01-1.01,1.01h-.79c-.66,0-1.01-.35-1.01-1.01Z"/>
      <path class="cls-19" d="M1051.74,51.72c-.66,0-1.01-.34-1.01-1.01v-14.15c0-.66.33-1.01.99-1.01h.36c.64,0,.97.05,1.1.7l.04.41c.05.29.24.41.51.22,2.06-1.33,4.64-1.75,6.07-1.75,1.77,0,3,.34,3.91,1.73.15.25.33.27.62.07,2.1-1.33,4.07-1.8,6.1-1.8,2.84,0,4.37,1.54,4.37,4.45v11.14c0,.67-.35,1.01-1.01,1.01h-.81c-.67,0-1.01-.34-1.01-1.01v-10.33c-.02-1.99-.71-2.84-2.52-2.84-1.39,0-2.78.24-5.05,1.5-.2.13-.28.27-.27.51.03.43.04.83.02,1.28v9.88c-.02.67-.38,1.01-1.04,1.01h-.71c-.67,0-1.01-.34-1.01-1.01v-10.33c.02-2.09-.81-2.84-2.52-2.84-1.09,0-2.71.18-5,1.46-.2.11-.28.27-.3.51v11.2c-.02.67-.37,1.01-1.04,1.01h-.79Z"/>
      <path class="cls-19" d="M1081.95,51.72c-1.27,0-1.9-.7-1.9-1.94v-19.06c0-1.24.64-1.83,1.9-1.94h5.55c5.64,0,7.65,1,7.65,5.72,0,3.12-.98,4.8-3.24,5.16-.27.05-.27.28,0,.33,2.9.39,3.93,2.53,3.93,6.02,0,4.66-2.05,5.72-7.32,5.72h-6.57ZM1087.84,38.71c3.32,0,4.47-.78,4.47-3.87s-1.27-3.57-4.94-3.57h-3.78c-.46,0-.68.22-.68.68v6.36c0,.27.14.41.41.41h4.52ZM1088.08,49.26c3.61,0,4.8-.54,4.8-3.74,0-3.56-1.27-4.52-5.01-4.56h-4.54c-.27,0-.41.14-.41.41v7.19c0,.47.21.68.66.68l4.5.02h0Z"/>
      <path class="cls-19" d="M1100.24,50.78v-14.3c0-.62.33-.94.93-.94h.4c.57,0,.9.16.98.75l.04.43c.05.33.31.41.56.22,2.11-1.13,3.85-1.66,6.21-1.77.65-.07.97.33.88.97l-.08.75c-.09.59-.41.78-.97.88-1.14.1-3.43.5-5.79,1.27-.22.08-.33.25-.33.47v11.28c0,.62-.32.94-.94.94h-.96c-.61,0-.94-.33-.94-.94Z"/>
      <path class="cls-19" d="M1113.08,30.45c0-1.01.83-1.85,1.86-1.85s1.85.84,1.85,1.85-.84,1.86-1.85,1.86-1.86-.83-1.86-1.86ZM1113.53,50.71v-14.15c0-.67.35-1.01,1.01-1.01h.79c.67,0,1.01.34,1.01,1.01v14.15c0,.67-.34,1.01-1.01,1.01h-.79c-.66,0-1.01-.35-1.01-1.01Z"/>
      <path class="cls-19" d="M1120.76,43.62c0-6.25,2.09-8.5,7.69-8.5,1.17,0,2.87.12,4.3.49.62.16.86.59.74,1.2-.14.61-.51.87-1.13.86-1.22-.09-2.55-.14-3.44-.14-3.85,0-5.2,1.37-5.2,6.09s1.35,6.11,5.2,6.11c.79,0,2.34-.05,3.75-.21.67-.08,1.04.2,1.15.81.11.66-.15,1.08-.75,1.24-1.45.35-3.09.55-4.63.55-5.61,0-7.68-2.25-7.68-8.5Z"/>
      <path class="cls-19" d="M1137.67,50.71v-21.25c0-.66.34-1.01,1.01-1.01h.81c.67,0,1.01.34,1.01,1.01l.04,9.32c0,.84-.03,1.57-.12,2.34-.03.27.11.43.38.43h1.34c.22,0,.36-.08.5-.25l4.48-5.19c.35-.4.69-.58,1.25-.58h.92c.88,0,1.14.56.58,1.25l-4.04,4.68c-.26.34-.61.68-.88.87-.22.16-.22.38,0,.57.26.21.64.67.88,1.02l4.74,6.56c.49.68.2,1.22-.63,1.22h-.99c-.56,0-.93-.19-1.23-.66l-5.05-7.19c-.11-.19-.28-.27-.49-.27h-1.37c-.29,0-.43.16-.41.43.09.75.12,1.48.12,2.17v4.51c0,.66-.35,1.01-1.01,1.01h-.81c-.66,0-1.01-.35-1.01-1.01Z"/>
      <path class="cls-19" d="M1154.69,51.75c-.64-.07-.86-.45-.8-1.18.06-.76.35-1,1-.97,1.44.07,3.06.11,4.75.1,3.63-.02,4.75-.46,4.75-2.26,0-1.53-.98-2-2.72-2.35l-4.3-.91c-2.69-.58-3.76-2.04-3.76-4.61,0-3.32,1.9-4.51,6.25-4.47,1.8.03,4,.17,5.88.39.59.08.91.42.83,1.13-.08.81-.38,1.05-1.04,1.02-1.73-.08-3.51-.13-5.25-.14-2.93-.02-3.92.3-3.92,2.06,0,1.59.83,2.02,2.48,2.39l4.35.93c2.76.6,3.95,1.86,3.95,4.54,0,3.56-2.21,4.64-6.91,4.64-1.06,0-3.14-.03-5.52-.33Z"/>
    </g>
  </g>
  <g>
    <g>
      <polygon class="cls-17" points="131.05 178.57 131.05 269.25 218.78 269.25 218.78 269.39 242.27 269.39 242.27 339.15 48.43 339.15 48.43 108.67 242.27 108.67 242.27 178.57 131.05 178.57"/>
      <polygon class="cls-11" points="242.27 178.57 242.27 178.71 218.78 178.71 218.78 269.25 131.05 269.25 131.05 178.57 242.27 178.57"/>
    </g>
    <g>
      <path class="cls-19" d="M41.62,365.76h3.07v.21c0,.87.28,1.52.85,1.95.57.43,1.36.65,2.38.65s1.8-.21,2.34-.63c.54-.42.81-.97.81-1.66s-.26-1.21-.78-1.59c-.52-.38-1.6-.79-3.24-1.22-1.74-.47-3.03-1.08-3.87-1.82-.84-.74-1.27-1.77-1.27-3.09,0-1.38.53-2.51,1.59-3.36,1.06-.86,2.5-1.29,4.32-1.29s3.26.45,4.35,1.34,1.63,2.06,1.63,3.51v.24h-3.01v-.21c0-.75-.25-1.35-.75-1.81-.5-.46-1.23-.69-2.21-.69s-1.7.19-2.17.56c-.46.38-.7.88-.7,1.53s.25,1.09.74,1.42c.49.33,1.56.72,3.2,1.17,1.71.47,3.01,1.09,3.9,1.86s1.33,1.87,1.33,3.31-.56,2.67-1.68,3.53c-1.12.86-2.62,1.29-4.5,1.29s-3.39-.43-4.55-1.28c-1.16-.85-1.75-2.07-1.75-3.64v-.25Z"/>
      <path class="cls-19" d="M56.65,354.23c.3-.31.73-.46,1.29-.46s.99.15,1.29.46c.3.31.45.69.45,1.15s-.15.84-.45,1.15c-.3.31-.74.47-1.3.47s-.98-.16-1.28-.47-.45-.69-.45-1.15.15-.84.45-1.15ZM56.47,358.76h2.93v11.84h-2.93v-11.84Z"/>
      <path class="cls-19" d="M62.51,358.76h2.74l.08,1.4h.07c.37-.52.85-.92,1.44-1.2s1.23-.43,1.92-.43c.82,0,1.52.17,2.12.5s1.04.84,1.33,1.52h.06c.43-.68.97-1.19,1.63-1.52.66-.33,1.38-.5,2.15-.5,1.21,0,2.17.36,2.88,1.08.72.72,1.07,1.93,1.07,3.62v7.36h-2.92v-7.5c0-.79-.16-1.36-.49-1.72s-.81-.54-1.45-.54c-.55,0-1.03.14-1.44.45s-.74.72-.98,1.25v8.07h-2.93v-7.48c0-.8-.17-1.38-.5-1.75-.33-.36-.82-.54-1.45-.54-.55,0-1.03.15-1.44.45s-.73.71-.97,1.25v8.07h-2.92v-11.84Z"/>
      <path class="cls-19" d="M82.83,358.76h2.92v7.45c0,.86.18,1.46.54,1.81.36.34.86.52,1.5.52.56,0,1.06-.16,1.5-.48.44-.32.77-.72,1.01-1.2v-8.1h2.92v11.84h-2.74l-.08-1.39h-.07c-.37.5-.86.9-1.47,1.18s-1.28.43-2.03.43c-1.18,0-2.15-.36-2.89-1.08s-1.11-1.92-1.11-3.62v-7.37Z"/>
      <path class="cls-19" d="M96.32,353.38h2.93v17.22h-2.93v-17.22Z"/>
      <path class="cls-19" d="M103.23,364.19c1-.66,2.26-.99,3.78-.99h2.41v-.72c0-.58-.15-1.06-.46-1.43-.3-.37-.84-.56-1.6-.56s-1.3.15-1.62.46c-.32.31-.48.67-.48,1.09v.13h-2.89v-.13c0-1.02.47-1.88,1.4-2.57.94-.7,2.17-1.04,3.69-1.04s2.72.33,3.58,1c.86.67,1.29,1.69,1.29,3.06v5.44c0,.49.04.95.12,1.38s.19.8.34,1.12v.18h-2.85c-.1-.18-.18-.41-.26-.7s-.12-.57-.15-.84c-.25.46-.69.87-1.33,1.22s-1.44.54-2.41.54c-1.15,0-2.11-.31-2.9-.94s-1.18-1.55-1.18-2.77c0-1.29.5-2.26,1.5-2.93ZM105.16,368.24c.33.34.85.51,1.56.51s1.38-.24,1.91-.73c.53-.49.8-1.04.8-1.67v-1.31h-2.03c-.91,0-1.6.16-2.05.48-.45.32-.68.78-.68,1.36s.16,1.02.49,1.36Z"/>
      <path class="cls-19" d="M113.9,358.76h7.11v2.16h-7.11v-2.16ZM115.77,359.92v-.34s.01-3.66.01-3.66h2.91v11.3c0,.53.1.9.3,1.11.2.21.5.31.89.31.18,0,.36-.02.54-.06.18-.04.37-.09.54-.16v2.16c-.18.09-.43.17-.75.24-.32.07-.66.11-1.04.11-1.03,0-1.85-.3-2.48-.89-.63-.59-.94-1.52-.94-2.77v-7.34Z"/>
      <path class="cls-19" d="M122.14,364.5c0-1.84.54-3.32,1.63-4.42,1.09-1.1,2.52-1.66,4.28-1.66s3.21.55,4.3,1.66c1.09,1.1,1.63,2.58,1.63,4.42v.36c0,1.83-.54,3.3-1.63,4.41-1.09,1.11-2.52,1.66-4.3,1.66s-3.2-.55-4.28-1.66c-1.09-1.11-1.63-2.58-1.63-4.41v-.36ZM125.13,364.98c0,1.14.25,2.04.75,2.7.5.66,1.23.99,2.18.99s1.68-.33,2.18-.99c.5-.66.75-1.56.75-2.7v-.61c0-1.15-.25-2.05-.76-2.71-.5-.66-1.23-.99-2.17-.99s-1.66.33-2.17.99c-.51.66-.76,1.56-.76,2.71v.61Z"/>
      <path class="cls-19" d="M136.38,358.76h2.75l.08,1.37h.06c.25-.46.6-.85,1.04-1.19s.95-.5,1.53-.5c.16,0,.32.02.48.06s.28.07.35.1v2.56c-.13-.03-.28-.05-.43-.07-.15-.02-.32-.02-.5-.02-.57,0-1.07.16-1.49.48s-.74.72-.93,1.21v7.85h-2.93v-11.84Z"/>
      <path class="cls-19" d="M150.45,354.24h5.96c1.86,0,3.3.46,4.3,1.36,1,.91,1.5,2.18,1.5,3.81s-.5,2.9-1.5,3.82-2.44,1.39-4.31,1.39h-2.94v5.96h-3.01v-16.35ZM156.2,362.33c1.13,0,1.92-.27,2.35-.8.44-.53.66-1.24.66-2.11s-.22-1.56-.66-2.08c-.44-.52-1.22-.78-2.35-.78h-2.74v5.77h2.74Z"/>
      <path class="cls-19" d="M164.3,358.76h2.75l.08,1.37h.06c.25-.46.6-.85,1.04-1.19s.95-.5,1.53-.5c.16,0,.32.02.48.06s.28.07.35.1v2.56c-.13-.03-.28-.05-.43-.07-.15-.02-.32-.02-.5-.02-.57,0-1.07.16-1.49.48s-.74.72-.93,1.21v7.85h-2.93v-11.84Z"/>
      <path class="cls-19" d="M171.6,364.5c0-1.84.54-3.32,1.63-4.42,1.09-1.1,2.52-1.66,4.28-1.66s3.21.55,4.3,1.66c1.09,1.1,1.63,2.58,1.63,4.42v.36c0,1.83-.54,3.3-1.63,4.41-1.09,1.11-2.52,1.66-4.3,1.66s-3.2-.55-4.28-1.66c-1.09-1.11-1.63-2.58-1.63-4.41v-.36ZM174.59,364.98c0,1.14.25,2.04.75,2.7.5.66,1.23.99,2.18.99s1.68-.33,2.18-.99c.5-.66.75-1.56.75-2.7v-.61c0-1.15-.25-2.05-.76-2.71-.5-.66-1.23-.99-2.17-.99s-1.66.33-2.17.99c-.51.66-.76,1.56-.76,2.71v.61Z"/>
      <path class="cls-19" d="M185.18,364.5c0-1.84.53-3.32,1.58-4.42s2.47-1.66,4.25-1.66c1.67,0,2.94.43,3.82,1.28s1.33,1.85,1.37,2.99v.15s-2.83,0-2.83,0v-.11c0-.58-.19-1.07-.58-1.48-.39-.41-.98-.61-1.79-.61-.95,0-1.66.35-2.13,1.04-.47.69-.7,1.59-.7,2.7v.61c0,1.1.23,2,.69,2.7.46.7,1.17,1.04,2.13,1.04.86,0,1.47-.21,1.84-.63.36-.42.54-.91.54-1.47v-.1h2.84v.11c0,1.13-.45,2.13-1.34,3-.89.87-2.18,1.3-3.86,1.3-1.77,0-3.19-.55-4.25-1.66s-1.58-2.58-1.58-4.41v-.36Z"/>
      <path class="cls-19" d="M197.69,364.5c0-1.82.53-3.29,1.59-4.4,1.06-1.12,2.43-1.67,4.12-1.67s3,.52,3.95,1.57c.95,1.04,1.42,2.48,1.42,4.31v1.08h-9.13v-1.93h6.22v-.27c0-.72-.2-1.33-.62-1.83-.42-.5-1.03-.75-1.81-.75-.93,0-1.63.35-2.1,1.04s-.71,1.61-.71,2.74v.59c0,1.11.25,2.01.76,2.71.5.7,1.26,1.04,2.27,1.04.67,0,1.26-.16,1.75-.48.49-.32.89-.69,1.18-1.12l2.01,1.39c-.37.66-.99,1.23-1.84,1.7s-1.87.71-3.05.71c-1.89,0-3.36-.56-4.41-1.68s-1.58-2.58-1.58-4.4v-.36Z"/>
      <path class="cls-19" d="M213.16,366.96v.13c0,.6.21,1.04.62,1.33.42.28.98.43,1.68.43s1.26-.14,1.64-.41.57-.63.57-1.08-.18-.78-.54-1-1.19-.47-2.48-.76c-1.35-.29-2.36-.73-3.03-1.3s-1.01-1.34-1.01-2.29c0-1.08.44-1.94,1.31-2.59.87-.65,2.05-.98,3.52-.98s2.66.33,3.54,1c.89.67,1.33,1.58,1.33,2.73v.1h-2.86v-.16c0-.49-.16-.87-.49-1.15-.33-.28-.84-.42-1.53-.42s-1.18.12-1.49.36c-.31.24-.47.55-.47.93s.19.68.57.9c.38.22,1.22.47,2.52.76,1.34.28,2.34.71,3,1.29.66.57.99,1.37.99,2.4,0,1.15-.43,2.07-1.29,2.75-.86.68-2.13,1.02-3.8,1.02s-2.94-.34-3.85-1.03c-.9-.69-1.35-1.64-1.35-2.86v-.1h2.89Z"/>
      <path class="cls-19" d="M225.07,366.96v.13c0,.6.21,1.04.62,1.33.42.28.98.43,1.68.43s1.26-.14,1.64-.41.57-.63.57-1.08-.18-.78-.54-1-1.19-.47-2.48-.76c-1.35-.29-2.36-.73-3.03-1.3s-1.01-1.34-1.01-2.29c0-1.08.44-1.94,1.31-2.59.87-.65,2.05-.98,3.52-.98s2.66.33,3.54,1c.89.67,1.33,1.58,1.33,2.73v.1h-2.86v-.16c0-.49-.16-.87-.49-1.15-.33-.28-.84-.42-1.53-.42s-1.18.12-1.49.36c-.31.24-.47.55-.47.93s.19.68.57.9c.38.22,1.22.47,2.52.76,1.34.28,2.34.71,3,1.29.66.57.99,1.37.99,2.4,0,1.15-.43,2.07-1.29,2.75-.86.68-2.13,1.02-3.8,1.02s-2.94-.34-3.85-1.03c-.9-.69-1.35-1.64-1.35-2.86v-.1h2.89Z"/>
      <path class="cls-19" d="M244.68,357.24l-3.94,1.57v-2.59l5.72-2.18h1.26v16.55h-3.03v-13.35Z"/>
    </g>
    <g>
      <polygon class="cls-16" points="1071.67 178.64 1071.67 269.18 960.45 269.18 960.45 338.97 1154.29 338.97 1154.29 108.85 960.45 108.85 960.45 178.64 1071.67 178.64"/>
      <rect class="cls-11" x="935.03" y="178.64" width="136.64" height="90.54"/>
    </g>
    <g>
      <g>
        <g>
          <polygon class="cls-13" points="174.41 215.65 174.41 224.5 165.79 228.35 165.79 219.51 173.17 216.21 174.41 215.65"/>
          <path class="cls-7" d="M157.08,215.65h.04s.03.03.03.03v-.05l-.07.03Z"/>
          <path class="cls-12" d="M165.76,211.79l-8.61,3.84v.05l1.21.53,7.4,3.3h.01s.01-.01.01-.01l8.63-3.85-8.66-3.86ZM169.53,215.65h0c-.03.63-1.69,1.09-3.75,1.09s-3.74-.48-3.74-1.09v-1.62c0-.6,1.67-1.09,3.74-1.09s3.75.49,3.75,1.09v1.61h0Z"/>
          <path class="cls-12" d="M169.52,214.03c0,.32-.49.62-1.26.81-.66.17-1.53.27-2.48.27s-1.82-.1-2.48-.27c-.78-.2-1.27-.49-1.27-.82,0-.6,1.68-1.09,3.75-1.09s3.75.49,3.75,1.09Z"/>
          <polygon class="cls-12" points="165.78 219.51 165.78 228.35 157.11 224.5 157.11 215.65 158.36 216.21 165.76 219.5 165.78 219.51"/>
        </g>
        <polygon class="cls-11" points="183.57 201.66 183.57 210.51 174.94 214.36 174.94 205.52 182.32 202.22 183.57 201.66"/>
        <path class="cls-18" d="M166.22,201.66l.04.03h.03s0-.05,0-.05l-.07.03Z"/>
        <path class="cls-18" d="M174.92,197.79l-8.63,3.84v.07l8.63,3.84h.01s.01-.01.01-.01l8.61-3.86-8.64-3.86ZM178.67,201.67c0,.6-1.68,1.09-3.74,1.09s-3.75-.49-3.75-1.09v-1.64c0-.59,1.68-1.08,3.75-1.08s3.74.49,3.74,1.08v1.64Z"/>
        <path class="cls-18" d="M178.67,200.04c0,.32-.49.62-1.26.81-.66.17-1.53.27-2.48.27s-1.82-.1-2.48-.27c-.78-.2-1.27-.49-1.27-.82,0-.6,1.68-1.09,3.75-1.09s3.75.49,3.75,1.09Z"/>
        <polygon class="cls-18" points="174.93 205.52 174.93 214.36 166.27 210.51 166.27 201.66 167.52 202.22 174.92 205.51 174.93 205.52"/>
        <g>
          <polygon class="cls-9" points="192.99 215.65 192.99 224.5 184.37 228.35 184.37 219.51 191.74 216.21 192.99 215.65"/>
          <path class="cls-14" d="M175.64,215.65h.04s.03.03.03.03v-.05l-.07.03Z"/>
          <path class="cls-14" d="M184.34,211.79l-8.63,3.84v.05l8.63,3.84h.01s.01-.01.01-.01l8.63-3.85-8.66-3.86ZM188.09,215.65h0c-.03.63-1.69,1.09-3.74,1.09s-3.75-.48-3.75-1.09v-1.62c0-.6,1.68-1.09,3.75-1.09s3.74.49,3.74,1.09v1.61h0Z"/>
          <path class="cls-14" d="M188.09,214.03c0,.32-.49.62-1.26.81-.66.17-1.53.27-2.48.27s-1.82-.1-2.48-.27c-.78-.2-1.27-.49-1.27-.82,0-.6,1.68-1.09,3.75-1.09s3.75.49,3.75,1.09Z"/>
          <polygon class="cls-14" points="184.35 219.51 184.35 228.35 175.69 224.5 175.69 215.65 176.94 216.21 184.34 219.5 184.35 219.51"/>
        </g>
      </g>
      <g>
        <path class="cls-19" d="M143.54,232.68h2.26l5.64,14.83h-2.47l-3.96-10.89c-.08-.23-.15-.45-.21-.66-.06-.21-.11-.42-.16-.64h-.09c-.05.22-.1.43-.16.64-.06.21-.13.43-.21.65l-3.99,10.89h-2.26l5.6-14.83ZM141.24,242.02h6.79l.63,1.84h-8.06l.64-1.84Z"/>
        <path class="cls-19" d="M152.16,242.01c0-1.57.41-2.85,1.24-3.86.83-1,1.92-1.51,3.27-1.51.72,0,1.33.13,1.84.38s.92.59,1.21,1.01v-6.06h2.25v15.52h-2.08l-.07-1.34h-.06c-.25.43-.65.8-1.19,1.09s-1.17.45-1.89.45c-1.38,0-2.48-.5-3.3-1.51s-1.22-2.3-1.22-3.86v-.32ZM155.13,244.91c.44.67,1.12,1.01,2.05,1.01.63,0,1.16-.17,1.59-.51s.75-.74.95-1.19v-4.11c-.2-.45-.51-.84-.94-1.18-.43-.34-.96-.51-1.59-.51-.92,0-1.61.34-2.05,1.01-.45.67-.67,1.52-.67,2.53v.42c0,1.01.22,1.86.66,2.53Z"/>
        <path class="cls-19" d="M165.6,241.79c.88-.6,1.99-.9,3.33-.91h2.3v-.68c0-.59-.15-1.06-.46-1.43-.3-.37-.83-.55-1.57-.55s-1.28.15-1.6.46c-.32.3-.48.66-.48,1.07v.09h-2.24v-.09c0-.88.4-1.64,1.2-2.27.8-.63,1.86-.94,3.19-.94s2.36.3,3.1.91,1.11,1.53,1.11,2.75v4.88c0,.44.04.85.11,1.24.07.39.17.73.3,1.02v.16h-2.21c-.09-.16-.17-.38-.24-.64s-.12-.53-.14-.78c-.23.42-.63.8-1.19,1.13-.57.33-1.29.5-2.17.5-1.02,0-1.88-.28-2.59-.85-.71-.57-1.06-1.4-1.06-2.49s.44-1.98,1.32-2.58ZM167.02,245.53c.32.33.83.49,1.53.49s1.32-.24,1.86-.71c.54-.48.81-1,.81-1.56v-1.36h-2.02c-.88,0-1.55.16-1.99.49s-.67.77-.67,1.33.16,1,.49,1.33Z"/>
        <path class="cls-19" d="M176.34,236.85h2.07l.07,1.33h.06c.26-.43.66-.79,1.21-1.09.55-.29,1.19-.44,1.9-.44,1.36,0,2.44.5,3.26,1.5.82,1,1.23,2.29,1.23,3.87v.32c0,1.58-.41,2.87-1.22,3.87-.81,1-1.89,1.5-3.24,1.5-.72,0-1.34-.13-1.86-.38s-.94-.59-1.23-1.02v5.4h-2.26v-14.87ZM179.55,245.4c.45.35.98.52,1.6.52.92,0,1.6-.33,2.04-.99.44-.66.65-1.51.65-2.54v-.43c0-1.03-.22-1.88-.65-2.54-.44-.66-1.12-.99-2.04-.99-.63,0-1.17.17-1.61.52-.44.34-.76.74-.95,1.17v4.1c.19.45.51.84.96,1.19Z"/>
        <path class="cls-19" d="M186.97,236.85h6.23v1.69h-6.23v-1.69ZM188.77,237.81v-3.55h2.25v10.41c0,.47.09.81.28,1.01.19.2.47.3.84.3.18,0,.36-.02.53-.06.17-.04.35-.09.52-.16v1.75c-.17.08-.39.15-.68.21-.28.06-.59.09-.93.09-.86,0-1.54-.25-2.05-.75-.51-.5-.76-1.29-.76-2.36v-6.88Z"/>
        <path class="cls-19" d="M194.5,242.01c0-1.62.46-2.94,1.38-3.95.92-1.01,2.12-1.52,3.6-1.52s2.63.47,3.45,1.42c.82.95,1.22,2.24,1.22,3.86v.88h-8.2v-1.63h5.95v-.23c0-.71-.21-1.31-.62-1.81-.41-.5-1-.74-1.76-.74-.92,0-1.61.35-2.06,1.04-.46.69-.69,1.57-.69,2.63v.43c0,1.05.24,1.92.73,2.61s1.23,1.04,2.23,1.04c.64,0,1.19-.14,1.65-.43.46-.29.84-.63,1.13-1.02l1.52,1.1c-.34.55-.88,1.05-1.61,1.48s-1.63.65-2.67.65c-1.68,0-2.98-.51-3.89-1.52-.91-1.01-1.37-2.33-1.37-3.96v-.32Z"/>
        <path class="cls-19" d="M206.33,236.85h2.08l.08,1.3h.06c.25-.42.58-.8,1-1.12s.91-.48,1.47-.48c.14,0,.29.02.45.05.16.03.27.06.33.09v2.03c-.13-.03-.26-.05-.4-.07-.14-.02-.3-.03-.48-.03-.55,0-1.03.15-1.44.46s-.71.68-.9,1.13v7.29h-2.26v-10.66Z"/>
      </g>
    </g>
    <g>
      <g>
        <rect class="cls-11" x="419.59" y="178.64" width="136.64" height="90.54"/>
        <polygon class="cls-15" points="648.04 178.64 648.04 269.18 735.78 269.18 735.78 269.32 759.26 269.32 759.26 338.97 445.02 338.97 445.02 269.18 556.24 269.18 556.24 178.64 445.02 178.64 445.02 108.84 759.26 108.84 759.26 178.64 648.04 178.64"/>
      </g>
      <polygon class="cls-11" points="759.26 178.64 759.26 178.78 735.78 178.78 735.78 269.18 648.04 269.18 648.04 178.64 759.26 178.64"/>
    </g>
    <g class="cls-21">
      <circle class="cls-12" cx="322.75" cy="223.91" r="45.88"/>
      <g>
        <path class="cls-19" d="M292.68,208.61h2.5l2.73,7.21c.06.15.11.31.16.46s.09.31.12.47h.05c.03-.16.07-.32.12-.47s.1-.3.16-.46l2.74-7.21h2.53v10.57h-1.92v-7.04c0-.16,0-.33.01-.52,0-.19.02-.36.04-.52h-.06c-.03.16-.07.33-.12.52-.05.19-.11.36-.16.52l-2.66,7.04h-1.62l-2.65-7.04c-.06-.16-.11-.33-.16-.52-.05-.19-.09-.36-.12-.52h-.06c.02.16.03.33.04.52,0,.19,0,.36,0,.52v7.04h-1.65v-10.57Z"/>
        <path class="cls-19" d="M305.49,215.23c0-1.18.34-2.12,1.03-2.84s1.57-1.08,2.66-1.08,1.94.34,2.55,1.01c.61.67.92,1.6.92,2.78v.7h-5.9v-1.25h4.02v-.17c0-.46-.13-.86-.4-1.18-.27-.32-.66-.49-1.17-.49-.6,0-1.05.22-1.36.67s-.46,1.04-.46,1.77v.38c0,.72.16,1.3.49,1.75s.82.67,1.47.67c.44,0,.81-.1,1.13-.31.32-.21.57-.45.77-.72l1.3.9c-.24.43-.64.79-1.19,1.1-.55.31-1.21.46-1.97.46-1.22,0-2.17-.36-2.85-1.08s-1.02-1.67-1.02-2.84v-.23Z"/>
        <path class="cls-19" d="M315.49,216.82v.09c0,.39.13.67.4.86.27.18.63.28,1.08.28s.81-.09,1.06-.26c.25-.18.37-.41.37-.7s-.12-.51-.35-.65c-.23-.14-.77-.31-1.6-.49-.87-.19-1.52-.47-1.96-.84-.44-.37-.65-.87-.65-1.48,0-.7.28-1.26.85-1.68.56-.42,1.32-.63,2.27-.63s1.72.21,2.29.65.86,1.02.86,1.76v.07h-1.85v-.1c0-.31-.11-.56-.32-.74-.21-.18-.54-.27-.99-.27s-.76.08-.96.23c-.2.16-.3.36-.3.6s.12.44.37.58c.24.14.79.31,1.63.49.87.18,1.51.46,1.94.83s.64.89.64,1.55c0,.75-.28,1.34-.83,1.78s-1.37.66-2.45.66-1.9-.22-2.49-.66-.87-1.06-.87-1.85v-.07h1.87Z"/>
        <path class="cls-19" d="M323.18,216.82v.09c0,.39.13.67.4.86.27.18.63.28,1.08.28s.81-.09,1.06-.26c.25-.18.37-.41.37-.7s-.12-.51-.35-.65c-.23-.14-.77-.31-1.6-.49-.87-.19-1.52-.47-1.96-.84-.44-.37-.65-.87-.65-1.48,0-.7.28-1.26.85-1.68.56-.42,1.32-.63,2.27-.63s1.72.21,2.29.65.86,1.02.86,1.76v.07h-1.85v-.1c0-.31-.11-.56-.32-.74-.21-.18-.54-.27-.99-.27s-.76.08-.96.23c-.2.16-.3.36-.3.6s.12.44.37.58c.24.14.79.31,1.63.49.87.18,1.51.46,1.94.83s.64.89.64,1.55c0,.75-.28,1.34-.83,1.78s-1.37.66-2.45.66-1.9-.22-2.49-.66-.87-1.06-.87-1.85v-.07h1.87Z"/>
        <path class="cls-19" d="M330.06,215.03c.65-.43,1.46-.64,2.44-.64h1.56v-.46c0-.38-.1-.69-.29-.92-.2-.24-.54-.36-1.03-.36s-.84.1-1.05.3-.31.43-.31.7v.09h-1.86v-.09c0-.66.3-1.21.91-1.66.6-.45,1.4-.67,2.39-.67s1.76.22,2.31.65c.55.43.83,1.09.83,1.98v3.51c0,.31.03.61.08.89s.13.52.22.72v.12h-1.84c-.06-.12-.12-.27-.17-.45-.05-.18-.08-.37-.09-.54-.16.29-.45.56-.86.79s-.93.35-1.56.35c-.74,0-1.36-.2-1.87-.61-.51-.4-.76-1-.76-1.79,0-.83.32-1.46.97-1.89ZM331.31,217.65c.21.22.55.33,1.01.33s.89-.16,1.23-.47c.34-.31.52-.67.52-1.08v-.85h-1.31c-.59,0-1.03.1-1.32.31-.29.21-.44.5-.44.88s.11.66.32.88Z"/>
        <path class="cls-19" d="M338.82,220.04c.19.2.48.39.88.56.4.18.84.26,1.32.26.57,0,1.03-.17,1.38-.52.35-.34.52-.85.52-1.52v-.49c-.2.3-.48.54-.85.71s-.8.26-1.29.26c-.98,0-1.77-.36-2.36-1.07-.6-.71-.9-1.64-.9-2.79v-.23c0-1.15.3-2.08.89-2.79.6-.71,1.38-1.07,2.37-1.07.49,0,.93.1,1.32.3.39.2.67.46.84.75h.04l.05-.91h1.77v7.27c0,1.14-.35,2.02-1.04,2.63-.69.61-1.57.92-2.65.92-.65,0-1.26-.1-1.81-.31-.55-.21-1.01-.46-1.38-.77l.9-1.22ZM339.89,217.21c.3.44.75.66,1.37.66.41,0,.75-.12,1.04-.35.29-.23.49-.5.62-.79v-2.73c-.13-.33-.34-.61-.63-.83-.29-.23-.64-.34-1.06-.34-.6,0-1.05.22-1.34.66-.29.44-.44,1-.44,1.67v.38c0,.68.15,1.24.44,1.67Z"/>
        <path class="cls-19" d="M346.34,215.23c0-1.18.34-2.12,1.03-2.84s1.57-1.08,2.66-1.08,1.94.34,2.55,1.01c.61.67.92,1.6.92,2.78v.7h-5.9v-1.25h4.02v-.17c0-.46-.13-.86-.4-1.18-.27-.32-.66-.49-1.17-.49-.6,0-1.05.22-1.36.67s-.46,1.04-.46,1.77v.38c0,.72.16,1.3.49,1.75s.82.67,1.47.67c.44,0,.81-.1,1.13-.31.32-.21.57-.45.77-.72l1.3.9c-.24.43-.64.79-1.19,1.1-.55.31-1.21.46-1.97.46-1.22,0-2.17-.36-2.85-1.08s-1.02-1.67-1.02-2.84v-.23Z"/>
        <path class="cls-19" d="M296.77,226.44h3.85c1.2,0,2.13.29,2.78.88s.97,1.41.97,2.46-.32,1.87-.97,2.47c-.65.6-1.58.9-2.79.9h-1.9v3.85h-1.94v-10.57ZM300.48,231.67c.73,0,1.24-.17,1.52-.52s.42-.8.42-1.36-.14-1.01-.42-1.35c-.28-.34-.79-.5-1.52-.5h-1.77v3.73h1.77Z"/>
        <path class="cls-19" d="M306.23,232.87c.65-.43,1.46-.64,2.44-.64h1.56v-.46c0-.38-.1-.69-.29-.92-.2-.24-.54-.36-1.03-.36s-.84.1-1.05.3-.31.43-.31.7v.09h-1.86v-.09c0-.66.3-1.21.91-1.66.6-.45,1.4-.67,2.39-.67s1.76.22,2.31.65c.55.43.83,1.09.83,1.98v3.51c0,.31.03.61.08.89s.13.52.22.72v.12h-1.84c-.06-.12-.12-.27-.17-.45-.05-.18-.08-.37-.09-.54-.16.29-.45.56-.86.79s-.93.35-1.56.35c-.74,0-1.36-.2-1.87-.61-.51-.4-.76-1-.76-1.79,0-.83.32-1.46.97-1.89ZM307.48,235.49c.21.22.55.33,1.01.33s.89-.16,1.23-.47c.34-.31.52-.67.52-1.08v-.85h-1.31c-.59,0-1.03.1-1.32.31-.29.21-.44.5-.44.88s.11.66.32.88Z"/>
        <path class="cls-19" d="M315.49,234.66v.09c0,.39.13.67.4.86.27.18.63.28,1.08.28s.81-.09,1.06-.26c.25-.18.37-.41.37-.7s-.12-.51-.35-.65c-.23-.14-.77-.31-1.6-.49-.87-.19-1.52-.47-1.96-.84-.44-.37-.65-.87-.65-1.48,0-.7.28-1.26.85-1.68.56-.42,1.32-.63,2.27-.63s1.72.21,2.29.65.86,1.02.86,1.76v.07h-1.85v-.1c0-.31-.11-.56-.32-.74-.21-.18-.54-.27-.99-.27s-.76.08-.96.23c-.2.16-.3.36-.3.6s.12.44.37.58c.24.14.79.31,1.63.49.87.18,1.51.46,1.94.83s.64.89.64,1.55c0,.75-.28,1.34-.83,1.78s-1.37.66-2.45.66-1.9-.22-2.49-.66-.87-1.06-.87-1.85v-.07h1.87Z"/>
        <path class="cls-19" d="M323.18,234.66v.09c0,.39.13.67.4.86.27.18.63.28,1.08.28s.81-.09,1.06-.26c.25-.18.37-.41.37-.7s-.12-.51-.35-.65c-.23-.14-.77-.31-1.6-.49-.87-.19-1.52-.47-1.96-.84-.44-.37-.65-.87-.65-1.48,0-.7.28-1.26.85-1.68.56-.42,1.32-.63,2.27-.63s1.72.21,2.29.65.86,1.02.86,1.76v.07h-1.85v-.1c0-.31-.11-.56-.32-.74-.21-.18-.54-.27-.99-.27s-.76.08-.96.23c-.2.16-.3.36-.3.6s.12.44.37.58c.24.14.79.31,1.63.49.87.18,1.51.46,1.94.83s.64.89.64,1.55c0,.75-.28,1.34-.83,1.78s-1.37.66-2.45.66-1.9-.22-2.49-.66-.87-1.06-.87-1.85v-.07h1.87Z"/>
        <path class="cls-19" d="M329.65,226.43c.19-.2.47-.3.83-.3s.64.1.83.3c.19.2.29.45.29.74s-.1.54-.29.74c-.2.2-.48.3-.84.3s-.63-.1-.83-.3c-.19-.2-.29-.45-.29-.74s.1-.54.29-.74ZM329.53,229.36h1.89v7.65h-1.89v-7.65Z"/>
        <path class="cls-19" d="M333.44,229.36h1.77l.05.9h.04c.22-.31.53-.57.92-.76.39-.19.83-.29,1.3-.29.78,0,1.42.22,1.9.66.48.44.73,1.21.73,2.3v4.83h-1.89v-4.88c0-.52-.12-.89-.34-1.11-.23-.22-.56-.32-.98-.32-.35,0-.67.1-.95.29-.29.19-.51.46-.66.8v5.22h-1.89v-7.65Z"/>
        <path class="cls-19" d="M342.93,237.88c.19.2.48.39.88.56.4.18.84.26,1.32.26.57,0,1.03-.17,1.38-.52.35-.34.52-.85.52-1.52v-.49c-.2.3-.48.54-.85.71s-.8.26-1.29.26c-.98,0-1.77-.36-2.36-1.07-.6-.71-.9-1.64-.9-2.79v-.23c0-1.15.3-2.08.89-2.79.6-.71,1.38-1.07,2.37-1.07.49,0,.93.1,1.32.3.39.2.67.46.84.75h.04l.05-.91h1.77v7.27c0,1.14-.35,2.02-1.04,2.63-.69.61-1.57.92-2.65.92-.65,0-1.26-.1-1.81-.31-.55-.21-1.01-.46-1.38-.77l.9-1.22ZM343.99,235.04c.3.44.75.66,1.37.66.41,0,.75-.12,1.04-.35.29-.23.49-.5.62-.79v-2.73c-.13-.33-.34-.61-.63-.83-.29-.23-.64-.34-1.06-.34-.6,0-1.05.22-1.34.66-.29.44-.44,1-.44,1.67v.38c0,.68.15,1.24.44,1.67Z"/>
      </g>
      <g>
        <path class="cls-3" d="M377.39,228.01c-.15,2.02-.41,4-.77,5.95"/>
        <path class="cls-1" d="M373.27,245.15c-8.3,19.71-27.79,33.55-50.52,33.55-24.83,0-45.8-16.52-52.53-39.17"/>
        <path class="cls-3" d="M268.85,233.84c-.36-1.95-.61-3.94-.76-5.95"/>
      </g>
      <path class="cls-3" d="M268.1,227.89c-.09-1.31-.14-2.64-.14-3.98,0-30.26,24.53-54.79,54.79-54.79s54.79,24.53,54.79,54.79c0,1.38-.05,2.75-.15,4.11"/>
      <g>
        <line class="cls-2" x1="377.66" y1="224.34" x2="398.11" y2="224.34"/>
        <polygon class="cls-12" points="393.17 216.51 393.17 232.18 406.75 224.34 393.17 216.51"/>
      </g>
      <line class="cls-2" x1="268.1" y1="224.34" x2="247.65" y2="224.34"/>
      <polygon class="cls-12" points="252.59 216.51 252.59 232.18 239.01 224.34 252.59 216.51"/>
    </g>
    <g class="cls-20">
      <circle class="cls-12" cx="841.17" cy="223.91" r="45.88"/>
      <g>
        <path class="cls-19" d="M811.11,208.61h2.5l2.73,7.21c.06.15.11.31.16.46s.09.31.12.47h.05c.03-.16.07-.32.12-.47s.1-.3.16-.46l2.74-7.21h2.53v10.57h-1.92v-7.04c0-.16,0-.33.01-.52,0-.19.02-.36.04-.52h-.06c-.03.16-.07.33-.12.52-.05.19-.11.36-.16.52l-2.66,7.04h-1.62l-2.65-7.04c-.06-.16-.11-.33-.16-.52-.05-.19-.09-.36-.12-.52h-.06c.02.16.03.33.04.52,0,.19,0,.36,0,.52v7.04h-1.65v-10.57Z"/>
        <path class="cls-19" d="M823.91,215.23c0-1.18.34-2.12,1.03-2.84s1.57-1.08,2.66-1.08,1.94.34,2.55,1.01c.61.67.92,1.6.92,2.78v.7h-5.9v-1.25h4.02v-.17c0-.46-.13-.86-.4-1.18-.27-.32-.66-.49-1.17-.49-.6,0-1.05.22-1.36.67s-.46,1.04-.46,1.77v.38c0,.72.16,1.3.49,1.75.33.45.82.67,1.47.67.44,0,.81-.1,1.13-.31.32-.21.57-.45.77-.72l1.3.9c-.24.43-.64.79-1.19,1.1-.55.31-1.21.46-1.97.46-1.22,0-2.17-.36-2.85-1.08-.68-.72-1.02-1.67-1.02-2.84v-.23Z"/>
        <path class="cls-19" d="M833.92,216.82v.09c0,.39.13.67.4.86.27.18.63.28,1.08.28s.81-.09,1.06-.26c.25-.18.37-.41.37-.7s-.12-.51-.35-.65c-.23-.14-.77-.31-1.6-.49-.87-.19-1.52-.47-1.96-.84-.44-.37-.65-.87-.65-1.48,0-.7.28-1.26.85-1.68.56-.42,1.32-.63,2.27-.63s1.72.21,2.29.65.86,1.02.86,1.76v.07h-1.85v-.1c0-.31-.11-.56-.32-.74-.21-.18-.54-.27-.99-.27s-.76.08-.96.23c-.2.16-.3.36-.3.6s.12.44.37.58.79.31,1.63.49c.87.18,1.51.46,1.94.83.43.37.64.89.64,1.55,0,.75-.28,1.34-.83,1.78-.56.44-1.37.66-2.45.66s-1.9-.22-2.49-.66-.87-1.06-.87-1.85v-.07h1.87Z"/>
        <path class="cls-19" d="M841.61,216.82v.09c0,.39.13.67.4.86.27.18.63.28,1.08.28s.81-.09,1.06-.26c.25-.18.37-.41.37-.7s-.12-.51-.35-.65c-.23-.14-.77-.31-1.6-.49-.87-.19-1.52-.47-1.96-.84-.44-.37-.65-.87-.65-1.48,0-.7.28-1.26.85-1.68.56-.42,1.32-.63,2.27-.63s1.72.21,2.29.65.86,1.02.86,1.76v.07h-1.85v-.1c0-.31-.11-.56-.32-.74-.21-.18-.54-.27-.99-.27s-.76.08-.96.23c-.2.16-.3.36-.3.6s.12.44.37.58.79.31,1.63.49c.87.18,1.51.46,1.94.83.43.37.64.89.64,1.55,0,.75-.28,1.34-.83,1.78-.56.44-1.37.66-2.45.66s-1.9-.22-2.49-.66-.87-1.06-.87-1.85v-.07h1.87Z"/>
        <path class="cls-19" d="M848.49,215.03c.65-.43,1.46-.64,2.44-.64h1.56v-.46c0-.38-.1-.69-.29-.92-.2-.24-.54-.36-1.03-.36s-.84.1-1.05.3c-.21.2-.31.43-.31.7v.09h-1.87v-.09c0-.66.3-1.21.91-1.66.6-.45,1.4-.67,2.39-.67s1.76.22,2.31.65c.55.43.83,1.09.83,1.98v3.51c0,.31.03.61.08.89.05.28.13.52.22.72v.12h-1.84c-.06-.12-.12-.27-.17-.45-.05-.18-.08-.37-.09-.54-.16.29-.45.56-.86.79s-.93.35-1.56.35c-.74,0-1.36-.2-1.87-.61-.51-.4-.76-1-.76-1.79,0-.83.32-1.46.97-1.89ZM849.74,217.65c.21.22.55.33,1.01.33s.89-.16,1.23-.47.51-.67.51-1.08v-.85h-1.31c-.59,0-1.03.1-1.32.31s-.44.5-.44.88.11.66.32.88Z"/>
        <path class="cls-19" d="M857.25,220.04c.19.2.48.39.88.56.4.18.84.26,1.32.26.57,0,1.03-.17,1.38-.52.35-.34.52-.85.52-1.52v-.49c-.2.3-.48.54-.85.71s-.8.26-1.29.26c-.98,0-1.77-.36-2.36-1.07-.6-.71-.9-1.64-.9-2.79v-.23c0-1.15.3-2.08.89-2.79.59-.71,1.38-1.07,2.37-1.07.49,0,.93.1,1.32.3s.67.46.84.75h.04l.05-.91h1.77v7.27c0,1.14-.35,2.02-1.04,2.63-.69.61-1.58.92-2.65.92-.65,0-1.26-.1-1.81-.31-.55-.21-1.01-.46-1.38-.77l.9-1.22ZM858.31,217.21c.29.44.75.66,1.37.66.41,0,.75-.12,1.04-.35.29-.23.49-.5.62-.79v-2.73c-.13-.33-.34-.61-.63-.83-.29-.23-.64-.34-1.06-.34-.6,0-1.05.22-1.34.66-.29.44-.44,1-.44,1.67v.38c0,.68.15,1.24.44,1.67Z"/>
        <path class="cls-19" d="M864.76,215.23c0-1.18.34-2.12,1.03-2.84s1.57-1.08,2.66-1.08,1.94.34,2.55,1.01c.61.67.92,1.6.92,2.78v.7h-5.9v-1.25h4.02v-.17c0-.46-.13-.86-.4-1.18-.27-.32-.66-.49-1.17-.49-.6,0-1.05.22-1.36.67s-.46,1.04-.46,1.77v.38c0,.72.16,1.3.49,1.75.33.45.82.67,1.47.67.44,0,.81-.1,1.13-.31.32-.21.57-.45.77-.72l1.3.9c-.24.43-.64.79-1.19,1.1-.55.31-1.21.46-1.97.46-1.22,0-2.17-.36-2.85-1.08-.68-.72-1.02-1.67-1.02-2.84v-.23Z"/>
        <path class="cls-19" d="M815.19,226.44h3.85c1.21,0,2.13.29,2.78.88s.97,1.41.97,2.46-.32,1.87-.97,2.47c-.65.6-1.58.9-2.79.9h-1.9v3.85h-1.95v-10.57ZM818.91,231.67c.73,0,1.24-.17,1.52-.52s.42-.8.42-1.36-.14-1.01-.42-1.35c-.28-.34-.79-.5-1.52-.5h-1.77v3.73h1.77Z"/>
        <path class="cls-19" d="M824.66,232.87c.65-.43,1.46-.64,2.44-.64h1.56v-.46c0-.38-.1-.69-.29-.92-.2-.24-.54-.36-1.03-.36s-.84.1-1.05.3c-.21.2-.31.43-.31.7v.09h-1.87v-.09c0-.66.3-1.21.91-1.66.6-.45,1.4-.67,2.39-.67s1.76.22,2.31.65c.55.43.83,1.09.83,1.98v3.51c0,.31.03.61.08.89.05.28.13.52.22.72v.12h-1.84c-.06-.12-.12-.27-.17-.45-.05-.18-.08-.37-.09-.54-.16.29-.45.56-.86.79s-.93.35-1.56.35c-.74,0-1.36-.2-1.87-.61-.51-.4-.76-1-.76-1.79,0-.83.32-1.46.97-1.89ZM825.9,235.49c.21.22.55.33,1.01.33s.89-.16,1.23-.47.51-.67.51-1.08v-.85h-1.31c-.59,0-1.03.1-1.32.31s-.44.5-.44.88.11.66.32.88Z"/>
        <path class="cls-19" d="M833.91,234.66v.09c0,.39.13.67.4.86.27.18.63.28,1.08.28s.81-.09,1.06-.26c.25-.18.37-.41.37-.7s-.12-.51-.35-.65c-.23-.14-.77-.31-1.6-.49-.87-.19-1.52-.47-1.96-.84-.44-.37-.65-.87-.65-1.48,0-.7.28-1.26.85-1.68s1.32-.63,2.28-.63,1.72.21,2.29.65.86,1.02.86,1.76v.07h-1.85v-.1c0-.31-.11-.56-.32-.74s-.54-.27-.99-.27-.76.08-.96.23c-.2.16-.3.36-.3.6s.12.44.37.58c.24.14.79.31,1.63.49.87.18,1.51.46,1.94.83.43.37.64.89.64,1.55,0,.75-.28,1.34-.83,1.78-.56.44-1.37.66-2.45.66s-1.9-.22-2.49-.66-.88-1.06-.88-1.85v-.07h1.87Z"/>
        <path class="cls-19" d="M841.61,234.66v.09c0,.39.13.67.4.86.27.18.63.28,1.08.28s.81-.09,1.06-.26c.25-.18.37-.41.37-.7s-.12-.51-.35-.65c-.23-.14-.77-.31-1.6-.49-.87-.19-1.52-.47-1.96-.84-.44-.37-.65-.87-.65-1.48,0-.7.28-1.26.85-1.68s1.32-.63,2.28-.63,1.72.21,2.29.65.86,1.02.86,1.76v.07h-1.85v-.1c0-.31-.11-.56-.32-.74s-.54-.27-.99-.27-.76.08-.96.23c-.2.16-.3.36-.3.6s.12.44.37.58c.24.14.79.31,1.63.49.87.18,1.51.46,1.94.83.43.37.64.89.64,1.55,0,.75-.28,1.34-.83,1.78-.56.44-1.37.66-2.45.66s-1.9-.22-2.49-.66-.88-1.06-.88-1.85v-.07h1.87Z"/>
        <path class="cls-19" d="M848.07,226.43c.19-.2.47-.3.83-.3s.64.1.83.3c.19.2.29.45.29.74s-.1.54-.29.74c-.2.2-.48.3-.84.3s-.63-.1-.83-.3c-.19-.2-.29-.45-.29-.74s.1-.54.29-.74ZM847.96,229.36h1.89v7.65h-1.89v-7.65Z"/>
        <path class="cls-19" d="M851.86,229.36h1.77l.05.9h.04c.22-.31.53-.57.92-.76.39-.19.83-.29,1.3-.29.78,0,1.42.22,1.9.66.48.44.73,1.21.73,2.3v4.83h-1.89v-4.88c0-.52-.12-.89-.34-1.11-.23-.22-.56-.32-.98-.32-.35,0-.67.1-.95.29s-.51.46-.66.8v5.22h-1.89v-7.65Z"/>
        <path class="cls-19" d="M861.35,237.88c.19.2.48.39.88.56.4.18.84.26,1.32.26.57,0,1.03-.17,1.38-.52.35-.34.52-.85.52-1.52v-.49c-.2.3-.48.54-.85.71s-.8.26-1.29.26c-.98,0-1.77-.36-2.36-1.07-.6-.71-.9-1.64-.9-2.79v-.23c0-1.15.3-2.08.89-2.79.59-.71,1.38-1.07,2.37-1.07.49,0,.93.1,1.32.3s.67.46.84.75h.04l.05-.91h1.77v7.27c0,1.14-.35,2.02-1.04,2.63-.69.61-1.58.92-2.65.92-.65,0-1.26-.1-1.81-.31-.55-.21-1.01-.46-1.38-.77l.9-1.22ZM862.42,235.04c.29.44.75.66,1.37.66.41,0,.75-.12,1.04-.35.29-.23.49-.5.62-.79v-2.73c-.13-.33-.34-.61-.63-.83-.29-.23-.64-.34-1.06-.34-.6,0-1.05.22-1.34.66-.29.44-.44,1-.44,1.67v.38c0,.68.15,1.24.44,1.67Z"/>
      </g>
      <g>
        <path class="cls-3" d="M895.81,228.01c-.15,2.02-.41,4-.77,5.95"/>
        <path class="cls-1" d="M891.69,245.15c-8.3,19.71-27.79,33.55-50.52,33.55-24.83,0-45.8-16.52-52.53-39.17"/>
        <path class="cls-3" d="M787.28,233.84c-.36-1.95-.61-3.94-.76-5.95"/>
      </g>
      <path class="cls-3" d="M786.52,227.89c-.09-1.31-.14-2.64-.14-3.98,0-30.26,24.53-54.79,54.79-54.79s54.79,24.53,54.79,54.79c0,1.38-.05,2.75-.15,4.11"/>
      <g>
        <line class="cls-2" x1="896.09" y1="224.34" x2="916.54" y2="224.34"/>
        <polygon class="cls-12" points="911.6 216.51 911.6 232.18 925.17 224.34 911.6 216.51"/>
      </g>
      <line class="cls-2" x1="786.52" y1="224.34" x2="766.07" y2="224.34"/>
      <polygon class="cls-12" points="771.01 216.51 771.01 232.18 757.44 224.34 771.01 216.51"/>
    </g>
    <g>
      <g>
        <g>
          <polygon class="cls-13" points="489.39 216.57 489.39 225.42 480.77 229.27 480.77 220.43 488.14 217.13 489.39 216.57"/>
          <path class="cls-8" d="M472.05,216.57h.04s.03.03.03.03v-.05l-.07.03Z"/>
          <path class="cls-12" d="M480.74,212.71l-8.61,3.84v.05l1.21.53,7.4,3.3h.01s.01-.01.01-.01l8.63-3.85-8.66-3.86ZM484.5,216.57h0c-.03.63-1.69,1.09-3.75,1.09s-3.74-.48-3.74-1.09v-1.62c0-.6,1.67-1.09,3.74-1.09s3.75.49,3.75,1.09v1.61h0Z"/>
          <path class="cls-12" d="M484.5,214.95c0,.32-.49.62-1.26.81-.66.17-1.53.27-2.48.27s-1.82-.1-2.48-.27c-.78-.2-1.27-.49-1.27-.82,0-.6,1.68-1.09,3.75-1.09s3.75.49,3.75,1.09Z"/>
          <polygon class="cls-12" points="480.75 220.43 480.75 229.27 472.09 225.42 472.09 216.57 473.34 217.13 480.74 220.42 480.75 220.43"/>
        </g>
        <polygon class="cls-11" points="498.54 202.59 498.54 211.43 489.92 215.29 489.92 206.44 497.3 203.14 498.54 202.59"/>
        <path class="cls-18" d="M481.2,202.58l.04.03h.03s0-.05,0-.05l-.07.03Z"/>
        <path class="cls-18" d="M489.9,198.72l-8.63,3.84v.07l8.63,3.84h.01s.01-.01.01-.01l8.61-3.86-8.64-3.86ZM493.65,202.59c0,.6-1.68,1.09-3.74,1.09s-3.75-.49-3.75-1.09v-1.64c0-.59,1.68-1.08,3.75-1.08s3.74.49,3.74,1.08v1.64Z"/>
        <path class="cls-18" d="M493.65,200.96c0,.32-.49.62-1.26.81-.66.17-1.53.27-2.48.27s-1.82-.1-2.48-.27c-.78-.2-1.27-.49-1.27-.82,0-.6,1.68-1.09,3.75-1.09s3.75.49,3.75,1.09Z"/>
        <polygon class="cls-18" points="489.91 206.44 489.91 215.29 481.24 211.43 481.24 202.59 482.49 203.14 489.89 206.43 489.91 206.44"/>
        <g>
          <polygon class="cls-9" points="507.96 216.57 507.96 225.42 499.34 229.27 499.34 220.43 506.72 217.13 507.96 216.57"/>
          <path class="cls-14" d="M490.62,216.57h.04s.03.03.03.03v-.05l-.07.03Z"/>
          <path class="cls-14" d="M499.32,212.71l-8.63,3.84v.05l8.63,3.84h.01s.01-.01.01-.01l8.63-3.85-8.66-3.86ZM503.07,216.57h0c-.03.63-1.69,1.09-3.74,1.09s-3.75-.48-3.75-1.09v-1.62c0-.6,1.68-1.09,3.75-1.09s3.74.49,3.74,1.09v1.61h0Z"/>
          <path class="cls-14" d="M503.07,214.95c0,.32-.49.62-1.26.81-.66.17-1.53.27-2.48.27s-1.82-.1-2.48-.27c-.78-.2-1.27-.49-1.27-.82,0-.6,1.68-1.09,3.75-1.09s3.75.49,3.75,1.09Z"/>
          <polygon class="cls-14" points="499.33 220.43 499.33 229.27 490.66 225.42 490.66 216.57 491.91 217.13 499.31 220.42 499.33 220.43"/>
        </g>
      </g>
      <g>
        <path class="cls-19" d="M458.51,233.6h2.26l5.64,14.83h-2.47l-3.96-10.89c-.08-.23-.15-.45-.21-.66-.06-.21-.11-.42-.16-.64h-.09c-.05.22-.1.43-.16.64-.06.21-.13.43-.21.65l-3.99,10.89h-2.26l5.6-14.83ZM456.21,242.94h6.79l.63,1.84h-8.06l.64-1.84Z"/>
        <path class="cls-19" d="M467.13,242.93c0-1.57.41-2.85,1.24-3.86.83-1,1.92-1.51,3.27-1.51.72,0,1.33.13,1.84.38s.92.59,1.21,1.01v-6.06h2.25v15.52h-2.08l-.07-1.34h-.06c-.25.43-.65.8-1.19,1.09s-1.17.45-1.89.45c-1.38,0-2.48-.5-3.3-1.51s-1.22-2.3-1.22-3.86v-.32ZM470.1,245.83c.44.67,1.12,1.01,2.05,1.01.63,0,1.16-.17,1.59-.51s.75-.74.95-1.19v-4.11c-.2-.45-.51-.84-.94-1.18-.43-.34-.96-.51-1.59-.51-.92,0-1.61.34-2.05,1.01-.45.67-.67,1.52-.67,2.53v.42c0,1.01.22,1.86.66,2.53Z"/>
        <path class="cls-19" d="M480.57,242.71c.88-.6,1.99-.9,3.33-.91h2.3v-.68c0-.59-.15-1.06-.46-1.43-.3-.37-.83-.55-1.57-.55s-1.28.15-1.6.46c-.32.3-.48.66-.48,1.07v.09h-2.24v-.09c0-.88.4-1.64,1.2-2.27.8-.63,1.86-.94,3.19-.94s2.36.3,3.1.91,1.11,1.53,1.11,2.75v4.88c0,.44.04.85.11,1.24.07.39.17.73.3,1.02v.16h-2.21c-.09-.16-.17-.38-.24-.64s-.12-.53-.14-.78c-.23.42-.63.8-1.19,1.13-.57.33-1.29.5-2.17.5-1.02,0-1.88-.28-2.59-.85-.71-.57-1.06-1.4-1.06-2.49s.44-1.98,1.32-2.58ZM482,246.46c.32.33.83.49,1.53.49s1.32-.24,1.86-.71c.54-.48.81-1,.81-1.56v-1.36h-2.02c-.88,0-1.55.16-1.99.49s-.67.77-.67,1.33.16,1,.49,1.33Z"/>
        <path class="cls-19" d="M491.31,237.77h2.07l.07,1.33h.06c.26-.43.66-.79,1.21-1.09.55-.29,1.19-.44,1.9-.44,1.36,0,2.44.5,3.26,1.5.82,1,1.23,2.29,1.23,3.87v.32c0,1.58-.41,2.87-1.22,3.87-.81,1-1.89,1.5-3.24,1.5-.72,0-1.34-.13-1.86-.38s-.94-.59-1.23-1.02v5.4h-2.26v-14.87ZM494.53,246.33c.45.35.98.52,1.6.52.92,0,1.6-.33,2.04-.99.44-.66.65-1.51.65-2.54v-.43c0-1.03-.22-1.88-.65-2.54-.44-.66-1.12-.99-2.04-.99-.63,0-1.17.17-1.61.52-.44.34-.76.74-.95,1.17v4.1c.19.45.51.84.96,1.19Z"/>
        <path class="cls-19" d="M501.95,237.77h6.23v1.69h-6.23v-1.69ZM503.75,238.73v-3.55h2.25v10.41c0,.47.09.81.28,1.01.19.2.47.3.84.3.18,0,.36-.02.53-.06.17-.04.35-.09.52-.16v1.75c-.17.08-.39.15-.68.21-.28.06-.59.09-.93.09-.86,0-1.54-.25-2.05-.75-.51-.5-.76-1.29-.76-2.36v-6.88Z"/>
        <path class="cls-19" d="M509.48,242.93c0-1.62.46-2.94,1.38-3.95.92-1.01,2.12-1.52,3.6-1.52s2.63.47,3.45,1.42c.82.95,1.22,2.24,1.22,3.86v.88h-8.2v-1.63h5.95v-.23c0-.71-.21-1.31-.62-1.81-.41-.5-1-.74-1.76-.74-.92,0-1.61.35-2.06,1.04-.46.69-.69,1.57-.69,2.63v.43c0,1.05.24,1.92.73,2.61s1.23,1.04,2.23,1.04c.64,0,1.19-.14,1.65-.43.46-.29.84-.63,1.13-1.02l1.52,1.1c-.34.55-.88,1.05-1.61,1.48s-1.63.65-2.67.65c-1.68,0-2.98-.51-3.89-1.52-.91-1.01-1.37-2.33-1.37-3.96v-.32Z"/>
        <path class="cls-19" d="M521.31,237.77h2.08l.08,1.3h.06c.25-.42.58-.8,1-1.12s.91-.48,1.47-.48c.14,0,.29.02.45.05.16.03.27.06.33.09v2.03c-.13-.03-.26-.05-.4-.07-.14-.02-.3-.03-.48-.03-.55,0-1.03.15-1.44.46s-.71.68-.9,1.13v7.29h-2.26v-10.66Z"/>
      </g>
    </g>
    <g>
      <g>
        <g>
          <polygon class="cls-13" points="692.39 218.57 692.39 227.42 683.77 231.27 683.77 222.43 691.14 219.13 692.39 218.57"/>
          <path class="cls-5" d="M675.05,218.57h.04s.03.03.03.03v-.05l-.07.03Z"/>
          <path class="cls-12" d="M683.74,214.71l-8.61,3.84v.05l1.21.53,7.4,3.3h.01s.01-.01.01-.01l8.63-3.85-8.66-3.86ZM687.5,218.57h0c-.03.63-1.69,1.09-3.75,1.09s-3.74-.48-3.74-1.09v-1.62c0-.6,1.67-1.09,3.74-1.09s3.75.49,3.75,1.09v1.61h0Z"/>
          <path class="cls-12" d="M687.5,216.95c0,.32-.49.62-1.26.81-.66.17-1.53.27-2.48.27s-1.82-.1-2.48-.27c-.78-.2-1.27-.49-1.27-.82,0-.6,1.68-1.09,3.75-1.09s3.75.49,3.75,1.09Z"/>
          <polygon class="cls-12" points="683.75 222.43 683.75 231.27 675.09 227.42 675.09 218.57 676.34 219.13 683.74 222.42 683.75 222.43"/>
        </g>
        <polygon class="cls-11" points="701.54 204.59 701.54 213.43 692.92 217.29 692.92 208.44 700.3 205.14 701.54 204.59"/>
        <path class="cls-18" d="M684.2,204.58l.04.03h.03s0-.05,0-.05l-.07.03Z"/>
        <path class="cls-18" d="M692.9,200.72l-8.63,3.84v.07l8.63,3.84h.01s.01-.01.01-.01l8.61-3.86-8.64-3.86ZM696.65,204.59c0,.6-1.68,1.09-3.74,1.09s-3.75-.49-3.75-1.09v-1.64c0-.59,1.68-1.08,3.75-1.08s3.74.49,3.74,1.08v1.64Z"/>
        <path class="cls-18" d="M696.65,202.96c0,.32-.49.62-1.26.81-.66.17-1.53.27-2.48.27s-1.82-.1-2.48-.27c-.78-.2-1.27-.49-1.27-.82,0-.6,1.68-1.09,3.75-1.09s3.75.49,3.75,1.09Z"/>
        <polygon class="cls-18" points="692.91 208.44 692.91 217.29 684.24 213.43 684.24 204.59 685.49 205.14 692.89 208.43 692.91 208.44"/>
        <g>
          <polygon class="cls-9" points="710.96 218.57 710.96 227.42 702.34 231.27 702.34 222.43 709.72 219.13 710.96 218.57"/>
          <path class="cls-14" d="M693.62,218.57h.04s.03.03.03.03v-.05l-.07.03Z"/>
          <path class="cls-14" d="M702.32,214.71l-8.63,3.84v.05l8.63,3.84h.01s.01-.01.01-.01l8.63-3.85-8.66-3.86ZM706.07,218.57h0c-.03.63-1.69,1.09-3.74,1.09s-3.75-.48-3.75-1.09v-1.62c0-.6,1.68-1.09,3.75-1.09s3.74.49,3.74,1.09v1.61h0Z"/>
          <path class="cls-14" d="M706.07,216.95c0,.32-.49.62-1.26.81-.66.17-1.53.27-2.48.27s-1.82-.1-2.48-.27c-.78-.2-1.27-.49-1.27-.82,0-.6,1.68-1.09,3.75-1.09s3.75.49,3.75,1.09Z"/>
          <polygon class="cls-14" points="702.33 222.43 702.33 231.27 693.66 227.42 693.66 218.57 694.91 219.13 702.31 222.42 702.33 222.43"/>
        </g>
      </g>
      <g>
        <path class="cls-19" d="M661.51,235.6h2.26l5.64,14.83h-2.47l-3.96-10.89c-.08-.23-.15-.45-.21-.66-.06-.21-.11-.42-.16-.64h-.09c-.05.22-.1.43-.16.64-.06.21-.13.43-.21.65l-3.99,10.89h-2.26l5.6-14.83ZM659.21,244.94h6.79l.63,1.84h-8.06l.64-1.84Z"/>
        <path class="cls-19" d="M670.13,244.93c0-1.57.41-2.85,1.24-3.86.83-1,1.92-1.51,3.27-1.51.72,0,1.33.13,1.84.38s.92.59,1.21,1.01v-6.06h2.25v15.52h-2.08l-.07-1.34h-.06c-.25.43-.65.8-1.19,1.09s-1.17.45-1.89.45c-1.38,0-2.48-.5-3.3-1.51s-1.22-2.3-1.22-3.86v-.32ZM673.1,247.83c.44.67,1.12,1.01,2.05,1.01.63,0,1.16-.17,1.59-.51.43-.34.75-.74.95-1.19v-4.11c-.2-.45-.51-.84-.94-1.18-.43-.34-.96-.51-1.59-.51-.92,0-1.61.34-2.05,1.01-.45.67-.67,1.52-.67,2.53v.42c0,1.01.22,1.86.66,2.53Z"/>
        <path class="cls-19" d="M683.57,244.71c.88-.6,1.99-.9,3.33-.91h2.3v-.68c0-.59-.15-1.06-.46-1.43-.3-.37-.83-.55-1.57-.55s-1.28.15-1.6.46c-.32.3-.48.66-.48,1.07v.09h-2.24v-.09c0-.88.4-1.64,1.2-2.27.8-.63,1.86-.94,3.19-.94s2.36.3,3.1.91c.74.61,1.11,1.53,1.11,2.75v4.88c0,.44.04.85.11,1.24.07.39.17.73.3,1.02v.16h-2.21c-.09-.16-.17-.38-.24-.64s-.12-.53-.14-.78c-.23.42-.63.8-1.19,1.13-.57.33-1.29.5-2.17.5-1.02,0-1.88-.28-2.59-.85-.71-.57-1.06-1.4-1.06-2.49s.44-1.98,1.32-2.58ZM685,248.46c.32.33.83.49,1.53.49s1.32-.24,1.86-.71c.54-.48.81-1,.81-1.56v-1.36h-2.02c-.88,0-1.55.16-1.99.49s-.67.77-.67,1.33.16,1,.49,1.33Z"/>
        <path class="cls-19" d="M694.31,239.77h2.08l.07,1.33h.06c.26-.43.66-.79,1.21-1.09.55-.29,1.19-.44,1.9-.44,1.36,0,2.44.5,3.26,1.5.82,1,1.23,2.29,1.23,3.87v.32c0,1.58-.41,2.87-1.22,3.87s-1.89,1.5-3.24,1.5c-.72,0-1.34-.13-1.86-.38s-.94-.59-1.24-1.02v5.4h-2.26v-14.87ZM697.53,248.33c.45.35.98.52,1.6.52.92,0,1.6-.33,2.04-.99.43-.66.65-1.51.65-2.54v-.43c0-1.03-.22-1.88-.65-2.54-.44-.66-1.12-.99-2.04-.99-.63,0-1.17.17-1.61.52-.44.34-.76.74-.95,1.17v4.1c.19.45.51.84.96,1.19Z"/>
        <path class="cls-19" d="M704.95,239.77h6.23v1.69h-6.23v-1.69ZM706.75,240.73v-3.55h2.25v10.41c0,.47.09.81.28,1.01.19.2.47.3.84.3.18,0,.36-.02.53-.06.17-.04.35-.09.52-.16v1.75c-.17.08-.39.15-.68.21-.28.06-.59.09-.93.09-.86,0-1.54-.25-2.05-.75-.51-.5-.76-1.29-.76-2.36v-6.88Z"/>
        <path class="cls-19" d="M712.48,244.93c0-1.62.46-2.94,1.38-3.95s2.12-1.52,3.6-1.52,2.63.47,3.45,1.42c.82.95,1.22,2.24,1.22,3.86v.88h-8.2v-1.63h5.95v-.23c0-.71-.21-1.31-.62-1.81-.41-.5-1-.74-1.76-.74-.92,0-1.61.35-2.06,1.04-.46.69-.69,1.57-.69,2.63v.43c0,1.05.25,1.92.73,2.61s1.23,1.04,2.23,1.04c.64,0,1.19-.14,1.65-.43.46-.29.84-.63,1.13-1.02l1.52,1.1c-.34.55-.88,1.05-1.61,1.48-.74.43-1.63.65-2.67.65-1.68,0-2.98-.51-3.89-1.52-.91-1.01-1.37-2.33-1.37-3.96v-.32Z"/>
        <path class="cls-19" d="M724.31,239.77h2.08l.08,1.3h.06c.25-.42.58-.8,1-1.12.42-.32.91-.48,1.47-.48.14,0,.29.02.45.05.16.03.27.06.33.09v2.03c-.13-.03-.26-.05-.41-.07-.14-.02-.3-.03-.48-.03-.55,0-1.03.15-1.44.46-.41.3-.71.68-.9,1.13v7.29h-2.26v-10.66Z"/>
      </g>
    </g>
    <g>
      <g>
        <g>
          <polygon class="cls-13" points="1005.39 217.57 1005.39 226.42 996.77 230.27 996.77 221.43 1004.14 218.13 1005.39 217.57"/>
          <path class="cls-6" d="M988.05,217.57h.04s.03.03.03.03v-.05l-.07.03Z"/>
          <path class="cls-12" d="M996.74,213.71l-8.61,3.84v.05l1.21.53,7.4,3.3h.01s.01-.01.01-.01l8.63-3.85-8.66-3.86ZM1000.5,217.57h0c-.03.63-1.69,1.09-3.75,1.09s-3.74-.48-3.74-1.09v-1.62c0-.6,1.67-1.09,3.74-1.09s3.75.49,3.75,1.09v1.61h0Z"/>
          <path class="cls-12" d="M1000.5,215.95c0,.32-.49.62-1.26.81-.66.17-1.53.27-2.48.27s-1.82-.1-2.48-.27c-.78-.2-1.27-.49-1.27-.82,0-.6,1.68-1.09,3.75-1.09s3.75.49,3.75,1.09Z"/>
          <polygon class="cls-12" points="996.75 221.43 996.75 230.27 988.09 226.42 988.09 217.57 989.34 218.13 996.74 221.42 996.75 221.43"/>
        </g>
        <polygon class="cls-11" points="1014.54 203.59 1014.54 212.43 1005.92 216.29 1005.92 207.44 1013.3 204.14 1014.54 203.59"/>
        <path class="cls-18" d="M997.2,203.58l.04.03h.03s0-.05,0-.05l-.07.03Z"/>
        <path class="cls-18" d="M1005.9,199.72l-8.63,3.84v.07l8.63,3.84h.01s.01-.01.01-.01l8.61-3.86-8.64-3.86ZM1009.65,203.59c0,.6-1.68,1.09-3.74,1.09s-3.75-.49-3.75-1.09v-1.64c0-.59,1.68-1.08,3.75-1.08s3.74.49,3.74,1.08v1.64Z"/>
        <path class="cls-18" d="M1009.65,201.96c0,.32-.49.62-1.26.81-.66.17-1.53.27-2.48.27s-1.82-.1-2.48-.27c-.78-.2-1.27-.49-1.27-.82,0-.6,1.68-1.09,3.75-1.09s3.75.49,3.75,1.09Z"/>
        <polygon class="cls-18" points="1005.91 207.44 1005.91 216.29 997.24 212.43 997.24 203.59 998.49 204.14 1005.89 207.43 1005.91 207.44"/>
        <g>
          <polygon class="cls-9" points="1023.96 217.57 1023.96 226.42 1015.34 230.27 1015.34 221.43 1022.72 218.13 1023.96 217.57"/>
          <path class="cls-14" d="M1006.62,217.57h.04s.03.03.03.03v-.05l-.07.03Z"/>
          <path class="cls-14" d="M1015.32,213.71l-8.63,3.84v.05l8.63,3.84h.01s.01-.01.01-.01l8.63-3.85-8.66-3.86ZM1019.07,217.57h0c-.03.63-1.69,1.09-3.74,1.09s-3.75-.48-3.75-1.09v-1.62c0-.6,1.68-1.09,3.75-1.09s3.74.49,3.74,1.09v1.61h0Z"/>
          <path class="cls-14" d="M1019.07,215.95c0,.32-.49.62-1.26.81-.66.17-1.53.27-2.48.27s-1.82-.1-2.48-.27c-.78-.2-1.27-.49-1.27-.82,0-.6,1.68-1.09,3.75-1.09s3.75.49,3.75,1.09Z"/>
          <polygon class="cls-14" points="1015.33 221.43 1015.33 230.27 1006.66 226.42 1006.66 217.57 1007.91 218.13 1015.31 221.42 1015.33 221.43"/>
        </g>
      </g>
      <g>
        <path class="cls-19" d="M974.51,234.6h2.26l5.64,14.83h-2.47l-3.96-10.89c-.08-.23-.15-.45-.21-.66-.06-.21-.11-.42-.16-.64h-.09c-.05.22-.1.43-.16.64-.06.21-.13.43-.21.65l-3.99,10.89h-2.26l5.6-14.83ZM972.21,243.94h6.79l.63,1.84h-8.06l.64-1.84Z"/>
        <path class="cls-19" d="M983.13,243.93c0-1.57.41-2.85,1.24-3.86.83-1,1.92-1.51,3.27-1.51.72,0,1.33.13,1.84.38s.92.59,1.21,1.01v-6.06h2.25v15.52h-2.08l-.07-1.34h-.06c-.25.43-.65.8-1.19,1.09s-1.17.45-1.89.45c-1.38,0-2.48-.5-3.3-1.51s-1.22-2.3-1.22-3.86v-.32ZM986.1,246.83c.44.67,1.12,1.01,2.05,1.01.63,0,1.16-.17,1.59-.51.43-.34.75-.74.95-1.19v-4.11c-.2-.45-.51-.84-.94-1.18-.43-.34-.96-.51-1.59-.51-.92,0-1.61.34-2.05,1.01-.45.67-.67,1.52-.67,2.53v.42c0,1.01.22,1.86.66,2.53Z"/>
        <path class="cls-19" d="M996.57,243.71c.88-.6,1.99-.9,3.33-.91h2.3v-.68c0-.59-.15-1.06-.46-1.43-.3-.37-.83-.55-1.57-.55s-1.28.15-1.6.46c-.32.3-.48.66-.48,1.07v.09h-2.24v-.09c0-.88.4-1.64,1.2-2.27.8-.63,1.86-.94,3.19-.94s2.36.3,3.1.91c.74.61,1.11,1.53,1.11,2.75v4.88c0,.44.04.85.11,1.24.07.39.17.73.3,1.02v.16h-2.21c-.09-.16-.17-.38-.24-.64s-.12-.53-.14-.78c-.23.42-.63.8-1.19,1.13-.57.33-1.29.5-2.17.5-1.02,0-1.88-.28-2.59-.85-.71-.57-1.06-1.4-1.06-2.49s.44-1.98,1.32-2.58ZM998,247.46c.32.33.83.49,1.53.49s1.32-.24,1.86-.71c.54-.48.81-1,.81-1.56v-1.36h-2.02c-.88,0-1.55.16-1.99.49s-.67.77-.67,1.33.16,1,.49,1.33Z"/>
        <path class="cls-19" d="M1007.31,238.77h2.08l.07,1.33h.06c.26-.43.66-.79,1.21-1.09.55-.29,1.19-.44,1.9-.44,1.36,0,2.44.5,3.26,1.5.82,1,1.23,2.29,1.23,3.87v.32c0,1.58-.41,2.87-1.22,3.87s-1.89,1.5-3.24,1.5c-.72,0-1.34-.13-1.86-.38s-.94-.59-1.24-1.02v5.4h-2.26v-14.87ZM1010.53,247.33c.45.35.98.52,1.6.52.92,0,1.6-.33,2.04-.99.43-.66.65-1.51.65-2.54v-.43c0-1.03-.22-1.88-.65-2.54-.44-.66-1.12-.99-2.04-.99-.63,0-1.17.17-1.61.52-.44.34-.76.74-.95,1.17v4.1c.19.45.51.84.96,1.19Z"/>
        <path class="cls-19" d="M1017.95,238.77h6.23v1.69h-6.23v-1.69ZM1019.75,239.73v-3.55h2.25v10.41c0,.47.09.81.28,1.01.19.2.47.3.84.3.18,0,.36-.02.53-.06.17-.04.35-.09.52-.16v1.75c-.17.08-.39.15-.68.21-.28.06-.59.09-.93.09-.86,0-1.54-.25-2.05-.75-.51-.5-.76-1.29-.76-2.36v-6.88Z"/>
        <path class="cls-19" d="M1025.48,243.93c0-1.62.46-2.94,1.38-3.95s2.12-1.52,3.6-1.52,2.63.47,3.45,1.42c.82.95,1.22,2.24,1.22,3.86v.88h-8.2v-1.63h5.95v-.23c0-.71-.21-1.31-.62-1.81-.41-.5-1-.74-1.76-.74-.92,0-1.61.35-2.06,1.04-.46.69-.69,1.57-.69,2.63v.43c0,1.05.25,1.92.73,2.61s1.23,1.04,2.23,1.04c.64,0,1.19-.14,1.65-.43.46-.29.84-.63,1.13-1.02l1.52,1.1c-.34.55-.88,1.05-1.61,1.48-.74.43-1.63.65-2.67.65-1.68,0-2.98-.51-3.89-1.52-.91-1.01-1.37-2.33-1.37-3.96v-.32Z"/>
        <path class="cls-19" d="M1037.31,238.77h2.08l.08,1.3h.06c.25-.42.58-.8,1-1.12.42-.32.91-.48,1.47-.48.14,0,.29.02.45.05.16.03.27.06.33.09v2.03c-.13-.03-.26-.05-.41-.07-.14-.02-.3-.03-.48-.03-.55,0-1.03.15-1.44.46-.41.3-.71.68-.9,1.13v7.29h-2.26v-10.66Z"/>
      </g>
    </g>
    <g>
      <path class="cls-19" d="M497.73,365.76h3.07v.21c0,.87.28,1.52.85,1.95.57.43,1.36.65,2.38.65s1.8-.21,2.34-.63c.54-.42.81-.97.81-1.66s-.26-1.21-.78-1.59c-.52-.38-1.6-.79-3.24-1.22-1.74-.47-3.03-1.08-3.87-1.82-.84-.74-1.27-1.77-1.27-3.09,0-1.38.53-2.51,1.59-3.36,1.06-.86,2.5-1.29,4.32-1.29s3.26.45,4.35,1.34,1.63,2.06,1.63,3.51v.24h-3.01v-.21c0-.75-.25-1.35-.75-1.81-.5-.46-1.23-.69-2.21-.69s-1.7.19-2.17.56c-.46.38-.7.88-.7,1.53s.25,1.09.74,1.42c.49.33,1.56.72,3.2,1.17,1.71.47,3.01,1.09,3.9,1.86s1.33,1.87,1.33,3.31-.56,2.67-1.68,3.53c-1.12.86-2.62,1.29-4.5,1.29s-3.39-.43-4.55-1.28c-1.16-.85-1.75-2.07-1.75-3.64v-.25Z"/>
      <path class="cls-19" d="M512.75,354.23c.3-.31.73-.46,1.29-.46s.99.15,1.29.46c.3.31.45.69.45,1.15s-.15.84-.45,1.15c-.3.31-.74.47-1.3.47s-.98-.16-1.28-.47-.45-.69-.45-1.15.15-.84.45-1.15ZM512.57,358.76h2.93v11.84h-2.93v-11.84Z"/>
      <path class="cls-19" d="M518.61,358.76h2.74l.08,1.4h.07c.37-.52.85-.92,1.44-1.2s1.23-.43,1.92-.43c.82,0,1.52.17,2.12.5s1.04.84,1.33,1.52h.06c.43-.68.97-1.19,1.63-1.52.66-.33,1.38-.5,2.15-.5,1.21,0,2.17.36,2.88,1.08.72.72,1.07,1.93,1.07,3.62v7.36h-2.92v-7.5c0-.79-.16-1.36-.49-1.72s-.81-.54-1.45-.54c-.55,0-1.03.14-1.44.45s-.74.72-.98,1.25v8.07h-2.93v-7.48c0-.8-.17-1.38-.5-1.75-.33-.36-.82-.54-1.45-.54-.55,0-1.03.15-1.44.45s-.73.71-.97,1.25v8.07h-2.92v-11.84Z"/>
      <path class="cls-19" d="M538.94,358.76h2.92v7.45c0,.86.18,1.46.54,1.81.36.34.86.52,1.5.52.56,0,1.06-.16,1.5-.48.44-.32.77-.72,1.01-1.2v-8.1h2.92v11.84h-2.74l-.08-1.39h-.07c-.37.5-.86.9-1.47,1.18s-1.28.43-2.03.43c-1.18,0-2.15-.36-2.89-1.08s-1.11-1.92-1.11-3.62v-7.37Z"/>
      <path class="cls-19" d="M552.43,353.38h2.93v17.22h-2.93v-17.22Z"/>
      <path class="cls-19" d="M559.34,364.19c1-.66,2.26-.99,3.78-.99h2.41v-.72c0-.58-.15-1.06-.46-1.43-.3-.37-.84-.56-1.6-.56s-1.3.15-1.62.46c-.32.31-.48.67-.48,1.09v.13h-2.89v-.13c0-1.02.47-1.88,1.4-2.57.94-.7,2.17-1.04,3.69-1.04s2.72.33,3.58,1c.86.67,1.29,1.69,1.29,3.06v5.44c0,.49.04.95.12,1.38s.19.8.34,1.12v.18h-2.85c-.1-.18-.18-.41-.26-.7s-.12-.57-.15-.84c-.25.46-.69.87-1.33,1.22s-1.44.54-2.41.54c-1.15,0-2.11-.31-2.9-.94s-1.18-1.55-1.18-2.77c0-1.29.5-2.26,1.5-2.93ZM561.27,368.24c.33.34.85.51,1.56.51s1.38-.24,1.91-.73c.53-.49.8-1.04.8-1.67v-1.31h-2.03c-.91,0-1.6.16-2.05.48-.45.32-.68.78-.68,1.36s.16,1.02.49,1.36Z"/>
      <path class="cls-19" d="M570,358.76h7.11v2.16h-7.11v-2.16ZM571.88,359.92v-.34s.01-3.66.01-3.66h2.91v11.3c0,.53.1.9.3,1.11.2.21.5.31.89.31.18,0,.36-.02.54-.06.18-.04.37-.09.54-.16v2.16c-.18.09-.43.17-.75.24-.32.07-.66.11-1.04.11-1.03,0-1.85-.3-2.48-.89-.63-.59-.94-1.52-.94-2.77v-7.34Z"/>
      <path class="cls-19" d="M578.25,364.5c0-1.84.54-3.32,1.63-4.42,1.09-1.1,2.52-1.66,4.28-1.66s3.21.55,4.3,1.66c1.09,1.1,1.63,2.58,1.63,4.42v.36c0,1.83-.54,3.3-1.63,4.41-1.09,1.11-2.52,1.66-4.3,1.66s-3.2-.55-4.28-1.66c-1.09-1.11-1.63-2.58-1.63-4.41v-.36ZM581.23,364.98c0,1.14.25,2.04.75,2.7.5.66,1.23.99,2.18.99s1.68-.33,2.18-.99c.5-.66.75-1.56.75-2.7v-.61c0-1.15-.25-2.05-.76-2.71-.5-.66-1.23-.99-2.17-.99s-1.66.33-2.17.99c-.51.66-.76,1.56-.76,2.71v.61Z"/>
      <path class="cls-19" d="M592.49,358.76h2.75l.08,1.37h.06c.25-.46.6-.85,1.04-1.19s.95-.5,1.53-.5c.16,0,.32.02.48.06s.28.07.35.1v2.56c-.13-.03-.28-.05-.43-.07-.15-.02-.32-.02-.5-.02-.57,0-1.07.16-1.49.48s-.74.72-.93,1.21v7.85h-2.93v-11.84Z"/>
      <path class="cls-19" d="M606.56,354.24h5.96c1.86,0,3.3.46,4.3,1.36,1,.91,1.5,2.18,1.5,3.81s-.5,2.9-1.5,3.82c-1,.92-2.44,1.39-4.31,1.39h-2.94v5.96h-3.01v-16.35ZM612.31,362.33c1.13,0,1.92-.27,2.35-.8.44-.53.66-1.24.66-2.11s-.22-1.56-.66-2.08c-.44-.52-1.22-.78-2.35-.78h-2.74v5.77h2.74Z"/>
      <path class="cls-19" d="M620.41,358.76h2.75l.08,1.37h.06c.25-.46.6-.85,1.04-1.19.44-.34.95-.5,1.53-.5.16,0,.32.02.48.06.16.04.28.07.35.1v2.56c-.13-.03-.28-.05-.43-.07-.15-.02-.32-.02-.5-.02-.57,0-1.07.16-1.49.48s-.74.72-.93,1.21v7.85h-2.93v-11.84Z"/>
      <path class="cls-19" d="M627.71,364.5c0-1.84.54-3.32,1.63-4.42,1.09-1.1,2.52-1.66,4.28-1.66s3.21.55,4.3,1.66c1.09,1.1,1.63,2.58,1.63,4.42v.36c0,1.83-.54,3.3-1.63,4.41-1.09,1.11-2.52,1.66-4.3,1.66s-3.2-.55-4.28-1.66c-1.09-1.11-1.63-2.58-1.63-4.41v-.36ZM630.69,364.98c0,1.14.25,2.04.75,2.7.5.66,1.23.99,2.18.99s1.68-.33,2.18-.99c.5-.66.75-1.56.75-2.7v-.61c0-1.15-.25-2.05-.76-2.71-.5-.66-1.23-.99-2.17-.99s-1.66.33-2.17.99c-.51.66-.76,1.56-.76,2.71v.61Z"/>
      <path class="cls-19" d="M641.28,364.5c0-1.84.53-3.32,1.58-4.42s2.47-1.66,4.25-1.66c1.67,0,2.94.43,3.82,1.28s1.33,1.85,1.37,2.99v.15s-2.83,0-2.83,0v-.11c0-.58-.19-1.07-.58-1.48s-.98-.61-1.79-.61c-.95,0-1.66.35-2.13,1.04-.47.69-.7,1.59-.7,2.7v.61c0,1.1.23,2,.69,2.7.46.7,1.17,1.04,2.13,1.04.86,0,1.47-.21,1.84-.63.36-.42.54-.91.54-1.47v-.1h2.84v.11c0,1.13-.45,2.13-1.34,3-.89.87-2.18,1.3-3.86,1.3-1.77,0-3.19-.55-4.25-1.66s-1.58-2.58-1.58-4.41v-.36Z"/>
      <path class="cls-19" d="M653.79,364.5c0-1.82.53-3.29,1.59-4.4,1.06-1.12,2.43-1.67,4.12-1.67s3,.52,3.95,1.57c.95,1.04,1.42,2.48,1.42,4.31v1.08h-9.13v-1.93h6.22v-.27c0-.72-.2-1.33-.62-1.83s-1.03-.75-1.81-.75c-.93,0-1.63.35-2.1,1.04s-.71,1.61-.71,2.74v.59c0,1.11.25,2.01.76,2.71.5.7,1.26,1.04,2.27,1.04.67,0,1.26-.16,1.75-.48s.89-.69,1.18-1.12l2.01,1.39c-.38.66-.99,1.23-1.84,1.7s-1.87.71-3.05.71c-1.89,0-3.36-.56-4.41-1.68s-1.58-2.58-1.58-4.4v-.36Z"/>
      <path class="cls-19" d="M669.27,366.96v.13c0,.6.21,1.04.62,1.33.42.28.98.43,1.68.43s1.26-.14,1.64-.41.57-.63.57-1.08-.18-.78-.54-1-1.19-.47-2.48-.76c-1.35-.29-2.36-.73-3.03-1.3s-1.01-1.34-1.01-2.29c0-1.08.44-1.94,1.31-2.59.87-.65,2.05-.98,3.52-.98s2.66.33,3.54,1c.89.67,1.33,1.58,1.33,2.73v.1h-2.86v-.16c0-.49-.17-.87-.49-1.15-.33-.28-.84-.42-1.53-.42s-1.18.12-1.49.36c-.31.24-.47.55-.47.93s.19.68.57.9c.38.22,1.22.47,2.52.76,1.34.28,2.34.71,3,1.29.66.57.99,1.37.99,2.4,0,1.15-.43,2.07-1.29,2.75-.86.68-2.13,1.02-3.8,1.02s-2.94-.34-3.85-1.03c-.9-.69-1.35-1.64-1.35-2.86v-.1h2.89Z"/>
      <path class="cls-19" d="M681.17,366.96v.13c0,.6.21,1.04.62,1.33.42.28.98.43,1.68.43s1.26-.14,1.64-.41.57-.63.57-1.08-.18-.78-.54-1-1.19-.47-2.48-.76c-1.35-.29-2.36-.73-3.03-1.3s-1.01-1.34-1.01-2.29c0-1.08.44-1.94,1.31-2.59.87-.65,2.05-.98,3.52-.98s2.66.33,3.54,1c.89.67,1.33,1.58,1.33,2.73v.1h-2.86v-.16c0-.49-.17-.87-.49-1.15-.33-.28-.84-.42-1.53-.42s-1.18.12-1.49.36c-.31.24-.47.55-.47.93s.19.68.57.9c.38.22,1.22.47,2.52.76,1.34.28,2.34.71,3,1.29.66.57.99,1.37.99,2.4,0,1.15-.43,2.07-1.29,2.75-.86.68-2.13,1.02-3.8,1.02s-2.94-.34-3.85-1.03c-.9-.69-1.35-1.64-1.35-2.86v-.1h2.89Z"/>
      <path class="cls-19" d="M696,368.67l5.66-6.3c.69-.75,1.22-1.42,1.58-2,.37-.59.55-1.21.55-1.87s-.2-1.16-.58-1.59c-.39-.43-.96-.65-1.7-.65s-1.35.25-1.81.74-.7,1.21-.7,2.16v.25h-3.04v-.29c0-1.54.51-2.79,1.54-3.75,1.03-.96,2.36-1.45,4.01-1.45s3.04.43,3.97,1.29,1.39,1.92,1.4,3.18c0,1.09-.29,2.05-.88,2.9s-1.29,1.72-2.11,2.62l-4,4.28h7.36v2.43h-11.24v-1.92Z"/>
    </g>
    <g>
      <path class="cls-19" d="M948.98,365.76h3.07v.21c0,.87.28,1.52.85,1.95s1.36.65,2.38.65,1.8-.21,2.34-.63.81-.97.81-1.66-.26-1.21-.78-1.59c-.52-.38-1.6-.79-3.24-1.22-1.74-.47-3.03-1.08-3.87-1.82-.84-.74-1.27-1.77-1.27-3.09,0-1.38.53-2.51,1.59-3.36s2.5-1.29,4.32-1.29,3.26.45,4.35,1.34c1.09.89,1.63,2.06,1.63,3.51v.24h-3.01v-.21c0-.75-.25-1.35-.75-1.81-.5-.46-1.23-.69-2.21-.69s-1.7.19-2.17.56c-.46.38-.7.88-.7,1.53s.25,1.09.74,1.42c.49.33,1.56.72,3.2,1.17,1.71.47,3.01,1.09,3.9,1.86.88.77,1.33,1.87,1.33,3.31s-.56,2.67-1.68,3.53c-1.12.86-2.62,1.29-4.5,1.29s-3.39-.43-4.55-1.28c-1.17-.85-1.75-2.07-1.75-3.64v-.25Z"/>
      <path class="cls-19" d="M964,354.23c.3-.31.73-.46,1.29-.46s.99.15,1.29.46c.3.31.45.69.45,1.15s-.15.84-.45,1.15c-.3.31-.74.47-1.3.47s-.98-.16-1.28-.47c-.3-.31-.45-.69-.45-1.15s.15-.84.45-1.15ZM963.82,358.76h2.93v11.84h-2.93v-11.84Z"/>
      <path class="cls-19" d="M969.87,358.76h2.74l.08,1.4h.07c.37-.52.85-.92,1.44-1.2.59-.28,1.23-.43,1.92-.43.82,0,1.52.17,2.12.5.6.33,1.04.84,1.33,1.52h.06c.43-.68.97-1.19,1.63-1.52.66-.33,1.38-.5,2.15-.5,1.21,0,2.17.36,2.88,1.08.72.72,1.07,1.93,1.07,3.62v7.36h-2.92v-7.5c0-.79-.17-1.36-.49-1.72-.33-.36-.81-.54-1.45-.54-.55,0-1.03.14-1.44.45-.41.31-.74.72-.98,1.25v8.07h-2.93v-7.48c0-.8-.17-1.38-.5-1.75-.33-.36-.82-.54-1.45-.54-.55,0-1.03.15-1.44.45s-.73.71-.97,1.25v8.07h-2.92v-11.84Z"/>
      <path class="cls-19" d="M990.19,358.76h2.92v7.45c0,.86.18,1.46.54,1.81s.86.52,1.5.52c.56,0,1.06-.16,1.5-.48.44-.32.77-.72,1.01-1.2v-8.1h2.92v11.84h-2.74l-.08-1.39h-.07c-.37.5-.86.9-1.47,1.18s-1.28.43-2.03.43c-1.18,0-2.14-.36-2.89-1.08s-1.11-1.92-1.11-3.62v-7.37Z"/>
      <path class="cls-19" d="M1003.68,353.38h2.93v17.22h-2.93v-17.22Z"/>
      <path class="cls-19" d="M1010.59,364.19c1-.66,2.26-.99,3.78-.99h2.41v-.72c0-.58-.15-1.06-.46-1.43-.3-.37-.84-.56-1.6-.56s-1.3.15-1.62.46c-.32.31-.48.67-.48,1.09v.13h-2.89v-.13c0-1.02.47-1.88,1.4-2.57.94-.7,2.17-1.04,3.7-1.04s2.72.33,3.58,1c.86.67,1.29,1.69,1.29,3.06v5.44c0,.49.04.95.12,1.38.08.43.19.8.34,1.12v.18h-2.85c-.1-.18-.18-.41-.26-.7-.07-.28-.12-.57-.15-.84-.25.46-.69.87-1.33,1.22-.64.36-1.44.54-2.42.54-1.15,0-2.11-.31-2.9-.94s-1.18-1.55-1.18-2.77c0-1.29.5-2.26,1.5-2.93ZM1012.52,368.24c.33.34.85.51,1.56.51s1.38-.24,1.91-.73c.53-.49.8-1.04.8-1.67v-1.31h-2.03c-.91,0-1.6.16-2.05.48s-.68.78-.68,1.36.17,1.02.49,1.36Z"/>
      <path class="cls-19" d="M1021.26,358.76h7.11v2.16h-7.11v-2.16ZM1023.13,359.92v-.34s.01-3.66.01-3.66h2.91v11.3c0,.53.1.9.3,1.11.2.21.5.31.89.31.18,0,.36-.02.54-.06.18-.04.37-.09.54-.16v2.16c-.18.09-.43.17-.75.24-.32.07-.66.11-1.04.11-1.03,0-1.85-.3-2.48-.89-.62-.59-.94-1.52-.94-2.77v-7.34Z"/>
      <path class="cls-19" d="M1029.5,364.5c0-1.84.54-3.32,1.63-4.42,1.09-1.1,2.52-1.66,4.28-1.66s3.21.55,4.3,1.66c1.09,1.1,1.63,2.58,1.63,4.42v.36c0,1.83-.54,3.3-1.63,4.41-1.09,1.11-2.52,1.66-4.3,1.66s-3.2-.55-4.28-1.66c-1.09-1.11-1.63-2.58-1.63-4.41v-.36ZM1032.49,364.98c0,1.14.25,2.04.75,2.7.5.66,1.23.99,2.18.99s1.68-.33,2.18-.99c.5-.66.75-1.56.75-2.7v-.61c0-1.15-.25-2.05-.76-2.71-.5-.66-1.23-.99-2.17-.99s-1.66.33-2.17.99c-.51.66-.76,1.56-.76,2.71v.61Z"/>
      <path class="cls-19" d="M1043.74,358.76h2.75l.08,1.37h.06c.25-.46.6-.85,1.04-1.19.44-.34.95-.5,1.53-.5.16,0,.32.02.48.06.16.04.28.07.35.1v2.56c-.13-.03-.28-.05-.43-.07-.15-.02-.32-.02-.5-.02-.57,0-1.07.16-1.49.48s-.74.72-.93,1.21v7.85h-2.93v-11.84Z"/>
      <path class="cls-19" d="M1057.81,354.24h5.96c1.86,0,3.3.46,4.3,1.36,1,.91,1.5,2.18,1.5,3.81s-.5,2.9-1.5,3.82c-1,.92-2.44,1.39-4.31,1.39h-2.94v5.96h-3.01v-16.35ZM1063.56,362.33c1.13,0,1.92-.27,2.35-.8.44-.53.66-1.24.66-2.11s-.22-1.56-.66-2.08c-.44-.52-1.22-.78-2.35-.78h-2.74v5.77h2.74Z"/>
      <path class="cls-19" d="M1071.66,358.76h2.75l.08,1.37h.06c.25-.46.6-.85,1.04-1.19.44-.34.95-.5,1.53-.5.16,0,.32.02.48.06.16.04.28.07.35.1v2.56c-.13-.03-.28-.05-.43-.07-.15-.02-.32-.02-.5-.02-.57,0-1.07.16-1.49.48s-.74.72-.93,1.21v7.85h-2.93v-11.84Z"/>
      <path class="cls-19" d="M1078.96,364.5c0-1.84.54-3.32,1.63-4.42,1.09-1.1,2.52-1.66,4.28-1.66s3.21.55,4.3,1.66c1.09,1.1,1.63,2.58,1.63,4.42v.36c0,1.83-.54,3.3-1.63,4.41-1.09,1.11-2.52,1.66-4.3,1.66s-3.2-.55-4.28-1.66c-1.09-1.11-1.63-2.58-1.63-4.41v-.36ZM1081.95,364.98c0,1.14.25,2.04.75,2.7.5.66,1.23.99,2.18.99s1.68-.33,2.18-.99c.5-.66.75-1.56.75-2.7v-.61c0-1.15-.25-2.05-.76-2.71-.5-.66-1.23-.99-2.17-.99s-1.66.33-2.17.99c-.51.66-.76,1.56-.76,2.71v.61Z"/>
      <path class="cls-19" d="M1092.54,364.5c0-1.84.53-3.32,1.58-4.42s2.47-1.66,4.25-1.66c1.67,0,2.94.43,3.82,1.28s1.33,1.85,1.37,2.99v.15s-2.83,0-2.83,0v-.11c0-.58-.19-1.07-.58-1.48s-.98-.61-1.79-.61c-.95,0-1.66.35-2.13,1.04-.47.69-.7,1.59-.7,2.7v.61c0,1.1.23,2,.69,2.7.46.7,1.17,1.04,2.13,1.04.86,0,1.47-.21,1.84-.63.36-.42.54-.91.54-1.47v-.1h2.84v.11c0,1.13-.45,2.13-1.34,3-.89.87-2.18,1.3-3.86,1.3-1.77,0-3.19-.55-4.25-1.66s-1.58-2.58-1.58-4.41v-.36Z"/>
      <path class="cls-19" d="M1105.05,364.5c0-1.82.53-3.29,1.59-4.4,1.06-1.12,2.43-1.67,4.12-1.67s3,.52,3.95,1.57c.95,1.04,1.42,2.48,1.42,4.31v1.08h-9.13v-1.93h6.22v-.27c0-.72-.2-1.33-.62-1.83s-1.03-.75-1.81-.75c-.93,0-1.63.35-2.1,1.04s-.71,1.61-.71,2.74v.59c0,1.11.25,2.01.76,2.71.5.7,1.26,1.04,2.27,1.04.67,0,1.26-.16,1.75-.48s.89-.69,1.18-1.12l2.01,1.39c-.38.66-.99,1.23-1.84,1.7s-1.87.71-3.05.71c-1.89,0-3.36-.56-4.41-1.68s-1.58-2.58-1.58-4.4v-.36Z"/>
      <path class="cls-19" d="M1120.52,366.96v.13c0,.6.21,1.04.62,1.33.42.28.98.43,1.68.43s1.26-.14,1.64-.41.57-.63.57-1.08-.18-.78-.54-1-1.19-.47-2.48-.76c-1.35-.29-2.36-.73-3.03-1.3s-1.01-1.34-1.01-2.29c0-1.08.44-1.94,1.31-2.59.87-.65,2.05-.98,3.52-.98s2.66.33,3.54,1c.89.67,1.33,1.58,1.33,2.73v.1h-2.86v-.16c0-.49-.17-.87-.49-1.15-.33-.28-.84-.42-1.53-.42s-1.18.12-1.49.36c-.31.24-.47.55-.47.93s.19.68.57.9c.38.22,1.22.47,2.52.76,1.34.28,2.34.71,3,1.29.66.57.99,1.37.99,2.4,0,1.15-.43,2.07-1.29,2.75-.86.68-2.13,1.02-3.8,1.02s-2.94-.34-3.85-1.03c-.9-.69-1.35-1.64-1.35-2.86v-.1h2.89Z"/>
      <path class="cls-19" d="M1132.43,366.96v.13c0,.6.21,1.04.62,1.33.42.28.98.43,1.68.43s1.26-.14,1.64-.41.57-.63.57-1.08-.18-.78-.54-1-1.19-.47-2.48-.76c-1.35-.29-2.36-.73-3.03-1.3s-1.01-1.34-1.01-2.29c0-1.08.44-1.94,1.31-2.59.87-.65,2.05-.98,3.52-.98s2.66.33,3.54,1c.89.67,1.33,1.58,1.33,2.73v.1h-2.86v-.16c0-.49-.17-.87-.49-1.15-.33-.28-.84-.42-1.53-.42s-1.18.12-1.49.36c-.31.24-.47.55-.47.93s.19.68.57.9c.38.22,1.22.47,2.52.76,1.34.28,2.34.71,3,1.29.66.57.99,1.37.99,2.4,0,1.15-.43,2.07-1.29,2.75-.86.68-2.13,1.02-3.8,1.02s-2.94-.34-3.85-1.03c-.9-.69-1.35-1.64-1.35-2.86v-.1h2.89Z"/>
      <path class="cls-19" d="M1146.94,365.96h3v.19c0,.78.23,1.38.69,1.82.46.43,1.11.65,1.94.65s1.49-.22,1.95-.66c.46-.44.69-1.12.69-2.05s-.26-1.57-.79-2.03c-.52-.45-1.27-.68-2.25-.68h-1.42v-2.22h1.3c.86,0,1.52-.22,1.96-.65s.67-1.04.67-1.82-.19-1.33-.57-1.71c-.38-.39-.92-.58-1.61-.58s-1.27.19-1.66.57c-.39.38-.58.94-.58,1.66v.15h-2.99v-.15c0-1.26.47-2.33,1.41-3.22.94-.89,2.23-1.33,3.88-1.33s2.94.41,3.83,1.24,1.34,1.83,1.34,3.03c0,.84-.21,1.6-.62,2.28-.41.68-1.06,1.19-1.93,1.54v.04c.94.22,1.7.69,2.26,1.39s.84,1.56.84,2.58c0,1.53-.52,2.73-1.55,3.61s-2.44,1.32-4.22,1.32-3.19-.44-4.15-1.33c-.96-.88-1.44-2.03-1.44-3.44v-.21Z"/>
    </g>
  </g>
</svg>