<?xml version="1.0" encoding="UTF-8" standalone="no"?>
<svg
   xmlns:dc="http://purl.org/dc/elements/1.1/"
   xmlns:cc="http://creativecommons.org/ns#"
   xmlns:rdf="http://www.w3.org/1999/02/22-rdf-syntax-ns#"
   xmlns:svg="http://www.w3.org/2000/svg"
   xmlns="http://www.w3.org/2000/svg"
   version="1.1"
   id="svg2"
   xml:space="preserve"
   width="5.4976358in"
   height="2.6188264in"
   viewBox="0 0 527.77304 251.40733"><metadata
     id="metadata8"><rdf:RDF><cc:Work
         rdf:about=""><dc:format>image/svg+xml</dc:format><dc:type
           rdf:resource="http://purl.org/dc/dcmitype/StillImage" /><dc:title></dc:title></cc:Work></rdf:RDF></metadata><defs
     id="defs6"><clipPath
       clipPathUnits="userSpaceOnUse"
       id="clipPath18"><path
         d="M 0,1080 H 1080 V 0 H 0 Z"
         id="path16" /></clipPath><clipPath
       clipPathUnits="userSpaceOnUse"
       id="clipPath26"><path
         d="M 79.8,982.92 H 669 V 686.52 H 79.8 Z"
         id="path24" /></clipPath><clipPath
       clipPathUnits="userSpaceOnUse"
       id="clipPath30"><path
         d="M 79.8,982.92 H 669 V 686.52 H 79.8 Z"
         id="path28" /></clipPath><clipPath
       clipPathUnits="userSpaceOnUse"
       id="clipPath200"><path
         d="M 0,1080 H 1080 V 0 H 0 Z"
         id="path198" /></clipPath><clipPath
       clipPathUnits="userSpaceOnUse"
       id="clipPath208"><path
         d="M 275.7,599.7 H 668.53 V 413.8 H 275.7 Z"
         id="path206" /></clipPath></defs><g
     id="g10"
     transform="matrix(1.3333333,0,0,-1.3333333,-363.60026,803.37051)"
     style="display:inline"><g
       id="g194"><g
         id="g196"
         clip-path="url(#clipPath200)"><g
           id="g202"><g
             id="g204" /><g
             id="g368"><g
               clip-path="url(#clipPath208)"
               opacity="0.399994"
               id="g366"><g
                 transform="translate(500.4033,539.8257)"
                 id="g212"><path
                   d="M 0,0 V 0.154"
                   style="fill:none;stroke:#2d2c2c;stroke-width:4;stroke-linecap:butt;stroke-linejoin:round;stroke-miterlimit:10;stroke-dasharray:none;stroke-opacity:1"
                   id="path210" /></g><g
                 transform="translate(407.6802,482.0498)"
                 id="g216"><path
                   d="M 0,0 V -66.25 L -129.98,-8.439 V 57.82 L -55.51,24.69 -0.5,0.22 Z"
                   style="fill:#2d2c2c;fill-opacity:1;fill-rule:nonzero;stroke:none"
                   id="path214" /></g><g
                 transform="translate(407.6802,482.0498)"
                 id="g220"><path
                   d="M 0,0 V -66.25 L -129.98,-8.439 V 57.82 L -55.51,24.69 -0.5,0.22 Z"
                   style="fill:none;stroke:#2d2c2c;stroke-width:4;stroke-linecap:butt;stroke-linejoin:round;stroke-miterlimit:10;stroke-dasharray:none;stroke-opacity:1"
                   id="path218" /></g><g
                 transform="translate(472.2598,510.9199)"
                 id="g224"><path
                   d="m 0,0 v -66.26 l -64.58,-28.86 v 66.25 l 55.25,24.69 z"
                   style="fill:#2d2c2c;fill-opacity:1;fill-rule:nonzero;stroke:none"
                   id="path222" /></g><g
                 transform="translate(472.2598,510.9199)"
                 id="g228"><path
                   d="m 0,0 v -66.26 l -64.58,-28.86 v 66.25 l 55.25,24.69 z"
                   style="fill:none;stroke:#2d2c2c;stroke-width:4;stroke-linecap:butt;stroke-linejoin:round;stroke-miterlimit:10;stroke-dasharray:none;stroke-opacity:1"
                   id="path226" /></g><path
                 d="m 472.27,444.66 h -0.01 v 66.26 h 0.01 z"
                 style="fill:#2d2c2c;fill-opacity:1;fill-rule:nonzero;stroke:#2d2c2c;stroke-width:4;stroke-linecap:butt;stroke-linejoin:round;stroke-miterlimit:10;stroke-dasharray:none;stroke-opacity:1"
                 id="path230" /><g
                 transform="translate(601.8398,531.6797)"
                 id="g234"><path
                   d="m 0,0 c -15.5,0 -28.06,3.65 -28.06,8.15 v 12.21 c 0,4.491 12.56,8.14 28.06,8.14 15.5,0 28.07,-3.649 28.07,-8.14 V 8.15 C 28.07,3.65 15.51,0 0,0 m -36.27,36.44 c 0,-4.51 -12.56,-8.149 -28.07,-8.149 -15.5,0 -28.06,3.639 -28.06,8.149 v 12.2 c 0,4.5 12.56,8.151 28.06,8.151 15.5,0 28.07,-3.651 28.07,-8.151 z m -0.69,-56.799 c 0,-4.491 -12.56,-8.141 -28.06,-8.141 -15.51,0 -28.07,3.65 -28.07,8.141 V -8.14 c 0,4.491 12.56,8.14 28.07,8.14 15.49,0 28.06,-3.649 28.06,-8.14 z m -27.72,86.38 -64.89,-28.881 64.78,-28.95 -64.78,-28.95 9.37,-4.179 55.41,-24.641 0.11,-0.05 55.25,24.691 74.12,33.129 z"
                   style="fill:#2d2c2c;fill-opacity:1;fill-rule:nonzero;stroke:none"
                   id="path232" /></g><g
                 transform="translate(601.8398,531.6797)"
                 id="g238"><path
                   d="m 0,0 c -15.5,0 -28.06,3.65 -28.06,8.15 v 12.21 c 0,4.491 12.56,8.14 28.06,8.14 15.5,0 28.07,-3.649 28.07,-8.14 V 8.15 C 28.07,3.65 15.51,0 0,0 Z m -36.27,36.44 c 0,-4.51 -12.56,-8.149 -28.07,-8.149 -15.5,0 -28.06,3.639 -28.06,8.149 v 12.2 c 0,4.5 12.56,8.151 28.06,8.151 15.5,0 28.07,-3.651 28.07,-8.151 z m -0.69,-56.799 c 0,-4.491 -12.56,-8.141 -28.06,-8.141 -15.51,0 -28.07,3.65 -28.07,8.141 V -8.14 c 0,4.491 12.56,8.14 28.07,8.14 15.49,0 28.06,-3.649 28.06,-8.14 z m -27.72,86.38 -64.89,-28.881 64.78,-28.95 -64.78,-28.95 9.37,-4.179 55.41,-24.641 0.11,-0.05 55.25,24.691 74.12,33.129 z"
                   style="fill:none;stroke:#2d2c2c;stroke-width:4;stroke-linecap:butt;stroke-linejoin:round;stroke-miterlimit:10;stroke-dasharray:none;stroke-opacity:1"
                   id="path236" /></g><g
                 transform="translate(564.8799,523.54)"
                 id="g242"><path
                   d="m 0,0 v -12.22 c 0,-4.49 -12.56,-8.14 -28.06,-8.14 -15.51,0 -28.07,3.65 -28.07,8.14 V 0 c 0,-2.43 3.66,-4.62 9.49,-6.11 4.94,-1.27 11.44,-2.04 18.58,-2.04 7.121,0 13.621,0.77 18.57,2.04 C -3.68,-4.62 0,-2.43 0,0 Z"
                   style="fill:none;stroke:#2d2c2c;stroke-width:4;stroke-linecap:butt;stroke-linejoin:round;stroke-miterlimit:10;stroke-dasharray:none;stroke-opacity:1"
                   id="path240" /></g><g
                 transform="translate(565.5703,580.3198)"
                 id="g246"><path
                   d="m 0,0 c 0,-2.43 -3.66,-4.61 -9.46,-6.1 -4.94,-1.28 -11.471,-2.05 -18.61,-2.05 -7.14,0 -13.66,0.77 -18.6,2.05 -5.81,1.49 -9.46,3.67 -9.46,6.1 0,4.5 12.56,8.15 28.06,8.15 C -12.57,8.15 0,4.5 0,0"
                   style="fill:#2d2c2c;fill-opacity:1;fill-rule:nonzero;stroke:none"
                   id="path244" /></g><g
                 transform="translate(565.5703,580.3198)"
                 id="g250"><path
                   d="m 0,0 c 0,-2.43 -3.66,-4.61 -9.46,-6.1 -4.94,-1.28 -11.471,-2.05 -18.61,-2.05 -7.14,0 -13.66,0.77 -18.6,2.05 -5.81,1.49 -9.46,3.67 -9.46,6.1 0,4.5 12.56,8.15 28.06,8.15 C -12.57,8.15 0,4.5 0,0 Z"
                   style="fill:none;stroke:#2d2c2c;stroke-width:4;stroke-linecap:butt;stroke-linejoin:round;stroke-miterlimit:10;stroke-dasharray:none;stroke-opacity:1"
                   id="path248" /></g><g
                 transform="translate(629.9102,552.04)"
                 id="g254"><path
                   d="m 0,0 c 0,-2.43 -3.68,-4.62 -9.49,-6.11 -4.96,-1.27 -11.46,-2.04 -18.58,-2.04 -7.13,0 -13.63,0.77 -18.571,2.04 -5.829,1.49 -9.489,3.68 -9.489,6.11 0,4.49 12.56,8.14 28.06,8.14 C -12.57,8.14 0,4.49 0,0"
                   style="fill:#2d2c2c;fill-opacity:1;fill-rule:nonzero;stroke:none"
                   id="path252" /></g><g
                 transform="translate(629.9102,552.04)"
                 id="g258"><path
                   d="m 0,0 c 0,-2.43 -3.68,-4.62 -9.49,-6.11 -4.96,-1.27 -11.46,-2.04 -18.58,-2.04 -7.13,0 -13.63,0.77 -18.571,2.04 -5.829,1.49 -9.489,3.68 -9.489,6.11 0,4.49 12.56,8.14 28.06,8.14 C -12.57,8.14 0,4.49 0,0 Z"
                   style="fill:none;stroke:#2d2c2c;stroke-width:4;stroke-linecap:butt;stroke-linejoin:round;stroke-miterlimit:10;stroke-dasharray:none;stroke-opacity:1"
                   id="path256" /></g><g
                 transform="translate(564.8799,523.54)"
                 id="g262"><path
                   d="m 0,0 c 0,-2.43 -3.68,-4.62 -9.49,-6.11 -4.949,-1.27 -11.449,-2.04 -18.57,-2.04 -7.14,0 -13.64,0.77 -18.58,2.04 -5.83,1.49 -9.49,3.68 -9.49,6.11 0,4.49 12.56,8.14 28.07,8.14 C -12.57,8.14 0,4.49 0,0"
                   style="fill:#2d2c2c;fill-opacity:1;fill-rule:nonzero;stroke:none"
                   id="path260" /></g><g
                 transform="translate(564.8799,523.54)"
                 id="g266"><path
                   d="m 0,0 c 0,-2.43 -3.68,-4.62 -9.49,-6.11 -4.949,-1.27 -11.449,-2.04 -18.57,-2.04 -7.14,0 -13.64,0.77 -18.58,2.04 -5.83,1.49 -9.49,3.68 -9.49,6.11 0,4.49 12.56,8.14 28.07,8.14 C -12.57,8.14 0,4.49 0,0 Z"
                   style="fill:none;stroke:#2d2c2c;stroke-width:4;stroke-linecap:butt;stroke-linejoin:round;stroke-miterlimit:10;stroke-dasharray:none;stroke-opacity:1"
                   id="path264" /></g><g
                 transform="translate(629.9102,552.04)"
                 id="g270"><path
                   d="m 0,0 v -12.21 c 0,-4.5 -12.561,-8.15 -28.07,-8.15 -15.5,0 -28.06,3.65 -28.06,8.15 V 0 c 0,-2.43 3.66,-4.62 9.489,-6.11 4.941,-1.27 11.441,-2.04 18.571,-2.04 7.12,0 13.62,0.77 18.58,2.04 C -3.68,-4.62 0,-2.43 0,0 Z"
                   style="fill:none;stroke:#2d2c2c;stroke-width:4;stroke-linecap:butt;stroke-linejoin:round;stroke-miterlimit:10;stroke-dasharray:none;stroke-opacity:1"
                   id="path268" /></g><g
                 transform="translate(565.5703,580.3198)"
                 id="g274"><path
                   d="m 0,0 v -12.2 c 0,-4.51 -12.561,-8.15 -28.07,-8.15 -15.5,0 -28.06,3.64 -28.06,8.15 V 0 c 0,-2.43 3.65,-4.61 9.46,-6.1 4.94,-1.28 11.46,-2.05 18.6,-2.05 7.139,0 13.67,0.77 18.61,2.05 C -3.66,-4.61 0,-2.43 0,0 Z"
                   style="fill:none;stroke:#2d2c2c;stroke-width:4;stroke-linecap:butt;stroke-linejoin:round;stroke-miterlimit:10;stroke-dasharray:none;stroke-opacity:1"
                   id="path272" /></g><g
                 transform="translate(407.1802,539.8701)"
                 id="g278"><path
                   d="M 0,0 0.5,-0.22 V 0.22 Z"
                   style="fill:#2d2c2c;fill-opacity:1;fill-rule:nonzero;stroke:none"
                   id="path276" /></g><g
                 transform="translate(407.1802,539.8701)"
                 id="g282"><path
                   d="M 0,0 0.5,-0.22 V 0.22 Z"
                   style="fill:none;stroke:#2d2c2c;stroke-width:4;stroke-linecap:butt;stroke-linejoin:round;stroke-miterlimit:10;stroke-dasharray:none;stroke-opacity:1"
                   id="path280" /></g><g
                 transform="translate(472.3501,531.6797)"
                 id="g286"><path
                   d="m 0,0 c -15.51,0 -28.08,3.65 -28.08,8.15 v 12.21 c 0,4.491 12.57,8.14 28.07,8.14 15.5,0 28.06,-3.649 28.06,-8.14 V 8.3 C 28.07,8.24 28.07,8.2 28.07,8.15 28.07,3.65 15.49,0 0,0 M -0.08,37.14 -64.67,8.41 V 7.97 l 64.58,-28.73 h 0.01 L 64.7,8.19 Z"
                   style="fill:#2d2c2c;fill-opacity:1;fill-rule:nonzero;stroke:none"
                   id="path284" /></g><g
                 transform="translate(472.3501,531.6797)"
                 id="g290"><path
                   d="m 0,0 c -15.51,0 -28.08,3.65 -28.08,8.15 v 12.21 c 0,4.491 12.57,8.14 28.07,8.14 15.5,0 28.06,-3.649 28.06,-8.14 V 8.3 C 28.07,8.24 28.07,8.2 28.07,8.15 28.07,3.65 15.49,0 0,0 Z M -0.08,37.14 -64.67,8.41 V 7.97 l 64.58,-28.73 h 0.01 L 64.7,8.19 Z"
                   style="fill:none;stroke:#2d2c2c;stroke-width:4;stroke-linecap:butt;stroke-linejoin:round;stroke-miterlimit:10;stroke-dasharray:none;stroke-opacity:1"
                   id="path288" /></g><g
                 transform="translate(435.25,523.54)"
                 id="g294"><path
                   d="m 0,0 v -12.22 c 0,-4.49 -12.56,-8.14 -28.07,-8.14 -15.5,0 -28.06,3.65 -28.06,8.14 V 0 c 0,4.49 12.56,8.14 28.06,8.14 C -12.57,8.14 0,4.49 0,0 m -64.49,16.29 c 0,-4.5 -12.56,-8.15 -28.07,-8.15 -15.51,0 -28.06,3.65 -28.06,8.15 V 28.5 c 0,4.49 12.55,8.14 28.06,8.14 15.49,0 28.07,-3.65 28.07,-8.14 z m 8.36,40.49 c 0,4.5 12.56,8.15 28.06,8.15 15.5,0 28.07,-3.65 28.07,-8.15 v -12.2 c 0,-4.51 -12.56,-8.15 -28.07,-8.15 -15.5,0 -28.06,3.64 -28.06,8.15 z m 28.06,-40.45 0.5,0.22 64.59,28.73 -64.59,28.88 -129.98,-57.83 74.47,-33.13 55.01,-24.471 0.5,-0.219 55.25,24.69 9.33,4.18 -64.58,28.73 z"
                   style="fill:#2d2c2c;fill-opacity:1;fill-rule:nonzero;stroke:none"
                   id="path292" /></g><g
                 transform="translate(435.25,523.54)"
                 id="g298"><path
                   d="m 0,0 v -12.22 c 0,-4.49 -12.56,-8.14 -28.07,-8.14 -15.5,0 -28.06,3.65 -28.06,8.14 V 0 c 0,4.49 12.56,8.14 28.06,8.14 C -12.57,8.14 0,4.49 0,0 Z m -64.49,16.29 c 0,-4.5 -12.56,-8.15 -28.07,-8.15 -15.51,0 -28.06,3.65 -28.06,8.15 V 28.5 c 0,4.49 12.55,8.14 28.06,8.14 15.49,0 28.07,-3.65 28.07,-8.14 z m 8.36,40.49 c 0,4.5 12.56,8.15 28.06,8.15 15.5,0 28.07,-3.65 28.07,-8.15 v -12.2 c 0,-4.51 -12.56,-8.15 -28.07,-8.15 -15.5,0 -28.06,3.64 -28.06,8.15 z m 28.06,-40.45 0.5,0.22 64.59,28.73 -64.59,28.88 -129.98,-57.83 74.47,-33.13 55.01,-24.471 0.5,-0.219 55.25,24.69 9.33,4.18 -64.58,28.73 z"
                   style="fill:none;stroke:#2d2c2c;stroke-width:4;stroke-linecap:butt;stroke-linejoin:round;stroke-miterlimit:10;stroke-dasharray:none;stroke-opacity:1"
                   id="path296" /></g><g
                 transform="translate(435.25,523.54)"
                 id="g302"><path
                   d="m 0,0 c 0,-2.43 -3.68,-4.62 -9.49,-6.1 -4.94,-1.28 -11.44,-2.05 -18.58,-2.05 -7.13,0 -13.64,0.77 -18.57,2.04 -5.83,1.5 -9.49,3.68 -9.49,6.11 0,4.49 12.56,8.14 28.06,8.14 C -12.57,8.14 0,4.49 0,0"
                   style="fill:#2d2c2c;fill-opacity:1;fill-rule:nonzero;stroke:none"
                   id="path300" /></g><g
                 transform="translate(435.25,523.54)"
                 id="g306"><path
                   d="m 0,0 c 0,-2.43 -3.68,-4.62 -9.49,-6.1 -4.94,-1.28 -11.44,-2.05 -18.58,-2.05 -7.13,0 -13.64,0.77 -18.57,2.04 -5.83,1.5 -9.49,3.68 -9.49,6.11 0,4.49 12.56,8.14 28.06,8.14 C -12.57,8.14 0,4.49 0,0 Z"
                   style="fill:none;stroke:#2d2c2c;stroke-width:4;stroke-linecap:butt;stroke-linejoin:round;stroke-miterlimit:10;stroke-dasharray:none;stroke-opacity:1"
                   id="path304" /></g><g
                 transform="translate(435.25,580.3198)"
                 id="g310"><path
                   d="m 0,0 c 0,-2.43 -3.66,-4.61 -9.46,-6.1 -4.94,-1.28 -11.46,-2.05 -18.61,-2.05 -7.14,0 -13.66,0.77 -18.6,2.05 -5.81,1.49 -9.46,3.67 -9.46,6.1 0,4.5 12.56,8.15 28.06,8.15 C -12.57,8.15 0,4.5 0,0"
                   style="fill:#2d2c2c;fill-opacity:1;fill-rule:nonzero;stroke:none"
                   id="path308" /></g><g
                 transform="translate(435.25,580.3198)"
                 id="g314"><path
                   d="m 0,0 c 0,-2.43 -3.66,-4.61 -9.46,-6.1 -4.94,-1.28 -11.46,-2.05 -18.61,-2.05 -7.14,0 -13.66,0.77 -18.6,2.05 -5.81,1.49 -9.46,3.67 -9.46,6.1 0,4.5 12.56,8.15 28.06,8.15 C -12.57,8.15 0,4.5 0,0 Z"
                   style="fill:none;stroke:#2d2c2c;stroke-width:4;stroke-linecap:butt;stroke-linejoin:round;stroke-miterlimit:10;stroke-dasharray:none;stroke-opacity:1"
                   id="path312" /></g><g
                 transform="translate(370.7598,552.04)"
                 id="g318"><path
                   d="m 0,0 c 0,-2.43 -3.68,-4.62 -9.49,-6.11 -4.96,-1.27 -11.46,-2.04 -18.58,-2.04 -7.13,0 -13.63,0.77 -18.58,2.04 -5.82,1.49 -9.48,3.68 -9.48,6.11 0,4.49 12.55,8.14 28.06,8.14 C -12.58,8.14 0,4.49 0,0"
                   style="fill:#2d2c2c;fill-opacity:1;fill-rule:nonzero;stroke:none"
                   id="path316" /></g><g
                 transform="translate(370.7598,552.04)"
                 id="g322"><path
                   d="m 0,0 c 0,-2.43 -3.68,-4.62 -9.49,-6.11 -4.96,-1.27 -11.46,-2.04 -18.58,-2.04 -7.13,0 -13.63,0.77 -18.58,2.04 -5.82,1.49 -9.48,3.68 -9.48,6.11 0,4.49 12.55,8.14 28.06,8.14 C -12.58,8.14 0,4.49 0,0 Z"
                   style="fill:none;stroke:#2d2c2c;stroke-width:4;stroke-linecap:butt;stroke-linejoin:round;stroke-miterlimit:10;stroke-dasharray:none;stroke-opacity:1"
                   id="path320" /></g><g
                 transform="translate(435.25,580.3198)"
                 id="g326"><path
                   d="m 0,0 v -12.2 c 0,-4.51 -12.56,-8.15 -28.07,-8.15 -15.5,0 -28.06,3.64 -28.06,8.15 V 0 c 0,-2.43 3.65,-4.61 9.46,-6.1 4.94,-1.28 11.46,-2.05 18.6,-2.05 7.15,0 13.67,0.77 18.61,2.05 C -3.66,-4.61 0,-2.43 0,0 Z"
                   style="fill:none;stroke:#2d2c2c;stroke-width:4;stroke-linecap:butt;stroke-linejoin:round;stroke-miterlimit:10;stroke-dasharray:none;stroke-opacity:1"
                   id="path324" /></g><g
                 transform="translate(435.25,523.54)"
                 id="g330"><path
                   d="m 0,0 v -12.22 c 0,-4.49 -12.56,-8.14 -28.07,-8.14 -15.5,0 -28.06,3.65 -28.06,8.14 V 0 c 0,-2.43 3.66,-4.61 9.49,-6.11 4.93,-1.27 11.44,-2.04 18.57,-2.04 7.14,0 13.64,0.77 18.58,2.05 C -3.68,-4.62 0,-2.43 0,0 Z"
                   style="fill:none;stroke:#2d2c2c;stroke-width:4;stroke-linecap:butt;stroke-linejoin:round;stroke-miterlimit:10;stroke-dasharray:none;stroke-opacity:1"
                   id="path328" /></g><g
                 transform="translate(370.7598,552.04)"
                 id="g334"><path
                   d="m 0,0 v -12.21 c 0,-4.5 -12.56,-8.15 -28.07,-8.15 -15.51,0 -28.06,3.65 -28.06,8.15 V 0 c 0,-2.43 3.66,-4.62 9.48,-6.11 4.95,-1.27 11.45,-2.04 18.58,-2.04 7.12,0 13.62,0.77 18.58,2.04 C -3.68,-4.62 0,-2.43 0,0 Z"
                   style="fill:none;stroke:#2d2c2c;stroke-width:4;stroke-linecap:butt;stroke-linejoin:round;stroke-miterlimit:10;stroke-dasharray:none;stroke-opacity:1"
                   id="path332" /></g><g
                 transform="translate(500.3999,552.04)"
                 id="g338"><path
                   d="m 0,0 c 0,-2.43 -3.66,-4.61 -9.47,-6.1 -4.96,-1.28 -11.46,-2.05 -18.59,-2.05 -7.12,0 -13.62,0.77 -18.58,2.04 -5.81,1.49 -9.49,3.68 -9.49,6.11 0,4.49 12.57,8.14 28.07,8.14 C -12.56,8.14 0,4.49 0,0"
                   style="fill:#2d2c2c;fill-opacity:1;fill-rule:nonzero;stroke:none"
                   id="path336" /></g><g
                 transform="translate(500.3999,552.04)"
                 id="g342"><path
                   d="m 0,0 c 0,-4.5 -12.58,-8.15 -28.07,-8.15 -15.51,0 -28.08,3.65 -28.08,8.15 v 12.21 c 0,-2.43 3.68,-4.62 9.49,-6.11 4.96,-1.27 11.46,-2.04 18.58,-2.04 7.13,0 13.63,0.77 18.59,2.05 5.81,1.49 9.47,3.67 9.47,6.1 V 0.15 C 0,0.09 0,0.05 0,0 Z"
                   style="fill:none;stroke:#2d2c2c;stroke-width:4;stroke-linecap:butt;stroke-linejoin:round;stroke-miterlimit:10;stroke-dasharray:none;stroke-opacity:1"
                   id="path344" /><path
                   d="m 0,0 c 0,-2.43 -3.66,-4.61 -9.47,-6.1 -4.96,-1.28 -11.46,-2.05 -18.59,-2.05 -7.12,0 -13.62,0.77 -18.58,2.04 -5.81,1.49 -9.49,3.68 -9.49,6.11 0,4.49 12.57,8.14 28.07,8.14 C -12.56,8.14 0,4.49 0,0 Z"
                   style="fill:none;stroke:#2d2c2c;stroke-width:4;stroke-linecap:butt;stroke-linejoin:round;stroke-miterlimit:10;stroke-dasharray:none;stroke-opacity:1"
                   id="path340" /></g><g
                 transform="translate(500.4199,539.8301)"
                 id="g346" /><g
                 transform="translate(537.1602,482.0498)"
                 id="g350"><path
                   d="m 0,0 v -66.25 l -64.89,28.86 v 66.26 l 9.37,-4.18 55.41,-24.64 z"
                   style="fill:#2d2c2c;fill-opacity:1;fill-rule:nonzero;stroke:none"
                   id="path348" /></g><g
                 transform="translate(537.1602,482.0498)"
                 id="g354"><path
                   d="m 0,0 v -66.25 l -64.89,28.86 v 66.26 l 9.37,-4.18 55.41,-24.64 z"
                   style="fill:none;stroke:#2d2c2c;stroke-width:4;stroke-linecap:butt;stroke-linejoin:round;stroke-miterlimit:10;stroke-dasharray:none;stroke-opacity:1"
                   id="path352" /></g><path
                 d="m 472.27,444.66 h -0.01 v 66.26 h 0.01 z"
                 style="fill:#2d2c2c;fill-opacity:1;fill-rule:nonzero;stroke:#2d2c2c;stroke-width:4;stroke-linecap:butt;stroke-linejoin:round;stroke-miterlimit:10;stroke-dasharray:none;stroke-opacity:1"
                 id="path356" /><g
                 transform="translate(666.5303,539.8701)"
                 id="g360"><path
                   d="m 0,0 v -66.26 l -129.37,-57.81 v 66.25 l 55.25,24.69 z"
                   style="fill:#2d2c2c;fill-opacity:1;fill-rule:nonzero;stroke:none"
                   id="path358" /></g><g
                 transform="translate(666.5303,539.8701)"
                 id="g364"><path
                   d="m 0,0 v -66.26 l -129.37,-57.81 v 66.25 l 55.25,24.69 z"
                   style="fill:none;stroke:#2d2c2c;stroke-width:4;stroke-linecap:butt;stroke-linejoin:round;stroke-miterlimit:10;stroke-dasharray:none;stroke-opacity:1"
                   id="path362" /></g></g></g></g><g
           id="g370"
           transform="translate(497.4033,542.8257)"><path
             d="M 0,0 V 0.154"
             style="fill:none;stroke:#231f20;stroke-width:4;stroke-linecap:butt;stroke-linejoin:round;stroke-miterlimit:10;stroke-dasharray:none;stroke-opacity:1"
             id="path372" /></g><g
           id="g374"
           transform="translate(404.6802,485.0498)"><path
             d="M 0,0 V -66.25 L -129.98,-8.439 V 57.82 L -55.51,24.69 -0.5,0.22 Z"
             style="fill:#f36b30;fill-opacity:1;fill-rule:nonzero;stroke:none"
             id="path376" /></g><g
           id="g378"
           transform="translate(404.6802,485.0498)"><path
             d="M 0,0 V -66.25 L -129.98,-8.439 V 57.82 L -55.51,24.69 -0.5,0.22 Z"
             style="fill:none;stroke:#231f20;stroke-width:4;stroke-linecap:butt;stroke-linejoin:round;stroke-miterlimit:10;stroke-dasharray:none;stroke-opacity:1"
             id="path380" /></g><g
           id="g382"
           transform="translate(469.2598,513.9199)"><path
             d="m 0,0 v -66.26 l -64.58,-28.86 v 66.25 l 55.25,24.69 z"
             style="fill:#0096a3;fill-opacity:1;fill-rule:nonzero;stroke:none"
             id="path384" /></g><g
           id="g386"
           transform="translate(469.2598,513.9199)"><path
             d="m 0,0 v -66.26 l -64.58,-28.86 v 66.25 l 55.25,24.69 z"
             style="fill:none;stroke:#231f20;stroke-width:4;stroke-linecap:butt;stroke-linejoin:round;stroke-miterlimit:10;stroke-dasharray:none;stroke-opacity:1"
             id="path388" /></g><path
           d="m 469.27,447.66 h -0.01 v 66.26 h 0.01 z"
           style="fill:#f7931d;fill-opacity:1;fill-rule:nonzero;stroke:#231f20;stroke-width:4;stroke-linecap:butt;stroke-linejoin:round;stroke-miterlimit:10;stroke-dasharray:none;stroke-opacity:1"
           id="path390" /><g
           id="g392"
           transform="translate(598.8398,534.6797)"><path
             d="m 0,0 c -15.5,0 -28.06,3.65 -28.06,8.15 v 12.21 c 0,4.491 12.56,8.14 28.06,8.14 15.5,0 28.07,-3.649 28.07,-8.14 V 8.15 C 28.07,3.65 15.51,0 0,0 m -36.27,36.44 c 0,-4.51 -12.56,-8.149 -28.07,-8.149 -15.5,0 -28.06,3.639 -28.06,8.149 v 12.2 c 0,4.5 12.56,8.151 28.06,8.151 15.5,0 28.07,-3.651 28.07,-8.151 z m -0.69,-56.799 c 0,-4.491 -12.56,-8.141 -28.06,-8.141 -15.51,0 -28.07,3.65 -28.07,8.141 V -8.14 c 0,4.491 12.56,8.14 28.07,8.14 15.49,0 28.06,-3.649 28.06,-8.14 z m -27.72,86.38 -64.89,-28.881 64.78,-28.95 -64.78,-28.95 9.37,-4.179 55.41,-24.641 0.11,-0.05 55.25,24.691 74.12,33.129 z"
             style="fill:#8eb230;fill-opacity:1;fill-rule:nonzero;stroke:none"
             id="path394" /></g><g
           id="g396"
           transform="translate(598.8398,534.6797)"><path
             d="m 0,0 c -15.5,0 -28.06,3.65 -28.06,8.15 v 12.21 c 0,4.491 12.56,8.14 28.06,8.14 15.5,0 28.07,-3.649 28.07,-8.14 V 8.15 C 28.07,3.65 15.51,0 0,0 Z m -36.27,36.44 c 0,-4.51 -12.56,-8.149 -28.07,-8.149 -15.5,0 -28.06,3.639 -28.06,8.149 v 12.2 c 0,4.5 12.56,8.151 28.06,8.151 15.5,0 28.07,-3.651 28.07,-8.151 z m -0.69,-56.799 c 0,-4.491 -12.56,-8.141 -28.06,-8.141 -15.51,0 -28.07,3.65 -28.07,8.141 V -8.14 c 0,4.491 12.56,8.14 28.07,8.14 15.49,0 28.06,-3.649 28.06,-8.14 z m -27.72,86.38 -64.89,-28.881 64.78,-28.95 -64.78,-28.95 9.37,-4.179 55.41,-24.641 0.11,-0.05 55.25,24.691 74.12,33.129 z"
             style="fill:none;stroke:#231f20;stroke-width:4;stroke-linecap:butt;stroke-linejoin:round;stroke-miterlimit:10;stroke-dasharray:none;stroke-opacity:1"
             id="path398" /></g><g
           id="g400"
           transform="translate(561.8799,526.54)"><path
             d="m 0,0 v -12.22 c 0,-4.49 -12.56,-8.14 -28.06,-8.14 -15.51,0 -28.07,3.65 -28.07,8.14 V 0 c 0,-2.43 3.66,-4.62 9.49,-6.11 4.94,-1.27 11.44,-2.04 18.58,-2.04 7.12,0 13.621,0.77 18.57,2.04 C -3.68,-4.62 0,-2.43 0,0 Z"
             style="fill:none;stroke:#231f20;stroke-width:4;stroke-linecap:butt;stroke-linejoin:round;stroke-miterlimit:10;stroke-dasharray:none;stroke-opacity:1"
             id="path402" /></g><g
           id="g404"
           transform="translate(562.5703,583.3198)"><path
             d="m 0,0 c 0,-2.43 -3.66,-4.61 -9.46,-6.1 -4.94,-1.28 -11.471,-2.05 -18.61,-2.05 -7.14,0 -13.66,0.77 -18.6,2.05 -5.81,1.49 -9.46,3.67 -9.46,6.1 0,4.5 12.56,8.15 28.06,8.15 C -12.57,8.15 0,4.5 0,0"
             style="fill:#8eb230;fill-opacity:1;fill-rule:nonzero;stroke:none"
             id="path406" /></g><g
           id="g408"
           transform="translate(562.5703,583.3198)"><path
             d="m 0,0 c 0,-2.43 -3.66,-4.61 -9.46,-6.1 -4.94,-1.28 -11.471,-2.05 -18.61,-2.05 -7.14,0 -13.66,0.77 -18.6,2.05 -5.81,1.49 -9.46,3.67 -9.46,6.1 0,4.5 12.56,8.15 28.06,8.15 C -12.57,8.15 0,4.5 0,0 Z"
             style="fill:none;stroke:#231f20;stroke-width:4;stroke-linecap:butt;stroke-linejoin:round;stroke-miterlimit:10;stroke-dasharray:none;stroke-opacity:1"
             id="path410" /></g><g
           id="g412"
           transform="translate(626.9102,555.04)"><path
             d="m 0,0 c 0,-2.43 -3.68,-4.62 -9.49,-6.11 -4.96,-1.27 -11.46,-2.04 -18.58,-2.04 -7.13,0 -13.63,0.77 -18.571,2.04 -5.829,1.49 -9.489,3.68 -9.489,6.11 0,4.49 12.56,8.14 28.06,8.14 C -12.57,8.14 0,4.49 0,0"
             style="fill:#8eb230;fill-opacity:1;fill-rule:nonzero;stroke:none"
             id="path414" /></g><g
           id="g416"
           transform="translate(626.9102,555.04)"><path
             d="m 0,0 c 0,-2.43 -3.68,-4.62 -9.49,-6.11 -4.96,-1.27 -11.46,-2.04 -18.58,-2.04 -7.13,0 -13.63,0.77 -18.571,2.04 -5.829,1.49 -9.489,3.68 -9.489,6.11 0,4.49 12.56,8.14 28.06,8.14 C -12.57,8.14 0,4.49 0,0 Z"
             style="fill:none;stroke:#231f20;stroke-width:4;stroke-linecap:butt;stroke-linejoin:round;stroke-miterlimit:10;stroke-dasharray:none;stroke-opacity:1"
             id="path418" /></g><g
           id="g420"
           transform="translate(561.8799,526.54)"><path
             d="m 0,0 c 0,-2.43 -3.68,-4.62 -9.49,-6.11 -4.949,-1.27 -11.45,-2.04 -18.57,-2.04 -7.14,0 -13.64,0.77 -18.58,2.04 -5.83,1.49 -9.49,3.68 -9.49,6.11 0,4.49 12.56,8.14 28.07,8.14 C -12.57,8.14 0,4.49 0,0"
             style="fill:#8eb230;fill-opacity:1;fill-rule:nonzero;stroke:none"
             id="path422" /></g><g
           id="g424"
           transform="translate(561.8799,526.54)"><path
             d="m 0,0 c 0,-2.43 -3.68,-4.62 -9.49,-6.11 -4.949,-1.27 -11.45,-2.04 -18.57,-2.04 -7.14,0 -13.64,0.77 -18.58,2.04 -5.83,1.49 -9.49,3.68 -9.49,6.11 0,4.49 12.56,8.14 28.07,8.14 C -12.57,8.14 0,4.49 0,0 Z"
             style="fill:none;stroke:#231f20;stroke-width:4;stroke-linecap:butt;stroke-linejoin:round;stroke-miterlimit:10;stroke-dasharray:none;stroke-opacity:1"
             id="path426" /></g><g
           id="g428"
           transform="translate(626.9102,555.04)"><path
             d="m 0,0 v -12.21 c 0,-4.5 -12.561,-8.15 -28.07,-8.15 -15.5,0 -28.06,3.65 -28.06,8.15 V 0 c 0,-2.43 3.66,-4.62 9.489,-6.11 4.941,-1.27 11.441,-2.04 18.571,-2.04 7.12,0 13.62,0.77 18.58,2.04 C -3.68,-4.62 0,-2.43 0,0 Z"
             style="fill:none;stroke:#231f20;stroke-width:4;stroke-linecap:butt;stroke-linejoin:round;stroke-miterlimit:10;stroke-dasharray:none;stroke-opacity:1"
             id="path430" /></g><g
           id="g432"
           transform="translate(562.5703,583.3198)"><path
             d="m 0,0 v -12.2 c 0,-4.51 -12.561,-8.15 -28.07,-8.15 -15.5,0 -28.06,3.64 -28.06,8.15 V 0 c 0,-2.43 3.65,-4.61 9.46,-6.1 4.94,-1.28 11.46,-2.05 18.6,-2.05 7.139,0 13.67,0.77 18.61,2.05 C -3.66,-4.61 0,-2.43 0,0 Z"
             style="fill:none;stroke:#231f20;stroke-width:4;stroke-linecap:butt;stroke-linejoin:round;stroke-miterlimit:10;stroke-dasharray:none;stroke-opacity:1"
             id="path434" /></g><g
           id="g436"
           transform="translate(404.1802,542.8701)"><path
             d="M 0,0 0.5,-0.22 V 0.22 Z"
             style="fill:#f7931d;fill-opacity:1;fill-rule:nonzero;stroke:none"
             id="path438" /></g><g
           id="g440"
           transform="translate(404.1802,542.8701)"><path
             d="M 0,0 0.5,-0.22 V 0.22 Z"
             style="fill:none;stroke:#231f20;stroke-width:4;stroke-linecap:butt;stroke-linejoin:round;stroke-miterlimit:10;stroke-dasharray:none;stroke-opacity:1"
             id="path442" /></g><g
           id="g444"
           transform="translate(469.3501,534.6797)"><path
             d="m 0,0 c -15.51,0 -28.08,3.65 -28.08,8.15 v 12.21 c 0,4.491 12.57,8.14 28.07,8.14 15.5,0 28.06,-3.649 28.06,-8.14 V 8.3 C 28.07,8.24 28.07,8.2 28.07,8.15 28.07,3.65 15.49,0 0,0 M -0.08,37.14 -64.67,8.41 V 7.97 l 64.58,-28.73 h 0.01 L 64.7,8.19 Z"
             style="fill:#0096a3;fill-opacity:1;fill-rule:nonzero;stroke:none"
             id="path446" /></g><g
           id="g448"
           transform="translate(469.3501,534.6797)"><path
             d="m 0,0 c -15.51,0 -28.08,3.65 -28.08,8.15 v 12.21 c 0,4.491 12.57,8.14 28.07,8.14 15.5,0 28.06,-3.649 28.06,-8.14 V 8.3 C 28.07,8.24 28.07,8.2 28.07,8.15 28.07,3.65 15.49,0 0,0 Z M -0.08,37.14 -64.67,8.41 V 7.97 l 64.58,-28.73 h 0.01 L 64.7,8.19 Z"
             style="fill:none;stroke:#231f20;stroke-width:4;stroke-linecap:butt;stroke-linejoin:round;stroke-miterlimit:10;stroke-dasharray:none;stroke-opacity:1"
             id="path450" /></g><g
           id="g452"
           transform="translate(432.25,526.54)"><path
             d="m 0,0 v -12.22 c 0,-4.49 -12.56,-8.14 -28.07,-8.14 -15.5,0 -28.06,3.65 -28.06,8.14 V 0 c 0,4.49 12.56,8.14 28.06,8.14 C -12.57,8.14 0,4.49 0,0 m -64.49,16.29 c 0,-4.5 -12.56,-8.15 -28.07,-8.15 -15.51,0 -28.06,3.65 -28.06,8.15 V 28.5 c 0,4.49 12.55,8.14 28.06,8.14 15.49,0 28.07,-3.65 28.07,-8.14 z m 8.36,40.49 c 0,4.5 12.56,8.15 28.06,8.15 15.5,0 28.07,-3.65 28.07,-8.15 v -12.2 c 0,-4.51 -12.56,-8.15 -28.07,-8.15 -15.5,0 -28.06,3.64 -28.06,8.15 z m 28.06,-40.45 0.5,0.22 64.59,28.73 -64.59,28.88 -129.98,-57.83 74.47,-33.13 55.01,-24.471 0.5,-0.219 55.25,24.69 9.33,4.18 -64.58,28.73 z"
             style="fill:#f36b30;fill-opacity:1;fill-rule:nonzero;stroke:none"
             id="path454" /></g><g
           id="g456"
           transform="translate(432.25,526.54)"><path
             d="m 0,0 v -12.22 c 0,-4.49 -12.56,-8.14 -28.07,-8.14 -15.5,0 -28.06,3.65 -28.06,8.14 V 0 c 0,4.49 12.56,8.14 28.06,8.14 C -12.57,8.14 0,4.49 0,0 Z m -64.49,16.29 c 0,-4.5 -12.56,-8.15 -28.07,-8.15 -15.51,0 -28.06,3.65 -28.06,8.15 V 28.5 c 0,4.49 12.55,8.14 28.06,8.14 15.49,0 28.07,-3.65 28.07,-8.14 z m 8.36,40.49 c 0,4.5 12.56,8.15 28.06,8.15 15.5,0 28.07,-3.65 28.07,-8.15 v -12.2 c 0,-4.51 -12.56,-8.15 -28.07,-8.15 -15.5,0 -28.06,3.64 -28.06,8.15 z m 28.06,-40.45 0.5,0.22 64.59,28.73 -64.59,28.88 -129.98,-57.83 74.47,-33.13 55.01,-24.471 0.5,-0.219 55.25,24.69 9.33,4.18 -64.58,28.73 z"
             style="fill:none;stroke:#231f20;stroke-width:4;stroke-linecap:butt;stroke-linejoin:round;stroke-miterlimit:10;stroke-dasharray:none;stroke-opacity:1"
             id="path458" /></g><g
           id="g460"
           transform="translate(432.25,526.54)"><path
             d="m 0,0 c 0,-2.43 -3.68,-4.62 -9.49,-6.1 -4.94,-1.28 -11.44,-2.05 -18.58,-2.05 -7.13,0 -13.64,0.77 -18.57,2.04 -5.83,1.5 -9.49,3.68 -9.49,6.11 0,4.49 12.56,8.14 28.06,8.14 C -12.57,8.14 0,4.49 0,0"
             style="fill:#f36b30;fill-opacity:1;fill-rule:nonzero;stroke:none"
             id="path462" /></g><g
           id="g464"
           transform="translate(432.25,526.54)"><path
             d="m 0,0 c 0,-2.43 -3.68,-4.62 -9.49,-6.1 -4.94,-1.28 -11.44,-2.05 -18.58,-2.05 -7.13,0 -13.64,0.77 -18.57,2.04 -5.83,1.5 -9.49,3.68 -9.49,6.11 0,4.49 12.56,8.14 28.06,8.14 C -12.57,8.14 0,4.49 0,0 Z"
             style="fill:none;stroke:#231f20;stroke-width:4;stroke-linecap:butt;stroke-linejoin:round;stroke-miterlimit:10;stroke-dasharray:none;stroke-opacity:1"
             id="path466" /></g><g
           id="g468"
           transform="translate(432.25,583.3198)"><path
             d="m 0,0 c 0,-2.43 -3.66,-4.61 -9.46,-6.1 -4.94,-1.28 -11.46,-2.05 -18.61,-2.05 -7.14,0 -13.66,0.77 -18.6,2.05 -5.81,1.49 -9.46,3.67 -9.46,6.1 0,4.5 12.56,8.15 28.06,8.15 C -12.57,8.15 0,4.5 0,0"
             style="fill:#f36b30;fill-opacity:1;fill-rule:nonzero;stroke:none"
             id="path470" /></g><g
           id="g472"
           transform="translate(432.25,583.3198)"><path
             d="m 0,0 c 0,-2.43 -3.66,-4.61 -9.46,-6.1 -4.94,-1.28 -11.46,-2.05 -18.61,-2.05 -7.14,0 -13.66,0.77 -18.6,2.05 -5.81,1.49 -9.46,3.67 -9.46,6.1 0,4.5 12.56,8.15 28.06,8.15 C -12.57,8.15 0,4.5 0,0 Z"
             style="fill:none;stroke:#231f20;stroke-width:4;stroke-linecap:butt;stroke-linejoin:round;stroke-miterlimit:10;stroke-dasharray:none;stroke-opacity:1"
             id="path474" /></g><g
           id="g476"
           transform="translate(367.7598,555.04)"><path
             d="m 0,0 c 0,-2.43 -3.68,-4.62 -9.49,-6.11 -4.96,-1.27 -11.46,-2.04 -18.58,-2.04 -7.13,0 -13.63,0.77 -18.58,2.04 -5.82,1.49 -9.48,3.68 -9.48,6.11 0,4.49 12.55,8.14 28.06,8.14 C -12.58,8.14 0,4.49 0,0"
             style="fill:#f36b30;fill-opacity:1;fill-rule:nonzero;stroke:none"
             id="path478" /></g><g
           id="g480"
           transform="translate(367.7598,555.04)"><path
             d="m 0,0 c 0,-2.43 -3.68,-4.62 -9.49,-6.11 -4.96,-1.27 -11.46,-2.04 -18.58,-2.04 -7.13,0 -13.63,0.77 -18.58,2.04 -5.82,1.49 -9.48,3.68 -9.48,6.11 0,4.49 12.55,8.14 28.06,8.14 C -12.58,8.14 0,4.49 0,0 Z"
             style="fill:none;stroke:#231f20;stroke-width:4;stroke-linecap:butt;stroke-linejoin:round;stroke-miterlimit:10;stroke-dasharray:none;stroke-opacity:1"
             id="path482" /></g><g
           id="g484"
           transform="translate(432.25,583.3198)"><path
             d="m 0,0 v -12.2 c 0,-4.51 -12.56,-8.15 -28.07,-8.15 -15.5,0 -28.06,3.64 -28.06,8.15 V 0 c 0,-2.43 3.65,-4.61 9.46,-6.1 4.94,-1.28 11.46,-2.05 18.6,-2.05 7.15,0 13.67,0.77 18.61,2.05 C -3.66,-4.61 0,-2.43 0,0 Z"
             style="fill:none;stroke:#231f20;stroke-width:4;stroke-linecap:butt;stroke-linejoin:round;stroke-miterlimit:10;stroke-dasharray:none;stroke-opacity:1"
             id="path486" /></g><g
           id="g488"
           transform="translate(432.25,526.54)"><path
             d="m 0,0 v -12.22 c 0,-4.49 -12.56,-8.14 -28.07,-8.14 -15.5,0 -28.06,3.65 -28.06,8.14 V 0 c 0,-2.43 3.66,-4.61 9.49,-6.11 4.93,-1.27 11.44,-2.04 18.57,-2.04 7.14,0 13.64,0.77 18.58,2.05 C -3.68,-4.62 0,-2.43 0,0 Z"
             style="fill:none;stroke:#231f20;stroke-width:4;stroke-linecap:butt;stroke-linejoin:round;stroke-miterlimit:10;stroke-dasharray:none;stroke-opacity:1"
             id="path490" /></g><g
           id="g492"
           transform="translate(367.7598,555.04)"><path
             d="m 0,0 v -12.21 c 0,-4.5 -12.56,-8.15 -28.07,-8.15 -15.51,0 -28.06,3.65 -28.06,8.15 V 0 c 0,-2.43 3.66,-4.62 9.48,-6.11 4.95,-1.27 11.45,-2.04 18.58,-2.04 7.12,0 13.62,0.77 18.58,2.04 C -3.68,-4.62 0,-2.43 0,0 Z"
             style="fill:none;stroke:#231f20;stroke-width:4;stroke-linecap:butt;stroke-linejoin:round;stroke-miterlimit:10;stroke-dasharray:none;stroke-opacity:1"
             id="path494" /></g><g
           id="g496"
           transform="translate(497.3999,555.04)"><path
             d="m 0,0 c 0,-2.43 -3.66,-4.61 -9.47,-6.1 -4.96,-1.28 -11.46,-2.05 -18.59,-2.05 -7.12,0 -13.62,0.77 -18.58,2.04 -5.81,1.49 -9.49,3.68 -9.49,6.11 0,4.49 12.57,8.14 28.07,8.14 C -12.56,8.14 0,4.49 0,0"
             style="fill:#0096a3;fill-opacity:1;fill-rule:nonzero;stroke:none"
             id="path498" /></g><g
           id="g500"
           transform="translate(497.3999,555.04)"><path
             d="m 0,0 c 0,-2.43 -3.66,-4.61 -9.47,-6.1 -4.96,-1.28 -11.46,-2.05 -18.59,-2.05 -7.12,0 -13.62,0.77 -18.58,2.04 -5.81,1.49 -9.49,3.68 -9.49,6.11 0,4.49 12.57,8.14 28.07,8.14 C -12.56,8.14 0,4.49 0,0 Z"
             style="fill:none;stroke:#231f20;stroke-width:4;stroke-linecap:butt;stroke-linejoin:round;stroke-miterlimit:10;stroke-dasharray:none;stroke-opacity:1"
             id="path502" /></g><g
           id="g504"
           transform="translate(497.4199,542.8301)"><path
             d="m 0,0 c 0,-4.5 -12.58,-8.15 -28.07,-8.15 -15.51,0 -28.08,3.65 -28.08,8.15 v 12.21 c 0,-2.43 3.68,-4.62 9.49,-6.11 4.96,-1.27 11.46,-2.04 18.58,-2.04 7.13,0 13.63,0.77 18.59,2.05 5.81,1.49 9.47,3.67 9.47,6.1 V 0.15 C 0,0.09 0,0.05 0,0 Z"
             style="fill:none;stroke:#231f20;stroke-width:4;stroke-linecap:butt;stroke-linejoin:round;stroke-miterlimit:10;stroke-dasharray:none;stroke-opacity:1"
             id="path506" /></g><g
           id="g508"
           transform="translate(534.1602,485.0498)"><path
             d="m 0,0 v -66.25 l -64.89,28.86 v 66.26 l 9.37,-4.18 55.41,-24.64 z"
             style="fill:#0096a3;fill-opacity:1;fill-rule:nonzero;stroke:none"
             id="path510" /></g><g
           id="g512"
           transform="translate(534.1602,485.0498)"><path
             d="m 0,0 v -66.25 l -64.89,28.86 v 66.26 l 9.37,-4.18 55.41,-24.64 z"
             style="fill:none;stroke:#231f20;stroke-width:4;stroke-linecap:butt;stroke-linejoin:round;stroke-miterlimit:10;stroke-dasharray:none;stroke-opacity:1"
             id="path514" /></g><path
           d="m 469.27,447.66 h -0.01 v 66.26 h 0.01 z"
           style="fill:#f7931d;fill-opacity:1;fill-rule:nonzero;stroke:#231f20;stroke-width:4;stroke-linecap:butt;stroke-linejoin:round;stroke-miterlimit:10;stroke-dasharray:none;stroke-opacity:1"
           id="path516" /><g
           id="g518"
           transform="translate(663.5303,542.8701)"><path
             d="m 0,0 v -66.26 l -129.37,-57.81 v 66.25 l 55.25,24.69 z"
             style="fill:#8eb230;fill-opacity:1;fill-rule:nonzero;stroke:none"
             id="path520" /></g><g
           id="g522"
           transform="translate(663.5303,542.8701)"><path
             d="m 0,0 v -66.26 l -129.37,-57.81 v 66.25 l 55.25,24.69 z"
             style="fill:none;stroke:#231f20;stroke-width:4;stroke-linecap:butt;stroke-linejoin:round;stroke-miterlimit:10;stroke-dasharray:none;stroke-opacity:1"
             id="path524" /></g></g></g></g></svg>
