<?xml version="1.0" encoding="UTF-8" standalone="no"?>
<svg
   xmlns:dc="http://purl.org/dc/elements/1.1/"
   xmlns:cc="http://creativecommons.org/ns#"
   xmlns:rdf="http://www.w3.org/1999/02/22-rdf-syntax-ns#"
   xmlns:svg="http://www.w3.org/2000/svg"
   xmlns="http://www.w3.org/2000/svg"
   version="1.1"
   id="svg2"
   xml:space="preserve"
   width="139.63995mm"
   height="93.677849mm"
   viewBox="0 0 527.77305 354.05802"><metadata
     id="metadata8"><rdf:RDF><cc:Work
         rdf:about=""><dc:format>image/svg+xml</dc:format><dc:type
           rdf:resource="http://purl.org/dc/dcmitype/StillImage" /><dc:title></dc:title></cc:Work></rdf:RDF></metadata><defs
     id="defs6"><clipPath
       clipPathUnits="userSpaceOnUse"
       id="clipPath18"><path
         d="M 0,1080 H 1080 V 0 H 0 Z"
         id="path16" /></clipPath><clipPath
       clipPathUnits="userSpaceOnUse"
       id="clipPath26"><path
         d="M 79.8,982.92 H 669 V 686.52 H 79.8 Z"
         id="path24" /></clipPath><clipPath
       clipPathUnits="userSpaceOnUse"
       id="clipPath30"><path
         d="M 79.8,982.92 H 669 V 686.52 H 79.8 Z"
         id="path28" /></clipPath><clipPath
       clipPathUnits="userSpaceOnUse"
       id="clipPath200"><path
         d="M 0,1080 H 1080 V 0 H 0 Z"
         id="path198" /></clipPath><clipPath
       clipPathUnits="userSpaceOnUse"
       id="clipPath208"><path
         d="M 275.7,599.7 H 668.53 V 413.8 H 275.7 Z"
         id="path206" /></clipPath></defs><g
     id="g10"
     transform="matrix(1.3333333,0,0,-1.3333333,-363.60026,803.37051)"
     style="display:inline"><g
       id="g194"><g
         id="g196"
         clip-path="url(#clipPath200)"><g
           id="g202"><g
             id="g204" /><g
             id="g368"><g
               clip-path="url(#clipPath208)"
               opacity="0.399994"
               id="g366"><g
                 transform="translate(500.4033,539.8257)"
                 id="g212"><path
                   d="M 0,0 V 0.154"
                   style="fill:none;stroke:#2d2c2c;stroke-width:4;stroke-linecap:butt;stroke-linejoin:round;stroke-miterlimit:10;stroke-dasharray:none;stroke-opacity:1"
                   id="path210" /></g><g
                 transform="translate(407.6802,482.0498)"
                 id="g216"><path
                   d="M 0,0 V -66.25 L -129.98,-8.439 V 57.82 L -55.51,24.69 -0.5,0.22 Z"
                   style="fill:#2d2c2c;fill-opacity:1;fill-rule:nonzero;stroke:none"
                   id="path214" /></g><g
                 transform="translate(407.6802,482.0498)"
                 id="g220"><path
                   d="M 0,0 V -66.25 L -129.98,-8.439 V 57.82 L -55.51,24.69 -0.5,0.22 Z"
                   style="fill:none;stroke:#2d2c2c;stroke-width:4;stroke-linecap:butt;stroke-linejoin:round;stroke-miterlimit:10;stroke-dasharray:none;stroke-opacity:1"
                   id="path218" /></g><g
                 transform="translate(472.2598,510.9199)"
                 id="g224"><path
                   d="m 0,0 v -66.26 l -64.58,-28.86 v 66.25 l 55.25,24.69 z"
                   style="fill:#2d2c2c;fill-opacity:1;fill-rule:nonzero;stroke:none"
                   id="path222" /></g><g
                 transform="translate(472.2598,510.9199)"
                 id="g228"><path
                   d="m 0,0 v -66.26 l -64.58,-28.86 v 66.25 l 55.25,24.69 z"
                   style="fill:none;stroke:#2d2c2c;stroke-width:4;stroke-linecap:butt;stroke-linejoin:round;stroke-miterlimit:10;stroke-dasharray:none;stroke-opacity:1"
                   id="path226" /></g><path
                 d="m 472.27,444.66 h -0.01 v 66.26 h 0.01 z"
                 style="fill:#2d2c2c;fill-opacity:1;fill-rule:nonzero;stroke:#2d2c2c;stroke-width:4;stroke-linecap:butt;stroke-linejoin:round;stroke-miterlimit:10;stroke-dasharray:none;stroke-opacity:1"
                 id="path230" /><g
                 transform="translate(601.8398,531.6797)"
                 id="g234"><path
                   d="m 0,0 c -15.5,0 -28.06,3.65 -28.06,8.15 v 12.21 c 0,4.491 12.56,8.14 28.06,8.14 15.5,0 28.07,-3.649 28.07,-8.14 V 8.15 C 28.07,3.65 15.51,0 0,0 m -36.27,36.44 c 0,-4.51 -12.56,-8.149 -28.07,-8.149 -15.5,0 -28.06,3.639 -28.06,8.149 v 12.2 c 0,4.5 12.56,8.151 28.06,8.151 15.5,0 28.07,-3.651 28.07,-8.151 z m -0.69,-56.799 c 0,-4.491 -12.56,-8.141 -28.06,-8.141 -15.51,0 -28.07,3.65 -28.07,8.141 V -8.14 c 0,4.491 12.56,8.14 28.07,8.14 15.49,0 28.06,-3.649 28.06,-8.14 z m -27.72,86.38 -64.89,-28.881 64.78,-28.95 -64.78,-28.95 9.37,-4.179 55.41,-24.641 0.11,-0.05 55.25,24.691 74.12,33.129 z"
                   style="fill:#2d2c2c;fill-opacity:1;fill-rule:nonzero;stroke:none"
                   id="path232" /></g><g
                 transform="translate(601.8398,531.6797)"
                 id="g238"><path
                   d="m 0,0 c -15.5,0 -28.06,3.65 -28.06,8.15 v 12.21 c 0,4.491 12.56,8.14 28.06,8.14 15.5,0 28.07,-3.649 28.07,-8.14 V 8.15 C 28.07,3.65 15.51,0 0,0 Z m -36.27,36.44 c 0,-4.51 -12.56,-8.149 -28.07,-8.149 -15.5,0 -28.06,3.639 -28.06,8.149 v 12.2 c 0,4.5 12.56,8.151 28.06,8.151 15.5,0 28.07,-3.651 28.07,-8.151 z m -0.69,-56.799 c 0,-4.491 -12.56,-8.141 -28.06,-8.141 -15.51,0 -28.07,3.65 -28.07,8.141 V -8.14 c 0,4.491 12.56,8.14 28.07,8.14 15.49,0 28.06,-3.649 28.06,-8.14 z m -27.72,86.38 -64.89,-28.881 64.78,-28.95 -64.78,-28.95 9.37,-4.179 55.41,-24.641 0.11,-0.05 55.25,24.691 74.12,33.129 z"
                   style="fill:none;stroke:#2d2c2c;stroke-width:4;stroke-linecap:butt;stroke-linejoin:round;stroke-miterlimit:10;stroke-dasharray:none;stroke-opacity:1"
                   id="path236" /></g><g
                 transform="translate(564.8799,523.54)"
                 id="g242"><path
                   d="m 0,0 v -12.22 c 0,-4.49 -12.56,-8.14 -28.06,-8.14 -15.51,0 -28.07,3.65 -28.07,8.14 V 0 c 0,-2.43 3.66,-4.62 9.49,-6.11 4.94,-1.27 11.44,-2.04 18.58,-2.04 7.121,0 13.621,0.77 18.57,2.04 C -3.68,-4.62 0,-2.43 0,0 Z"
                   style="fill:none;stroke:#2d2c2c;stroke-width:4;stroke-linecap:butt;stroke-linejoin:round;stroke-miterlimit:10;stroke-dasharray:none;stroke-opacity:1"
                   id="path240" /></g><g
                 transform="translate(565.5703,580.3198)"
                 id="g246"><path
                   d="m 0,0 c 0,-2.43 -3.66,-4.61 -9.46,-6.1 -4.94,-1.28 -11.471,-2.05 -18.61,-2.05 -7.14,0 -13.66,0.77 -18.6,2.05 -5.81,1.49 -9.46,3.67 -9.46,6.1 0,4.5 12.56,8.15 28.06,8.15 C -12.57,8.15 0,4.5 0,0"
                   style="fill:#2d2c2c;fill-opacity:1;fill-rule:nonzero;stroke:none"
                   id="path244" /></g><g
                 transform="translate(565.5703,580.3198)"
                 id="g250"><path
                   d="m 0,0 c 0,-2.43 -3.66,-4.61 -9.46,-6.1 -4.94,-1.28 -11.471,-2.05 -18.61,-2.05 -7.14,0 -13.66,0.77 -18.6,2.05 -5.81,1.49 -9.46,3.67 -9.46,6.1 0,4.5 12.56,8.15 28.06,8.15 C -12.57,8.15 0,4.5 0,0 Z"
                   style="fill:none;stroke:#2d2c2c;stroke-width:4;stroke-linecap:butt;stroke-linejoin:round;stroke-miterlimit:10;stroke-dasharray:none;stroke-opacity:1"
                   id="path248" /></g><g
                 transform="translate(629.9102,552.04)"
                 id="g254"><path
                   d="m 0,0 c 0,-2.43 -3.68,-4.62 -9.49,-6.11 -4.96,-1.27 -11.46,-2.04 -18.58,-2.04 -7.13,0 -13.63,0.77 -18.571,2.04 -5.829,1.49 -9.489,3.68 -9.489,6.11 0,4.49 12.56,8.14 28.06,8.14 C -12.57,8.14 0,4.49 0,0"
                   style="fill:#2d2c2c;fill-opacity:1;fill-rule:nonzero;stroke:none"
                   id="path252" /></g><g
                 transform="translate(629.9102,552.04)"
                 id="g258"><path
                   d="m 0,0 c 0,-2.43 -3.68,-4.62 -9.49,-6.11 -4.96,-1.27 -11.46,-2.04 -18.58,-2.04 -7.13,0 -13.63,0.77 -18.571,2.04 -5.829,1.49 -9.489,3.68 -9.489,6.11 0,4.49 12.56,8.14 28.06,8.14 C -12.57,8.14 0,4.49 0,0 Z"
                   style="fill:none;stroke:#2d2c2c;stroke-width:4;stroke-linecap:butt;stroke-linejoin:round;stroke-miterlimit:10;stroke-dasharray:none;stroke-opacity:1"
                   id="path256" /></g><g
                 transform="translate(564.8799,523.54)"
                 id="g262"><path
                   d="m 0,0 c 0,-2.43 -3.68,-4.62 -9.49,-6.11 -4.949,-1.27 -11.449,-2.04 -18.57,-2.04 -7.14,0 -13.64,0.77 -18.58,2.04 -5.83,1.49 -9.49,3.68 -9.49,6.11 0,4.49 12.56,8.14 28.07,8.14 C -12.57,8.14 0,4.49 0,0"
                   style="fill:#2d2c2c;fill-opacity:1;fill-rule:nonzero;stroke:none"
                   id="path260" /></g><g
                 transform="translate(564.8799,523.54)"
                 id="g266"><path
                   d="m 0,0 c 0,-2.43 -3.68,-4.62 -9.49,-6.11 -4.949,-1.27 -11.449,-2.04 -18.57,-2.04 -7.14,0 -13.64,0.77 -18.58,2.04 -5.83,1.49 -9.49,3.68 -9.49,6.11 0,4.49 12.56,8.14 28.07,8.14 C -12.57,8.14 0,4.49 0,0 Z"
                   style="fill:none;stroke:#2d2c2c;stroke-width:4;stroke-linecap:butt;stroke-linejoin:round;stroke-miterlimit:10;stroke-dasharray:none;stroke-opacity:1"
                   id="path264" /></g><g
                 transform="translate(629.9102,552.04)"
                 id="g270"><path
                   d="m 0,0 v -12.21 c 0,-4.5 -12.561,-8.15 -28.07,-8.15 -15.5,0 -28.06,3.65 -28.06,8.15 V 0 c 0,-2.43 3.66,-4.62 9.489,-6.11 4.941,-1.27 11.441,-2.04 18.571,-2.04 7.12,0 13.62,0.77 18.58,2.04 C -3.68,-4.62 0,-2.43 0,0 Z"
                   style="fill:none;stroke:#2d2c2c;stroke-width:4;stroke-linecap:butt;stroke-linejoin:round;stroke-miterlimit:10;stroke-dasharray:none;stroke-opacity:1"
                   id="path268" /></g><g
                 transform="translate(565.5703,580.3198)"
                 id="g274"><path
                   d="m 0,0 v -12.2 c 0,-4.51 -12.561,-8.15 -28.07,-8.15 -15.5,0 -28.06,3.64 -28.06,8.15 V 0 c 0,-2.43 3.65,-4.61 9.46,-6.1 4.94,-1.28 11.46,-2.05 18.6,-2.05 7.139,0 13.67,0.77 18.61,2.05 C -3.66,-4.61 0,-2.43 0,0 Z"
                   style="fill:none;stroke:#2d2c2c;stroke-width:4;stroke-linecap:butt;stroke-linejoin:round;stroke-miterlimit:10;stroke-dasharray:none;stroke-opacity:1"
                   id="path272" /></g><g
                 transform="translate(407.1802,539.8701)"
                 id="g278"><path
                   d="M 0,0 0.5,-0.22 V 0.22 Z"
                   style="fill:#2d2c2c;fill-opacity:1;fill-rule:nonzero;stroke:none"
                   id="path276" /></g><g
                 transform="translate(407.1802,539.8701)"
                 id="g282"><path
                   d="M 0,0 0.5,-0.22 V 0.22 Z"
                   style="fill:none;stroke:#2d2c2c;stroke-width:4;stroke-linecap:butt;stroke-linejoin:round;stroke-miterlimit:10;stroke-dasharray:none;stroke-opacity:1"
                   id="path280" /></g><g
                 transform="translate(472.3501,531.6797)"
                 id="g286"><path
                   d="m 0,0 c -15.51,0 -28.08,3.65 -28.08,8.15 v 12.21 c 0,4.491 12.57,8.14 28.07,8.14 15.5,0 28.06,-3.649 28.06,-8.14 V 8.3 C 28.07,8.24 28.07,8.2 28.07,8.15 28.07,3.65 15.49,0 0,0 M -0.08,37.14 -64.67,8.41 V 7.97 l 64.58,-28.73 h 0.01 L 64.7,8.19 Z"
                   style="fill:#2d2c2c;fill-opacity:1;fill-rule:nonzero;stroke:none"
                   id="path284" /></g><g
                 transform="translate(472.3501,531.6797)"
                 id="g290"><path
                   d="m 0,0 c -15.51,0 -28.08,3.65 -28.08,8.15 v 12.21 c 0,4.491 12.57,8.14 28.07,8.14 15.5,0 28.06,-3.649 28.06,-8.14 V 8.3 C 28.07,8.24 28.07,8.2 28.07,8.15 28.07,3.65 15.49,0 0,0 Z M -0.08,37.14 -64.67,8.41 V 7.97 l 64.58,-28.73 h 0.01 L 64.7,8.19 Z"
                   style="fill:none;stroke:#2d2c2c;stroke-width:4;stroke-linecap:butt;stroke-linejoin:round;stroke-miterlimit:10;stroke-dasharray:none;stroke-opacity:1"
                   id="path288" /></g><g
                 transform="translate(435.25,523.54)"
                 id="g294"><path
                   d="m 0,0 v -12.22 c 0,-4.49 -12.56,-8.14 -28.07,-8.14 -15.5,0 -28.06,3.65 -28.06,8.14 V 0 c 0,4.49 12.56,8.14 28.06,8.14 C -12.57,8.14 0,4.49 0,0 m -64.49,16.29 c 0,-4.5 -12.56,-8.15 -28.07,-8.15 -15.51,0 -28.06,3.65 -28.06,8.15 V 28.5 c 0,4.49 12.55,8.14 28.06,8.14 15.49,0 28.07,-3.65 28.07,-8.14 z m 8.36,40.49 c 0,4.5 12.56,8.15 28.06,8.15 15.5,0 28.07,-3.65 28.07,-8.15 v -12.2 c 0,-4.51 -12.56,-8.15 -28.07,-8.15 -15.5,0 -28.06,3.64 -28.06,8.15 z m 28.06,-40.45 0.5,0.22 64.59,28.73 -64.59,28.88 -129.98,-57.83 74.47,-33.13 55.01,-24.471 0.5,-0.219 55.25,24.69 9.33,4.18 -64.58,28.73 z"
                   style="fill:#2d2c2c;fill-opacity:1;fill-rule:nonzero;stroke:none"
                   id="path292" /></g><g
                 transform="translate(435.25,523.54)"
                 id="g298"><path
                   d="m 0,0 v -12.22 c 0,-4.49 -12.56,-8.14 -28.07,-8.14 -15.5,0 -28.06,3.65 -28.06,8.14 V 0 c 0,4.49 12.56,8.14 28.06,8.14 C -12.57,8.14 0,4.49 0,0 Z m -64.49,16.29 c 0,-4.5 -12.56,-8.15 -28.07,-8.15 -15.51,0 -28.06,3.65 -28.06,8.15 V 28.5 c 0,4.49 12.55,8.14 28.06,8.14 15.49,0 28.07,-3.65 28.07,-8.14 z m 8.36,40.49 c 0,4.5 12.56,8.15 28.06,8.15 15.5,0 28.07,-3.65 28.07,-8.15 v -12.2 c 0,-4.51 -12.56,-8.15 -28.07,-8.15 -15.5,0 -28.06,3.64 -28.06,8.15 z m 28.06,-40.45 0.5,0.22 64.59,28.73 -64.59,28.88 -129.98,-57.83 74.47,-33.13 55.01,-24.471 0.5,-0.219 55.25,24.69 9.33,4.18 -64.58,28.73 z"
                   style="fill:none;stroke:#2d2c2c;stroke-width:4;stroke-linecap:butt;stroke-linejoin:round;stroke-miterlimit:10;stroke-dasharray:none;stroke-opacity:1"
                   id="path296" /></g><g
                 transform="translate(435.25,523.54)"
                 id="g302"><path
                   d="m 0,0 c 0,-2.43 -3.68,-4.62 -9.49,-6.1 -4.94,-1.28 -11.44,-2.05 -18.58,-2.05 -7.13,0 -13.64,0.77 -18.57,2.04 -5.83,1.5 -9.49,3.68 -9.49,6.11 0,4.49 12.56,8.14 28.06,8.14 C -12.57,8.14 0,4.49 0,0"
                   style="fill:#2d2c2c;fill-opacity:1;fill-rule:nonzero;stroke:none"
                   id="path300" /></g><g
                 transform="translate(435.25,523.54)"
                 id="g306"><path
                   d="m 0,0 c 0,-2.43 -3.68,-4.62 -9.49,-6.1 -4.94,-1.28 -11.44,-2.05 -18.58,-2.05 -7.13,0 -13.64,0.77 -18.57,2.04 -5.83,1.5 -9.49,3.68 -9.49,6.11 0,4.49 12.56,8.14 28.06,8.14 C -12.57,8.14 0,4.49 0,0 Z"
                   style="fill:none;stroke:#2d2c2c;stroke-width:4;stroke-linecap:butt;stroke-linejoin:round;stroke-miterlimit:10;stroke-dasharray:none;stroke-opacity:1"
                   id="path304" /></g><g
                 transform="translate(435.25,580.3198)"
                 id="g310"><path
                   d="m 0,0 c 0,-2.43 -3.66,-4.61 -9.46,-6.1 -4.94,-1.28 -11.46,-2.05 -18.61,-2.05 -7.14,0 -13.66,0.77 -18.6,2.05 -5.81,1.49 -9.46,3.67 -9.46,6.1 0,4.5 12.56,8.15 28.06,8.15 C -12.57,8.15 0,4.5 0,0"
                   style="fill:#2d2c2c;fill-opacity:1;fill-rule:nonzero;stroke:none"
                   id="path308" /></g><g
                 transform="translate(435.25,580.3198)"
                 id="g314"><path
                   d="m 0,0 c 0,-2.43 -3.66,-4.61 -9.46,-6.1 -4.94,-1.28 -11.46,-2.05 -18.61,-2.05 -7.14,0 -13.66,0.77 -18.6,2.05 -5.81,1.49 -9.46,3.67 -9.46,6.1 0,4.5 12.56,8.15 28.06,8.15 C -12.57,8.15 0,4.5 0,0 Z"
                   style="fill:none;stroke:#2d2c2c;stroke-width:4;stroke-linecap:butt;stroke-linejoin:round;stroke-miterlimit:10;stroke-dasharray:none;stroke-opacity:1"
                   id="path312" /></g><g
                 transform="translate(370.7598,552.04)"
                 id="g318"><path
                   d="m 0,0 c 0,-2.43 -3.68,-4.62 -9.49,-6.11 -4.96,-1.27 -11.46,-2.04 -18.58,-2.04 -7.13,0 -13.63,0.77 -18.58,2.04 -5.82,1.49 -9.48,3.68 -9.48,6.11 0,4.49 12.55,8.14 28.06,8.14 C -12.58,8.14 0,4.49 0,0"
                   style="fill:#2d2c2c;fill-opacity:1;fill-rule:nonzero;stroke:none"
                   id="path316" /></g><g
                 transform="translate(370.7598,552.04)"
                 id="g322"><path
                   d="m 0,0 c 0,-2.43 -3.68,-4.62 -9.49,-6.11 -4.96,-1.27 -11.46,-2.04 -18.58,-2.04 -7.13,0 -13.63,0.77 -18.58,2.04 -5.82,1.49 -9.48,3.68 -9.48,6.11 0,4.49 12.55,8.14 28.06,8.14 C -12.58,8.14 0,4.49 0,0 Z"
                   style="fill:none;stroke:#2d2c2c;stroke-width:4;stroke-linecap:butt;stroke-linejoin:round;stroke-miterlimit:10;stroke-dasharray:none;stroke-opacity:1"
                   id="path320" /></g><g
                 transform="translate(435.25,580.3198)"
                 id="g326"><path
                   d="m 0,0 v -12.2 c 0,-4.51 -12.56,-8.15 -28.07,-8.15 -15.5,0 -28.06,3.64 -28.06,8.15 V 0 c 0,-2.43 3.65,-4.61 9.46,-6.1 4.94,-1.28 11.46,-2.05 18.6,-2.05 7.15,0 13.67,0.77 18.61,2.05 C -3.66,-4.61 0,-2.43 0,0 Z"
                   style="fill:none;stroke:#2d2c2c;stroke-width:4;stroke-linecap:butt;stroke-linejoin:round;stroke-miterlimit:10;stroke-dasharray:none;stroke-opacity:1"
                   id="path324" /></g><g
                 transform="translate(435.25,523.54)"
                 id="g330"><path
                   d="m 0,0 v -12.22 c 0,-4.49 -12.56,-8.14 -28.07,-8.14 -15.5,0 -28.06,3.65 -28.06,8.14 V 0 c 0,-2.43 3.66,-4.61 9.49,-6.11 4.93,-1.27 11.44,-2.04 18.57,-2.04 7.14,0 13.64,0.77 18.58,2.05 C -3.68,-4.62 0,-2.43 0,0 Z"
                   style="fill:none;stroke:#2d2c2c;stroke-width:4;stroke-linecap:butt;stroke-linejoin:round;stroke-miterlimit:10;stroke-dasharray:none;stroke-opacity:1"
                   id="path328" /></g><g
                 transform="translate(370.7598,552.04)"
                 id="g334"><path
                   d="m 0,0 v -12.21 c 0,-4.5 -12.56,-8.15 -28.07,-8.15 -15.51,0 -28.06,3.65 -28.06,8.15 V 0 c 0,-2.43 3.66,-4.62 9.48,-6.11 4.95,-1.27 11.45,-2.04 18.58,-2.04 7.12,0 13.62,0.77 18.58,2.04 C -3.68,-4.62 0,-2.43 0,0 Z"
                   style="fill:none;stroke:#2d2c2c;stroke-width:4;stroke-linecap:butt;stroke-linejoin:round;stroke-miterlimit:10;stroke-dasharray:none;stroke-opacity:1"
                   id="path332" /></g><g
                 transform="translate(500.3999,552.04)"
                 id="g338"><path
                   d="m 0,0 c 0,-2.43 -3.66,-4.61 -9.47,-6.1 -4.96,-1.28 -11.46,-2.05 -18.59,-2.05 -7.12,0 -13.62,0.77 -18.58,2.04 -5.81,1.49 -9.49,3.68 -9.49,6.11 0,4.49 12.57,8.14 28.07,8.14 C -12.56,8.14 0,4.49 0,0"
                   style="fill:#2d2c2c;fill-opacity:1;fill-rule:nonzero;stroke:none"
                   id="path336" /></g><g
                 transform="translate(500.3999,552.04)"
                 id="g342"><path
                   d="m 0,0 c 0,-4.5 -12.58,-8.15 -28.07,-8.15 -15.51,0 -28.08,3.65 -28.08,8.15 v 12.21 c 0,-2.43 3.68,-4.62 9.49,-6.11 4.96,-1.27 11.46,-2.04 18.58,-2.04 7.13,0 13.63,0.77 18.59,2.05 5.81,1.49 9.47,3.67 9.47,6.1 V 0.15 C 0,0.09 0,0.05 0,0 Z"
                   style="fill:none;stroke:#2d2c2c;stroke-width:4;stroke-linecap:butt;stroke-linejoin:round;stroke-miterlimit:10;stroke-dasharray:none;stroke-opacity:1"
                   id="path344" /><path
                   d="m 0,0 c 0,-2.43 -3.66,-4.61 -9.47,-6.1 -4.96,-1.28 -11.46,-2.05 -18.59,-2.05 -7.12,0 -13.62,0.77 -18.58,2.04 -5.81,1.49 -9.49,3.68 -9.49,6.11 0,4.49 12.57,8.14 28.07,8.14 C -12.56,8.14 0,4.49 0,0 Z"
                   style="fill:none;stroke:#2d2c2c;stroke-width:4;stroke-linecap:butt;stroke-linejoin:round;stroke-miterlimit:10;stroke-dasharray:none;stroke-opacity:1"
                   id="path340" /></g><g
                 transform="translate(500.4199,539.8301)"
                 id="g346" /><g
                 transform="translate(537.1602,482.0498)"
                 id="g350"><path
                   d="m 0,0 v -66.25 l -64.89,28.86 v 66.26 l 9.37,-4.18 55.41,-24.64 z"
                   style="fill:#2d2c2c;fill-opacity:1;fill-rule:nonzero;stroke:none"
                   id="path348" /></g><g
                 transform="translate(537.1602,482.0498)"
                 id="g354"><path
                   d="m 0,0 v -66.25 l -64.89,28.86 v 66.26 l 9.37,-4.18 55.41,-24.64 z"
                   style="fill:none;stroke:#2d2c2c;stroke-width:4;stroke-linecap:butt;stroke-linejoin:round;stroke-miterlimit:10;stroke-dasharray:none;stroke-opacity:1"
                   id="path352" /></g><path
                 d="m 472.27,444.66 h -0.01 v 66.26 h 0.01 z"
                 style="fill:#2d2c2c;fill-opacity:1;fill-rule:nonzero;stroke:#2d2c2c;stroke-width:4;stroke-linecap:butt;stroke-linejoin:round;stroke-miterlimit:10;stroke-dasharray:none;stroke-opacity:1"
                 id="path356" /><g
                 transform="translate(666.5303,539.8701)"
                 id="g360"><path
                   d="m 0,0 v -66.26 l -129.37,-57.81 v 66.25 l 55.25,24.69 z"
                   style="fill:#2d2c2c;fill-opacity:1;fill-rule:nonzero;stroke:none"
                   id="path358" /></g><g
                 transform="translate(666.5303,539.8701)"
                 id="g364"><path
                   d="m 0,0 v -66.26 l -129.37,-57.81 v 66.25 l 55.25,24.69 z"
                   style="fill:none;stroke:#2d2c2c;stroke-width:4;stroke-linecap:butt;stroke-linejoin:round;stroke-miterlimit:10;stroke-dasharray:none;stroke-opacity:1"
                   id="path362" /></g></g></g></g><g
           id="g370"
           transform="translate(497.4033,542.8257)"><path
             d="M 0,0 V 0.154"
             style="fill:none;stroke:#231f20;stroke-width:4;stroke-linecap:butt;stroke-linejoin:round;stroke-miterlimit:10;stroke-dasharray:none;stroke-opacity:1"
             id="path372" /></g><g
           id="g374"
           transform="translate(404.6802,485.0498)"><path
             d="M 0,0 V -66.25 L -129.98,-8.439 V 57.82 L -55.51,24.69 -0.5,0.22 Z"
             style="fill:#f36b30;fill-opacity:1;fill-rule:nonzero;stroke:none"
             id="path376" /></g><g
           id="g378"
           transform="translate(404.6802,485.0498)"><path
             d="M 0,0 V -66.25 L -129.98,-8.439 V 57.82 L -55.51,24.69 -0.5,0.22 Z"
             style="fill:none;stroke:#231f20;stroke-width:4;stroke-linecap:butt;stroke-linejoin:round;stroke-miterlimit:10;stroke-dasharray:none;stroke-opacity:1"
             id="path380" /></g><g
           id="g382"
           transform="translate(469.2598,513.9199)"><path
             d="m 0,0 v -66.26 l -64.58,-28.86 v 66.25 l 55.25,24.69 z"
             style="fill:#0096a3;fill-opacity:1;fill-rule:nonzero;stroke:none"
             id="path384" /></g><g
           id="g386"
           transform="translate(469.2598,513.9199)"><path
             d="m 0,0 v -66.26 l -64.58,-28.86 v 66.25 l 55.25,24.69 z"
             style="fill:none;stroke:#231f20;stroke-width:4;stroke-linecap:butt;stroke-linejoin:round;stroke-miterlimit:10;stroke-dasharray:none;stroke-opacity:1"
             id="path388" /></g><path
           d="m 469.27,447.66 h -0.01 v 66.26 h 0.01 z"
           style="fill:#f7931d;fill-opacity:1;fill-rule:nonzero;stroke:#231f20;stroke-width:4;stroke-linecap:butt;stroke-linejoin:round;stroke-miterlimit:10;stroke-dasharray:none;stroke-opacity:1"
           id="path390" /><g
           id="g392"
           transform="translate(598.8398,534.6797)"><path
             d="m 0,0 c -15.5,0 -28.06,3.65 -28.06,8.15 v 12.21 c 0,4.491 12.56,8.14 28.06,8.14 15.5,0 28.07,-3.649 28.07,-8.14 V 8.15 C 28.07,3.65 15.51,0 0,0 m -36.27,36.44 c 0,-4.51 -12.56,-8.149 -28.07,-8.149 -15.5,0 -28.06,3.639 -28.06,8.149 v 12.2 c 0,4.5 12.56,8.151 28.06,8.151 15.5,0 28.07,-3.651 28.07,-8.151 z m -0.69,-56.799 c 0,-4.491 -12.56,-8.141 -28.06,-8.141 -15.51,0 -28.07,3.65 -28.07,8.141 V -8.14 c 0,4.491 12.56,8.14 28.07,8.14 15.49,0 28.06,-3.649 28.06,-8.14 z m -27.72,86.38 -64.89,-28.881 64.78,-28.95 -64.78,-28.95 9.37,-4.179 55.41,-24.641 0.11,-0.05 55.25,24.691 74.12,33.129 z"
             style="fill:#8eb230;fill-opacity:1;fill-rule:nonzero;stroke:none"
             id="path394" /></g><g
           id="g396"
           transform="translate(598.8398,534.6797)"><path
             d="m 0,0 c -15.5,0 -28.06,3.65 -28.06,8.15 v 12.21 c 0,4.491 12.56,8.14 28.06,8.14 15.5,0 28.07,-3.649 28.07,-8.14 V 8.15 C 28.07,3.65 15.51,0 0,0 Z m -36.27,36.44 c 0,-4.51 -12.56,-8.149 -28.07,-8.149 -15.5,0 -28.06,3.639 -28.06,8.149 v 12.2 c 0,4.5 12.56,8.151 28.06,8.151 15.5,0 28.07,-3.651 28.07,-8.151 z m -0.69,-56.799 c 0,-4.491 -12.56,-8.141 -28.06,-8.141 -15.51,0 -28.07,3.65 -28.07,8.141 V -8.14 c 0,4.491 12.56,8.14 28.07,8.14 15.49,0 28.06,-3.649 28.06,-8.14 z m -27.72,86.38 -64.89,-28.881 64.78,-28.95 -64.78,-28.95 9.37,-4.179 55.41,-24.641 0.11,-0.05 55.25,24.691 74.12,33.129 z"
             style="fill:none;stroke:#231f20;stroke-width:4;stroke-linecap:butt;stroke-linejoin:round;stroke-miterlimit:10;stroke-dasharray:none;stroke-opacity:1"
             id="path398" /></g><g
           id="g400"
           transform="translate(561.8799,526.54)"><path
             d="m 0,0 v -12.22 c 0,-4.49 -12.56,-8.14 -28.06,-8.14 -15.51,0 -28.07,3.65 -28.07,8.14 V 0 c 0,-2.43 3.66,-4.62 9.49,-6.11 4.94,-1.27 11.44,-2.04 18.58,-2.04 7.12,0 13.621,0.77 18.57,2.04 C -3.68,-4.62 0,-2.43 0,0 Z"
             style="fill:none;stroke:#231f20;stroke-width:4;stroke-linecap:butt;stroke-linejoin:round;stroke-miterlimit:10;stroke-dasharray:none;stroke-opacity:1"
             id="path402" /></g><g
           id="g404"
           transform="translate(562.5703,583.3198)"><path
             d="m 0,0 c 0,-2.43 -3.66,-4.61 -9.46,-6.1 -4.94,-1.28 -11.471,-2.05 -18.61,-2.05 -7.14,0 -13.66,0.77 -18.6,2.05 -5.81,1.49 -9.46,3.67 -9.46,6.1 0,4.5 12.56,8.15 28.06,8.15 C -12.57,8.15 0,4.5 0,0"
             style="fill:#8eb230;fill-opacity:1;fill-rule:nonzero;stroke:none"
             id="path406" /></g><g
           id="g408"
           transform="translate(562.5703,583.3198)"><path
             d="m 0,0 c 0,-2.43 -3.66,-4.61 -9.46,-6.1 -4.94,-1.28 -11.471,-2.05 -18.61,-2.05 -7.14,0 -13.66,0.77 -18.6,2.05 -5.81,1.49 -9.46,3.67 -9.46,6.1 0,4.5 12.56,8.15 28.06,8.15 C -12.57,8.15 0,4.5 0,0 Z"
             style="fill:none;stroke:#231f20;stroke-width:4;stroke-linecap:butt;stroke-linejoin:round;stroke-miterlimit:10;stroke-dasharray:none;stroke-opacity:1"
             id="path410" /></g><g
           id="g412"
           transform="translate(626.9102,555.04)"><path
             d="m 0,0 c 0,-2.43 -3.68,-4.62 -9.49,-6.11 -4.96,-1.27 -11.46,-2.04 -18.58,-2.04 -7.13,0 -13.63,0.77 -18.571,2.04 -5.829,1.49 -9.489,3.68 -9.489,6.11 0,4.49 12.56,8.14 28.06,8.14 C -12.57,8.14 0,4.49 0,0"
             style="fill:#8eb230;fill-opacity:1;fill-rule:nonzero;stroke:none"
             id="path414" /></g><g
           id="g416"
           transform="translate(626.9102,555.04)"><path
             d="m 0,0 c 0,-2.43 -3.68,-4.62 -9.49,-6.11 -4.96,-1.27 -11.46,-2.04 -18.58,-2.04 -7.13,0 -13.63,0.77 -18.571,2.04 -5.829,1.49 -9.489,3.68 -9.489,6.11 0,4.49 12.56,8.14 28.06,8.14 C -12.57,8.14 0,4.49 0,0 Z"
             style="fill:none;stroke:#231f20;stroke-width:4;stroke-linecap:butt;stroke-linejoin:round;stroke-miterlimit:10;stroke-dasharray:none;stroke-opacity:1"
             id="path418" /></g><g
           id="g420"
           transform="translate(561.8799,526.54)"><path
             d="m 0,0 c 0,-2.43 -3.68,-4.62 -9.49,-6.11 -4.949,-1.27 -11.45,-2.04 -18.57,-2.04 -7.14,0 -13.64,0.77 -18.58,2.04 -5.83,1.49 -9.49,3.68 -9.49,6.11 0,4.49 12.56,8.14 28.07,8.14 C -12.57,8.14 0,4.49 0,0"
             style="fill:#8eb230;fill-opacity:1;fill-rule:nonzero;stroke:none"
             id="path422" /></g><g
           id="g424"
           transform="translate(561.8799,526.54)"><path
             d="m 0,0 c 0,-2.43 -3.68,-4.62 -9.49,-6.11 -4.949,-1.27 -11.45,-2.04 -18.57,-2.04 -7.14,0 -13.64,0.77 -18.58,2.04 -5.83,1.49 -9.49,3.68 -9.49,6.11 0,4.49 12.56,8.14 28.07,8.14 C -12.57,8.14 0,4.49 0,0 Z"
             style="fill:none;stroke:#231f20;stroke-width:4;stroke-linecap:butt;stroke-linejoin:round;stroke-miterlimit:10;stroke-dasharray:none;stroke-opacity:1"
             id="path426" /></g><g
           id="g428"
           transform="translate(626.9102,555.04)"><path
             d="m 0,0 v -12.21 c 0,-4.5 -12.561,-8.15 -28.07,-8.15 -15.5,0 -28.06,3.65 -28.06,8.15 V 0 c 0,-2.43 3.66,-4.62 9.489,-6.11 4.941,-1.27 11.441,-2.04 18.571,-2.04 7.12,0 13.62,0.77 18.58,2.04 C -3.68,-4.62 0,-2.43 0,0 Z"
             style="fill:none;stroke:#231f20;stroke-width:4;stroke-linecap:butt;stroke-linejoin:round;stroke-miterlimit:10;stroke-dasharray:none;stroke-opacity:1"
             id="path430" /></g><g
           id="g432"
           transform="translate(562.5703,583.3198)"><path
             d="m 0,0 v -12.2 c 0,-4.51 -12.561,-8.15 -28.07,-8.15 -15.5,0 -28.06,3.64 -28.06,8.15 V 0 c 0,-2.43 3.65,-4.61 9.46,-6.1 4.94,-1.28 11.46,-2.05 18.6,-2.05 7.139,0 13.67,0.77 18.61,2.05 C -3.66,-4.61 0,-2.43 0,0 Z"
             style="fill:none;stroke:#231f20;stroke-width:4;stroke-linecap:butt;stroke-linejoin:round;stroke-miterlimit:10;stroke-dasharray:none;stroke-opacity:1"
             id="path434" /></g><g
           id="g436"
           transform="translate(404.1802,542.8701)"><path
             d="M 0,0 0.5,-0.22 V 0.22 Z"
             style="fill:#f7931d;fill-opacity:1;fill-rule:nonzero;stroke:none"
             id="path438" /></g><g
           id="g440"
           transform="translate(404.1802,542.8701)"><path
             d="M 0,0 0.5,-0.22 V 0.22 Z"
             style="fill:none;stroke:#231f20;stroke-width:4;stroke-linecap:butt;stroke-linejoin:round;stroke-miterlimit:10;stroke-dasharray:none;stroke-opacity:1"
             id="path442" /></g><g
           id="g444"
           transform="translate(469.3501,534.6797)"><path
             d="m 0,0 c -15.51,0 -28.08,3.65 -28.08,8.15 v 12.21 c 0,4.491 12.57,8.14 28.07,8.14 15.5,0 28.06,-3.649 28.06,-8.14 V 8.3 C 28.07,8.24 28.07,8.2 28.07,8.15 28.07,3.65 15.49,0 0,0 M -0.08,37.14 -64.67,8.41 V 7.97 l 64.58,-28.73 h 0.01 L 64.7,8.19 Z"
             style="fill:#0096a3;fill-opacity:1;fill-rule:nonzero;stroke:none"
             id="path446" /></g><g
           id="g448"
           transform="translate(469.3501,534.6797)"><path
             d="m 0,0 c -15.51,0 -28.08,3.65 -28.08,8.15 v 12.21 c 0,4.491 12.57,8.14 28.07,8.14 15.5,0 28.06,-3.649 28.06,-8.14 V 8.3 C 28.07,8.24 28.07,8.2 28.07,8.15 28.07,3.65 15.49,0 0,0 Z M -0.08,37.14 -64.67,8.41 V 7.97 l 64.58,-28.73 h 0.01 L 64.7,8.19 Z"
             style="fill:none;stroke:#231f20;stroke-width:4;stroke-linecap:butt;stroke-linejoin:round;stroke-miterlimit:10;stroke-dasharray:none;stroke-opacity:1"
             id="path450" /></g><g
           id="g452"
           transform="translate(432.25,526.54)"><path
             d="m 0,0 v -12.22 c 0,-4.49 -12.56,-8.14 -28.07,-8.14 -15.5,0 -28.06,3.65 -28.06,8.14 V 0 c 0,4.49 12.56,8.14 28.06,8.14 C -12.57,8.14 0,4.49 0,0 m -64.49,16.29 c 0,-4.5 -12.56,-8.15 -28.07,-8.15 -15.51,0 -28.06,3.65 -28.06,8.15 V 28.5 c 0,4.49 12.55,8.14 28.06,8.14 15.49,0 28.07,-3.65 28.07,-8.14 z m 8.36,40.49 c 0,4.5 12.56,8.15 28.06,8.15 15.5,0 28.07,-3.65 28.07,-8.15 v -12.2 c 0,-4.51 -12.56,-8.15 -28.07,-8.15 -15.5,0 -28.06,3.64 -28.06,8.15 z m 28.06,-40.45 0.5,0.22 64.59,28.73 -64.59,28.88 -129.98,-57.83 74.47,-33.13 55.01,-24.471 0.5,-0.219 55.25,24.69 9.33,4.18 -64.58,28.73 z"
             style="fill:#f36b30;fill-opacity:1;fill-rule:nonzero;stroke:none"
             id="path454" /></g><g
           id="g456"
           transform="translate(432.25,526.54)"><path
             d="m 0,0 v -12.22 c 0,-4.49 -12.56,-8.14 -28.07,-8.14 -15.5,0 -28.06,3.65 -28.06,8.14 V 0 c 0,4.49 12.56,8.14 28.06,8.14 C -12.57,8.14 0,4.49 0,0 Z m -64.49,16.29 c 0,-4.5 -12.56,-8.15 -28.07,-8.15 -15.51,0 -28.06,3.65 -28.06,8.15 V 28.5 c 0,4.49 12.55,8.14 28.06,8.14 15.49,0 28.07,-3.65 28.07,-8.14 z m 8.36,40.49 c 0,4.5 12.56,8.15 28.06,8.15 15.5,0 28.07,-3.65 28.07,-8.15 v -12.2 c 0,-4.51 -12.56,-8.15 -28.07,-8.15 -15.5,0 -28.06,3.64 -28.06,8.15 z m 28.06,-40.45 0.5,0.22 64.59,28.73 -64.59,28.88 -129.98,-57.83 74.47,-33.13 55.01,-24.471 0.5,-0.219 55.25,24.69 9.33,4.18 -64.58,28.73 z"
             style="fill:none;stroke:#231f20;stroke-width:4;stroke-linecap:butt;stroke-linejoin:round;stroke-miterlimit:10;stroke-dasharray:none;stroke-opacity:1"
             id="path458" /></g><g
           id="g460"
           transform="translate(432.25,526.54)"><path
             d="m 0,0 c 0,-2.43 -3.68,-4.62 -9.49,-6.1 -4.94,-1.28 -11.44,-2.05 -18.58,-2.05 -7.13,0 -13.64,0.77 -18.57,2.04 -5.83,1.5 -9.49,3.68 -9.49,6.11 0,4.49 12.56,8.14 28.06,8.14 C -12.57,8.14 0,4.49 0,0"
             style="fill:#f36b30;fill-opacity:1;fill-rule:nonzero;stroke:none"
             id="path462" /></g><g
           id="g464"
           transform="translate(432.25,526.54)"><path
             d="m 0,0 c 0,-2.43 -3.68,-4.62 -9.49,-6.1 -4.94,-1.28 -11.44,-2.05 -18.58,-2.05 -7.13,0 -13.64,0.77 -18.57,2.04 -5.83,1.5 -9.49,3.68 -9.49,6.11 0,4.49 12.56,8.14 28.06,8.14 C -12.57,8.14 0,4.49 0,0 Z"
             style="fill:none;stroke:#231f20;stroke-width:4;stroke-linecap:butt;stroke-linejoin:round;stroke-miterlimit:10;stroke-dasharray:none;stroke-opacity:1"
             id="path466" /></g><g
           id="g468"
           transform="translate(432.25,583.3198)"><path
             d="m 0,0 c 0,-2.43 -3.66,-4.61 -9.46,-6.1 -4.94,-1.28 -11.46,-2.05 -18.61,-2.05 -7.14,0 -13.66,0.77 -18.6,2.05 -5.81,1.49 -9.46,3.67 -9.46,6.1 0,4.5 12.56,8.15 28.06,8.15 C -12.57,8.15 0,4.5 0,0"
             style="fill:#f36b30;fill-opacity:1;fill-rule:nonzero;stroke:none"
             id="path470" /></g><g
           id="g472"
           transform="translate(432.25,583.3198)"><path
             d="m 0,0 c 0,-2.43 -3.66,-4.61 -9.46,-6.1 -4.94,-1.28 -11.46,-2.05 -18.61,-2.05 -7.14,0 -13.66,0.77 -18.6,2.05 -5.81,1.49 -9.46,3.67 -9.46,6.1 0,4.5 12.56,8.15 28.06,8.15 C -12.57,8.15 0,4.5 0,0 Z"
             style="fill:none;stroke:#231f20;stroke-width:4;stroke-linecap:butt;stroke-linejoin:round;stroke-miterlimit:10;stroke-dasharray:none;stroke-opacity:1"
             id="path474" /></g><g
           id="g476"
           transform="translate(367.7598,555.04)"><path
             d="m 0,0 c 0,-2.43 -3.68,-4.62 -9.49,-6.11 -4.96,-1.27 -11.46,-2.04 -18.58,-2.04 -7.13,0 -13.63,0.77 -18.58,2.04 -5.82,1.49 -9.48,3.68 -9.48,6.11 0,4.49 12.55,8.14 28.06,8.14 C -12.58,8.14 0,4.49 0,0"
             style="fill:#f36b30;fill-opacity:1;fill-rule:nonzero;stroke:none"
             id="path478" /></g><g
           id="g480"
           transform="translate(367.7598,555.04)"><path
             d="m 0,0 c 0,-2.43 -3.68,-4.62 -9.49,-6.11 -4.96,-1.27 -11.46,-2.04 -18.58,-2.04 -7.13,0 -13.63,0.77 -18.58,2.04 -5.82,1.49 -9.48,3.68 -9.48,6.11 0,4.49 12.55,8.14 28.06,8.14 C -12.58,8.14 0,4.49 0,0 Z"
             style="fill:none;stroke:#231f20;stroke-width:4;stroke-linecap:butt;stroke-linejoin:round;stroke-miterlimit:10;stroke-dasharray:none;stroke-opacity:1"
             id="path482" /></g><g
           id="g484"
           transform="translate(432.25,583.3198)"><path
             d="m 0,0 v -12.2 c 0,-4.51 -12.56,-8.15 -28.07,-8.15 -15.5,0 -28.06,3.64 -28.06,8.15 V 0 c 0,-2.43 3.65,-4.61 9.46,-6.1 4.94,-1.28 11.46,-2.05 18.6,-2.05 7.15,0 13.67,0.77 18.61,2.05 C -3.66,-4.61 0,-2.43 0,0 Z"
             style="fill:none;stroke:#231f20;stroke-width:4;stroke-linecap:butt;stroke-linejoin:round;stroke-miterlimit:10;stroke-dasharray:none;stroke-opacity:1"
             id="path486" /></g><g
           id="g488"
           transform="translate(432.25,526.54)"><path
             d="m 0,0 v -12.22 c 0,-4.49 -12.56,-8.14 -28.07,-8.14 -15.5,0 -28.06,3.65 -28.06,8.14 V 0 c 0,-2.43 3.66,-4.61 9.49,-6.11 4.93,-1.27 11.44,-2.04 18.57,-2.04 7.14,0 13.64,0.77 18.58,2.05 C -3.68,-4.62 0,-2.43 0,0 Z"
             style="fill:none;stroke:#231f20;stroke-width:4;stroke-linecap:butt;stroke-linejoin:round;stroke-miterlimit:10;stroke-dasharray:none;stroke-opacity:1"
             id="path490" /></g><g
           id="g492"
           transform="translate(367.7598,555.04)"><path
             d="m 0,0 v -12.21 c 0,-4.5 -12.56,-8.15 -28.07,-8.15 -15.51,0 -28.06,3.65 -28.06,8.15 V 0 c 0,-2.43 3.66,-4.62 9.48,-6.11 4.95,-1.27 11.45,-2.04 18.58,-2.04 7.12,0 13.62,0.77 18.58,2.04 C -3.68,-4.62 0,-2.43 0,0 Z"
             style="fill:none;stroke:#231f20;stroke-width:4;stroke-linecap:butt;stroke-linejoin:round;stroke-miterlimit:10;stroke-dasharray:none;stroke-opacity:1"
             id="path494" /></g><g
           id="g496"
           transform="translate(497.3999,555.04)"><path
             d="m 0,0 c 0,-2.43 -3.66,-4.61 -9.47,-6.1 -4.96,-1.28 -11.46,-2.05 -18.59,-2.05 -7.12,0 -13.62,0.77 -18.58,2.04 -5.81,1.49 -9.49,3.68 -9.49,6.11 0,4.49 12.57,8.14 28.07,8.14 C -12.56,8.14 0,4.49 0,0"
             style="fill:#0096a3;fill-opacity:1;fill-rule:nonzero;stroke:none"
             id="path498" /></g><g
           id="g500"
           transform="translate(497.3999,555.04)"><path
             d="m 0,0 c 0,-2.43 -3.66,-4.61 -9.47,-6.1 -4.96,-1.28 -11.46,-2.05 -18.59,-2.05 -7.12,0 -13.62,0.77 -18.58,2.04 -5.81,1.49 -9.49,3.68 -9.49,6.11 0,4.49 12.57,8.14 28.07,8.14 C -12.56,8.14 0,4.49 0,0 Z"
             style="fill:none;stroke:#231f20;stroke-width:4;stroke-linecap:butt;stroke-linejoin:round;stroke-miterlimit:10;stroke-dasharray:none;stroke-opacity:1"
             id="path502" /></g><g
           id="g504"
           transform="translate(497.4199,542.8301)"><path
             d="m 0,0 c 0,-4.5 -12.58,-8.15 -28.07,-8.15 -15.51,0 -28.08,3.65 -28.08,8.15 v 12.21 c 0,-2.43 3.68,-4.62 9.49,-6.11 4.96,-1.27 11.46,-2.04 18.58,-2.04 7.13,0 13.63,0.77 18.59,2.05 5.81,1.49 9.47,3.67 9.47,6.1 V 0.15 C 0,0.09 0,0.05 0,0 Z"
             style="fill:none;stroke:#231f20;stroke-width:4;stroke-linecap:butt;stroke-linejoin:round;stroke-miterlimit:10;stroke-dasharray:none;stroke-opacity:1"
             id="path506" /></g><g
           id="g508"
           transform="translate(534.1602,485.0498)"><path
             d="m 0,0 v -66.25 l -64.89,28.86 v 66.26 l 9.37,-4.18 55.41,-24.64 z"
             style="fill:#0096a3;fill-opacity:1;fill-rule:nonzero;stroke:none"
             id="path510" /></g><g
           id="g512"
           transform="translate(534.1602,485.0498)"><path
             d="m 0,0 v -66.25 l -64.89,28.86 v 66.26 l 9.37,-4.18 55.41,-24.64 z"
             style="fill:none;stroke:#231f20;stroke-width:4;stroke-linecap:butt;stroke-linejoin:round;stroke-miterlimit:10;stroke-dasharray:none;stroke-opacity:1"
             id="path514" /></g><path
           d="m 469.27,447.66 h -0.01 v 66.26 h 0.01 z"
           style="fill:#f7931d;fill-opacity:1;fill-rule:nonzero;stroke:#231f20;stroke-width:4;stroke-linecap:butt;stroke-linejoin:round;stroke-miterlimit:10;stroke-dasharray:none;stroke-opacity:1"
           id="path516" /><g
           id="g518"
           transform="translate(663.5303,542.8701)"><path
             d="m 0,0 v -66.26 l -129.37,-57.81 v 66.25 l 55.25,24.69 z"
             style="fill:#8eb230;fill-opacity:1;fill-rule:nonzero;stroke:none"
             id="path520" /></g><g
           id="g522"
           transform="translate(663.5303,542.8701)"><path
             d="m 0,0 v -66.26 l -129.37,-57.81 v 66.25 l 55.25,24.69 z"
             style="fill:none;stroke:#231f20;stroke-width:4;stroke-linecap:butt;stroke-linejoin:round;stroke-miterlimit:10;stroke-dasharray:none;stroke-opacity:1"
             id="path524" /></g></g></g></g><g
     aria-label="SimBricks"
     id="text3596"
     style="font-size:106.667px;line-height:1.25;font-family:Exo;-inkscape-font-specification:Exo;letter-spacing:0px;word-spacing:0px"><path
       d="m 35.930202,300.51118 c 0,8.96003 1.920006,18.34673 18.986726,18.34673 h 14.93338 c 6.933355,0 8.746694,4.37334 8.746694,10.45336 v 7.25336 c 0,9.3867 -9.280029,9.60003 -13.653376,9.60003 -9.920031,0 -22.40007,-0.74667 -26.66675,-1.17334 v 6.40002 c 4.906682,0.85334 21.440067,2.66668 26.66675,2.66668 10.560033,0 21.546734,-2.34668 21.546734,-17.49339 v -7.25336 c 0,-8.74669 -2.453341,-18.34672 -16.640052,-18.34672 H 54.703594 c -6.40002,0 -10.880034,-0.74667 -10.880034,-10.45337 v -7.04002 c 0,-10.6667 5.760018,-11.41337 13.226708,-11.09337 0,0 19.840062,0.64001 26.66675,1.06667 v -6.40002 c -4.053346,-0.53333 -21.013399,-2.56 -26.66675,-2.56 -11.946704,0 -21.120066,3.52001 -21.120066,18.98672 z"
       style="font-size:106.667px"
       id="path1004" /><path
       d="m 97.690355,353.20468 h 7.893355 V 296.5645 h -7.893355 z m -1.06667,-65.81354 c 0,1.49334 1.06667,2.45334 2.560008,2.45334 h 5.333347 c 1.49334,0 2.45334,-0.85333 2.45334,-2.45334 v -5.76002 c 0,-1.49333 -0.85333,-2.66667 -2.45334,-2.66667 h -5.333347 c -1.706672,0 -2.560008,1.06667 -2.560008,2.66667 z"
       style="font-size:106.667px"
       id="path1006" /><path
       d="m 118.7036,353.20468 h 7.89336 v -43.41347 c 8.21336,-3.94668 11.9467,-5.97335 20.16006,-5.97335 5.54668,0 9.7067,4.05335 9.7067,10.3467 v 39.04012 h 7.89336 v -39.25345 -4.16002 c 7.04002,-4.58668 12.48003,-5.97335 20.90673,-5.97335 5.54668,0 9.60003,4.05335 9.60003,10.3467 v 39.04012 h 7.89336 v -39.04012 c 0,-10.88003 -7.68003,-18.24006 -17.49339,-18.24006 -9.49337,0 -17.28006,3.73335 -22.82674,8.32003 -2.45334,-5.22668 -8.74669,-8.32003 -15.68005,-8.32003 -8.42669,0 -13.65338,3.73335 -20.16006,7.46669 l -2.34668,-6.82669 h -5.54668 z"
       style="font-size:106.667px"
       id="path1008" /><path
       d="M 224.62381,308.40454 V 283.0178 h 22.08007 c 5.54669,0 12.37338,2.02667 12.37338,12.37337 0,8.74669 -4.37335,13.01337 -12.37338,13.01337 z m 0,36.90678 V 316.2979 h 22.08007 c 8.96003,0 12.80004,7.04002 12.80004,14.93338 0,12.69337 -7.68002,14.08004 -12.80004,14.08004 z m -8.00002,7.89336 h 30.08009 c 16.42672,0 20.6934,-10.88003 20.6934,-21.76007 0,-12.16003 -5.54668,-17.70672 -10.24003,-18.77339 7.57336,-2.34667 9.81336,-9.38669 9.81336,-17.28005 0,-8.7467 -4.69334,-20.26673 -20.26673,-20.26673 h -30.08009 z"
       style="font-size:106.667px"
       id="path1010" /><path
       d="m 278.06384,353.20468 h 7.89336 v -43.09347 c 8.21336,-3.94668 12.58671,-6.18668 21.12007,-6.18668 3.09334,0 6.61335,0.32 7.89336,0.64 v -7.78669 c -1.28001,-0.64 -4.80002,-0.85334 -7.89336,-0.85334 -8.7467,0 -14.61338,4.05335 -21.12007,7.78669 l -2.34667,-7.14669 h -5.54669 z"
       style="font-size:106.667px"
       id="path1012" /><path
       d="m 323.50386,353.20468 h 7.89336 V 296.5645 h -7.89336 z m -1.06667,-65.81354 c 0,1.49334 1.06667,2.45334 2.56001,2.45334 h 5.33335 c 1.49334,0 2.45334,-0.85333 2.45334,-2.45334 v -5.76002 c 0,-1.49333 -0.85334,-2.66667 -2.45334,-2.66667 h -5.33335 c -1.70667,0 -2.56001,1.06667 -2.56001,2.66667 z"
       style="font-size:106.667px"
       id="path1014" /><path
       d="m 343.45044,324.83126 c 0,24.85341 8.10669,28.90676 18.66672,28.90676 8.85336,-0.10667 16.42672,-0.64001 25.06675,-3.09335 v -5.97335 c 0,0 -15.25338,1.17334 -25.06675,1.17334 -7.68002,0 -10.77337,-4.26668 -10.77337,-20.58673 0,-20.16007 4.37335,-21.3334 10.77337,-21.3334 9.49336,0 24.32008,0.64 24.32008,0.64 v -5.76002 c -7.46669,-1.38667 -18.77339,-2.77334 -24.32008,-2.77334 -10.88003,0 -18.66672,4.05335 -18.66672,28.80009 z"
       style="font-size:106.667px"
       id="path1016" /><path
       d="m 397.85039,353.20468 h 7.89336 v -28.58675 h 4.26668 l 22.82673,28.58675 h 9.81337 l -25.17341,-32.53343 25.17341,-24.10675 h -10.9867 l -21.6534,20.16007 h -4.26668 v -46.93348 h -7.89336 z"
       style="font-size:106.667px"
       id="path1018" /><path
       d="m 447.98365,315.0179 c 0,10.9867 4.69335,13.97337 14.72005,13.97337 h 16.85338 c 4.69335,0 5.97335,2.13334 5.97335,5.86669 v 5.22668 c 0,6.40002 -5.97335,5.76002 -5.97335,5.76002 h -29.22676 v 5.86668 c 4.05335,0.42667 24.00008,2.02668 29.22676,2.02668 6.82669,0 13.86671,-2.02668 13.86671,-13.65338 v -5.22668 c 0,-8.00003 -4.58668,-13.76005 -13.86671,-13.76005 H 462.7037 c -3.94668,0 -6.82669,-0.21333 -6.82669,-6.08001 v -4.90669 c 0,-3.62667 0,-6.29335 6.82669,-6.29335 h 27.84008 v -6.08002 c -5.54668,-0.53333 -22.2934,-1.70667 -27.84008,-1.70667 -10.9867,0 -14.72005,5.33335 -14.72005,14.08004 z"
       style="font-size:106.667px"
       id="path1020" /></g></svg>
