<?xml version="1.0" encoding="UTF-8"?>
<svg id="Layer_1" data-name="Layer 1" xmlns="http://www.w3.org/2000/svg" xmlns:xlink="http://www.w3.org/1999/xlink" viewBox="0 0 582.12 80.85" width="582.12" height="80.85">
  <defs>
    <style>
      .cls-1 {
        fill: #6c8b23;
      }

      .cls-1, .cls-2, .cls-3, .cls-4, .cls-5, .cls-6, .cls-7 {
        stroke-width: 0px;
      }

      .cls-2 {
        fill: url(#New_Gradient_Swatch_copy_2);
      }

      .cls-3 {
        fill: #00707a;
      }

      .cls-4 {
        fill: #f36c30;
      }

      .cls-5 {
        fill: #b65124;
      }

      .cls-6 {
        fill: #8eb230;
      }

      .cls-7 {
        fill: #0095a3;
      }
    </style>
    <linearGradient id="New_Gradient_Swatch_copy_2" data-name="New Gradient Swatch copy 2" x1="0" y1="50.54" x2=".15" y2="50.54" gradientUnits="userSpaceOnUse">
      <stop offset="0" stop-color="#f8a783"/>
      <stop offset=".07" stop-color="#f6956b"/>
      <stop offset=".15" stop-color="#f58655"/>
      <stop offset=".25" stop-color="#f47a44"/>
      <stop offset=".36" stop-color="#f37238"/>
      <stop offset=".53" stop-color="#f36d31"/>
      <stop offset="1" stop-color="#f36c30"/>
    </linearGradient>
  </defs>
  <g>
    <path class="cls-3" d="M92.54,79.28c-2.11-.36-3.03-1.5-2.87-3.5l.08-1.3c.17-2.03,1.36-3.09,3.53-2.97,10.99.41,15.06.46,20.93.43,12.01-.06,15.8-3.67,15.8-12.27,0-7.88-3.17-10.88-10.16-12.91l-15.56-4.73c-11.47-3.28-15.73-11.01-15.73-21.79C88.56,4.56,96.52-.06,113.94,0c6.38.03,13.59.4,20.4,1.58,1.89.36,2.84,1.58,2.67,3.58l-.08,1.22c-.17,1.97-1.36,3.05-3.36,2.97-5.72-.29-13.06-.46-19.21-.46-11.28,0-15.77,1.86-15.77,11.6,0,7.47,3.14,10.79,10.26,12.79l15.15,4.56c12.17,3.5,16.13,11.1,16.13,21.99,0,15.54-7.92,20.99-26.18,20.99-4.68,0-12.25-.2-21.4-1.55Z"/>
    <path class="cls-3" d="M153.53,7.03c0-3.44,2.83-6.3,6.35-6.3s6.3,2.86,6.3,6.3-2.86,6.35-6.3,6.35-6.35-2.83-6.35-6.35ZM158.5,79.49c-2.25,0-3.45-1.2-3.45-3.45V27.82c0-2.28,1.2-3.45,3.45-3.45h2.68c2.28,0,3.45,1.17,3.45,3.45v48.23c0,2.28-1.17,3.45-3.45,3.45h-2.69,0Z"/>
    <path class="cls-3" d="M186.28,79.49c-2.25,0-3.45-1.17-3.45-3.45V27.82c0-2.25,1.14-3.45,3.39-3.45h1.22c2.17,0,3.3.17,3.75,2.37l.14,1.39c.17,1,.81,1.39,1.75.75,7.03-4.52,15.81-5.96,20.67-5.96,6.03,0,10.22,1.16,13.31,5.9.53.84,1.11.92,2.12.23,7.15-4.52,13.85-6.13,20.79-6.13,9.67,0,14.87,5.26,14.87,15.17v37.94c0,2.28-1.2,3.45-3.45,3.45h-2.77c-2.28,0-3.45-1.17-3.45-3.45v-35.21c-.08-6.79-2.43-9.68-8.59-9.68-4.75,0-9.48.83-17.2,5.13-.67.44-.95.92-.92,1.75.09,1.45.15,2.82.07,4.36v33.65c-.08,2.28-1.28,3.45-3.53,3.45h-2.44c-2.28,0-3.45-1.17-3.45-3.45v-35.21c.08-7.12-2.76-9.68-8.59-9.68-3.73,0-9.22.61-17.02,4.97-.67.36-.95.92-1.03,1.75v38.17c-.08,2.28-1.25,3.45-3.53,3.45h-2.68Z"/>
    <path class="cls-3" d="M289.64,79.49c-4.32-.03-6.47-2.39-6.47-6.61V7.94c0-4.22,2.17-6.25,6.47-6.61h18.89c19.21,0,26.06,3.4,26.06,19.48,0,10.63-3.33,16.34-11.04,17.57-.92.17-.92.95,0,1.11,9.88,1.34,13.38,8.61,13.38,20.51,0,15.89-7,19.48-24.92,19.48h-22.38ZM309.73,35.16c11.31-.03,15.23-2.65,15.23-13.19s-4.32-12.17-16.83-12.17h-12.87c-1.56,0-2.31.75-2.31,2.31v21.66c0,.92.47,1.39,1.39,1.39h15.39ZM310.53,71.11c12.3,0,16.36-1.85,16.36-12.76,0-12.13-4.32-15.38-17.08-15.53h-15.47c-.92,0-1.39.47-1.39,1.39v24.5c0,1.59.72,2.31,2.25,2.31l15.34.08h0Z"/>
    <path class="cls-3" d="M352.42,76.3V27.57c0-2.11,1.11-3.2,3.17-3.2h1.35c1.94,0,3.05.56,3.33,2.54l.14,1.48c.17,1.11,1.05,1.39,1.92.75,7.19-3.86,13.13-5.65,21.17-6.04,2.2-.25,3.31,1.11,3,3.31l-.28,2.57c-.31,2-1.39,2.67-3.31,3-3.9.33-11.69,1.69-19.73,4.31-.75.28-1.12.83-1.12,1.59v38.41c0,2.12-1.08,3.2-3.2,3.2h-3.26c-2.08,0-3.2-1.11-3.2-3.2Z"/>
    <path class="cls-3" d="M396.63,7.03c0-3.44,2.83-6.3,6.35-6.3s6.3,2.86,6.3,6.3-2.86,6.35-6.3,6.35-6.35-2.83-6.35-6.35ZM401.6,79.49c-2.25,0-3.45-1.2-3.45-3.45V27.82c0-2.28,1.2-3.45,3.45-3.45h2.68c2.28,0,3.45,1.17,3.45,3.45v48.23c0,2.28-1.17,3.45-3.45,3.45h-2.69,0Z"/>
    <path class="cls-3" d="M423.24,51.89c0-21.29,7.13-28.96,26.21-28.96,3.99,0,9.76.42,14.66,1.67,2.12.56,2.92,2,2.53,4.09-.47,2.08-1.75,2.97-3.84,2.94-4.16-.3-8.7-.47-11.74-.47-13.12,0-17.72,4.65-17.72,20.74s4.6,20.82,17.72,20.82c2.7,0,7.98-.17,12.76-.72,2.28-.28,3.56.69,3.92,2.78.36,2.25-.53,3.69-2.56,4.22-4.92,1.19-10.53,1.87-15.79,1.87-19.12,0-26.16-7.67-26.16-28.96Z"/>
    <path class="cls-3" d="M481.3,76.05V3.64c0-2.25,1.17-3.45,3.45-3.45h2.77c2.28,0,3.45,1.17,3.45,3.45l.14,31.77c0,2.87-.11,5.33-.42,7.98-.11.92.36,1.48,1.28,1.48h4.58c.75,0,1.23-.28,1.7-.84l15.26-17.68c1.2-1.36,2.36-1.97,4.25-1.97h3.14c3,0,3.89,1.92,1.97,4.25l-13.77,15.96c-.9,1.15-2.08,2.3-3.01,2.95-.75.56-.75,1.28,0,1.95.9.73,2.19,2.28,3.01,3.48l16.14,22.35c1.67,2.33.67,4.17-2.14,4.17h-3.38c-1.92,0-3.17-.64-4.2-2.25l-17.21-24.51c-.39-.64-.95-.92-1.67-.92h-4.66c-1,0-1.48.56-1.39,1.47.31,2.54.39,5.04.39,7.39v15.37c0,2.25-1.2,3.45-3.45,3.45h-2.77c-2.25,0-3.45-1.2-3.45-3.45Z"/>
    <path class="cls-3" d="M539.74,79.61c-2.17-.25-2.92-1.53-2.72-4.03.2-2.58,1.2-3.42,3.39-3.3,4.92.24,10.44.38,16.19.35,12.35-.06,16.18-1.57,16.18-7.7,0-5.23-3.34-6.82-9.25-7.99l-14.65-3.09c-9.16-1.99-12.81-6.93-12.81-15.7,0-11.3,6.47-15.36,21.29-15.21,6.15.11,13.65.57,20.02,1.33,2,.28,3.08,1.44,2.84,3.86-.28,2.75-1.31,3.58-3.56,3.47-5.88-.26-11.96-.43-17.89-.46-9.97-.06-13.37,1.04-13.37,7.02,0,5.42,2.83,6.89,8.44,8.14l14.81,3.17c9.4,2.03,13.46,6.34,13.46,15.47,0,12.13-7.54,15.81-23.56,15.81-3.61,0-10.7-.11-18.81-1.13Z"/>
  </g>
  <g>
    <g>
      <polygon class="cls-5" points="39.74 50.54 39.74 70.81 19.98 79.64 19.98 59.37 36.88 51.82 39.74 50.54"/>
      <path class="cls-2" d="M0,50.54l.15.07v-.13l-.15.07Z"/>
      <path class="cls-4" d="M19.92,41.68L.15,50.47v.13l19.76,8.79h0l19.82-8.86-19.82-8.86ZM19.94,53.04c-4.75,0-8.59-1.12-8.59-2.49v-3.74c0-1.37,3.85-2.49,8.59-2.49s8.59,1.12,8.59,2.49v3.69s0,.03,0,.05c0,1.38-3.85,2.49-8.59,2.49Z"/>
      <path class="cls-4" d="M28.52,46.81c0,.74-1.12,1.41-2.9,1.87-1.52.39-3.51.63-5.69.63s-4.17-.24-5.69-.62c-1.78-.46-2.9-1.13-2.9-1.87,0-1.37,3.85-2.49,8.59-2.49s8.59,1.12,8.59,2.49Z"/>
      <polygon class="cls-4" points="19.95 59.37 19.95 79.64 .09 70.81 .09 50.54 2.96 51.82 19.91 59.36 19.95 59.37"/>
    </g>
    <polygon class="cls-3" points="60.71 18.48 60.71 38.76 40.95 47.59 40.95 27.32 57.86 19.76 60.71 18.48"/>
    <path class="cls-7" d="M20.98,18.48l.15.07v-.13l-.15.07Z"/>
    <path class="cls-7" d="M40.89,9.62l-19.76,8.79v.13l19.76,8.79h0l19.82-8.86-19.82-8.86ZM40.92,20.99c-4.75,0-8.59-1.12-8.59-2.49v-3.74c0-1.37,3.85-2.49,8.59-2.49s8.59,1.12,8.59,2.49v3.69s0,.03,0,.05c0,1.38-3.85,2.49-8.59,2.49Z"/>
    <path class="cls-7" d="M49.5,14.76c0,.74-1.12,1.41-2.9,1.87-1.52.39-3.51.63-5.69.63s-4.17-.24-5.69-.62c-1.78-.46-2.9-1.13-2.9-1.87,0-1.37,3.85-2.49,8.59-2.49s8.59,1.12,8.59,2.49Z"/>
    <polygon class="cls-7" points="40.92 27.32 40.92 47.59 21.07 38.76 21.07 18.48 23.93 19.76 40.89 27.3 40.92 27.32"/>
    <g>
      <polygon class="cls-1" points="82.3 50.54 82.3 70.81 62.54 79.64 62.54 59.37 79.45 51.82 82.3 50.54"/>
      <path class="cls-6" d="M42.56,50.54l.15.07v-.13l-.15.07Z"/>
      <path class="cls-6" d="M62.48,41.68l-19.76,8.79v.13l19.76,8.79h0l19.82-8.86-19.82-8.86ZM62.5,53.04c-4.75,0-8.59-1.12-8.59-2.49v-3.74c0-1.37,3.85-2.49,8.59-2.49s8.59,1.12,8.59,2.49v3.69s0,.03,0,.05c0,1.38-3.85,2.49-8.59,2.49Z"/>
      <path class="cls-6" d="M71.09,46.81c0,.74-1.12,1.41-2.9,1.87-1.52.39-3.51.63-5.69.63s-4.17-.24-5.69-.62c-1.78-.46-2.9-1.13-2.9-1.87,0-1.37,3.85-2.49,8.59-2.49s8.59,1.12,8.59,2.49Z"/>
      <polygon class="cls-6" points="62.51 59.37 62.51 79.64 42.65 70.81 42.65 50.54 45.52 51.82 62.48 59.36 62.51 59.37"/>
    </g>
  </g>
</svg>