<?xml version="1.0" encoding="UTF-8"?>
<svg id="Layer_1" data-name="Layer 1" xmlns="http://www.w3.org/2000/svg" xmlns:xlink="http://www.w3.org/1999/xlink" viewBox="0 0 193.87 164.94" width="193.87" height="164.94">
  <defs>
    <style>
      .cls-1 {
        fill: #6c8b23;
      }

      .cls-1, .cls-2, .cls-3, .cls-4, .cls-5, .cls-6, .cls-7 {
        stroke-width: 0px;
      }

      .cls-2 {
        fill: url(#New_Gradient_Swatch_copy_2);
      }

      .cls-3 {
        fill: #00707a;
      }

      .cls-4 {
        fill: #f36c30;
      }

      .cls-5 {
        fill: #b65124;
      }

      .cls-6 {
        fill: #8eb230;
      }

      .cls-7 {
        fill: #0095a3;
      }
    </style>
    <linearGradient id="New_Gradient_Swatch_copy_2" data-name="New Gradient Swatch copy 2" x1="0" y1="96.38" x2=".36" y2="96.38" gradientUnits="userSpaceOnUse">
      <stop offset="0" stop-color="#f8a783"/>
      <stop offset=".07" stop-color="#f6956b"/>
      <stop offset=".15" stop-color="#f58655"/>
      <stop offset=".25" stop-color="#f47a44"/>
      <stop offset=".36" stop-color="#f37238"/>
      <stop offset=".53" stop-color="#f36d31"/>
      <stop offset="1" stop-color="#f36c30"/>
    </linearGradient>
  </defs>
  <g>
    <polygon class="cls-5" points="93.61 96.38 93.61 144.13 47.06 164.94 47.06 117.18 86.88 99.39 93.61 96.38"/>
    <path class="cls-2" d="M0,96.38l.36.16v-.32l-.36.16Z"/>
    <path class="cls-4" d="M46.92,75.51L.36,96.22v.32l46.55,20.71h0l46.69-20.87-46.69-20.87ZM46.97,102.28c-11.18,0-20.24-2.63-20.24-5.87v-8.8c0-3.24,9.06-5.87,20.23-5.87s20.23,2.63,20.23,5.87v8.69s.01.07.01.11c0,3.24-9.07,5.87-20.23,5.87Z"/>
    <path class="cls-4" d="M67.19,87.6c0,1.75-2.64,3.32-6.83,4.4-3.58.92-8.26,1.48-13.4,1.48s-9.82-.56-13.39-1.47c-4.19-1.07-6.84-2.65-6.84-4.4,0-3.24,9.06-5.87,20.23-5.87s20.23,2.63,20.23,5.87Z"/>
    <polygon class="cls-4" points="46.98 117.18 46.98 164.94 .21 144.13 .21 96.38 6.97 99.39 46.9 117.15 46.98 117.18"/>
  </g>
  <polygon class="cls-3" points="143.02 20.87 143.02 68.63 96.47 89.43 96.47 41.68 136.29 23.88 143.02 20.87"/>
  <path class="cls-7" d="M49.41,20.87l.36.16v-.32l-.36.16Z"/>
  <path class="cls-7" d="M96.33,0l-46.56,20.71v.32l46.55,20.71h0l46.69-20.87L96.33,0ZM96.38,26.77c-11.18,0-20.24-2.63-20.24-5.87v-8.8c0-3.24,9.06-5.87,20.23-5.87s20.23,2.63,20.23,5.87v8.69s.01.07.01.11c0,3.24-9.07,5.87-20.23,5.87Z"/>
  <path class="cls-7" d="M116.6,12.09c0,1.75-2.64,3.32-6.83,4.4-3.58.92-8.26,1.48-13.4,1.48s-9.82-.56-13.39-1.47c-4.19-1.07-6.84-2.65-6.84-4.4,0-3.24,9.06-5.87,20.23-5.87s20.23,2.63,20.23,5.87Z"/>
  <polygon class="cls-7" points="96.39 41.68 96.39 89.43 49.62 68.63 49.62 20.87 56.38 23.88 96.31 41.64 96.39 41.68"/>
  <g>
    <polygon class="cls-1" points="193.87 96.38 193.87 144.13 147.32 164.94 147.32 117.18 187.14 99.39 193.87 96.38"/>
    <path class="cls-6" d="M100.26,96.38l.36.16v-.32l-.36.16Z"/>
    <path class="cls-6" d="M147.18,75.51l-46.56,20.71v.32l46.55,20.71h0l46.69-20.87-46.69-20.87ZM147.23,102.28c-11.18,0-20.24-2.63-20.24-5.87v-8.8c0-3.24,9.06-5.87,20.23-5.87s20.23,2.63,20.23,5.87v8.69s.01.07.01.11c0,3.24-9.07,5.87-20.23,5.87Z"/>
    <path class="cls-6" d="M167.45,87.6c0,1.75-2.64,3.32-6.83,4.4-3.58.92-8.26,1.48-13.4,1.48s-9.82-.56-13.39-1.47c-4.19-1.07-6.84-2.65-6.84-4.4,0-3.24,9.06-5.87,20.23-5.87s20.23,2.63,20.23,5.87Z"/>
    <polygon class="cls-6" points="147.25 117.18 147.25 164.94 100.47 144.13 100.47 96.38 107.23 99.39 147.17 117.15 147.25 117.18"/>
  </g>
</svg>